# Blender 4.5.3 LTS
# www.blender.org
mtllib Arco.mtl
g Jamb_Malla
v 0.269752 -2.740086 -1.573434
v -0.249473 -2.740073 -1.503969
v 0.269828 -2.740073 -1.503969
v -0.249401 -2.740086 -1.573433
v 0.266350 -2.740075 1.435196
v -0.245580 -2.740075 1.435197
v -0.245494 -2.740088 1.504661
v 0.266265 -2.740088 1.504660
v -0.249215 1.153375 -0.966443
v -0.249215 1.281296 -0.754407
v -0.249215 1.185606 -0.919949
v -0.249215 1.221235 -0.863326
v -0.249215 1.254837 -0.805195
v -0.249216 0.726565 -1.356120
v -0.249216 0.502289 -1.458997
v -0.249216 0.676537 -1.383461
v -0.249216 0.616348 -1.412613
v -0.249216 0.555160 -1.439138
v 0.269986 0.946066 -1.196731
v 0.269986 0.747064 -1.343984
v 0.269986 0.902438 -1.233827
v 0.269986 0.849298 -1.274837
v 0.269986 0.794738 -1.313519
v 0.269987 1.170664 -1.045332
v 0.269986 1.004492 -1.229393
v 0.269986 1.135058 -1.090329
v 0.269986 1.090974 -1.141109
v 0.269986 1.045126 -1.189942
v -0.249215 1.133246 -0.993606
v -0.249215 0.967061 -1.177649
v -0.249215 1.097636 -1.038599
v -0.249215 1.053549 -1.089374
v -0.249215 1.007697 -1.138202
v -0.249215 1.298445 -0.718876
v -0.249214 1.384834 -0.487917
v -0.249214 1.321401 -0.667356
v -0.249214 1.345880 -0.605373
v -0.249214 1.368154 -0.542362
v -0.249198 0.775875 -1.403591
v -0.249215 0.974868 -1.256322
v -0.249205 0.823547 -1.373123
v -0.249210 0.878105 -1.334437
v -0.249214 0.931241 -1.293422
v -0.249150 0.484918 -1.535269
v -0.249131 0.241839 -1.574528
v -0.249143 0.429664 -1.550307
v -0.249137 0.364066 -1.563049
v -0.249133 0.298111 -1.571554
v 0.269968 0.775874 -1.403592
v 0.269986 0.974868 -1.256323
v 0.269975 0.823547 -1.373124
v 0.269981 0.878104 -1.334437
v 0.269985 0.931241 -1.293422
v 0.269987 1.198343 -1.007974
v 0.269987 1.326248 -0.795923
v 0.269987 1.230569 -0.961476
v 0.269987 1.266193 -0.904849
v 0.269987 1.299791 -0.846715
v 0.269986 1.396595 -0.445007
v 0.269986 1.439960 -0.203493
v 0.269986 1.409838 -0.390346
v 0.269986 1.422730 -0.325254
v 0.269986 1.433307 -0.259640
v 0.269986 0.502289 -1.458998
v 0.269986 0.726565 -1.356120
v 0.269986 0.555160 -1.439138
v 0.269986 0.616348 -1.412613
v 0.269986 0.676537 -1.383461
v 0.269986 0.967060 -1.177650
v 0.269986 1.133246 -0.993607
v 0.269986 1.007697 -1.138203
v 0.269986 1.053549 -1.089375
v 0.269986 1.097636 -1.038600
v -0.247680 1.439960 -0.203493
v -0.249213 1.396595 -0.445006
v -0.248267 1.433308 -0.259639
v -0.248764 1.422730 -0.325254
v -0.249096 1.409838 -0.390346
v -0.249215 1.326248 -0.795922
v -0.249215 1.198343 -1.007973
v -0.249215 1.299792 -0.846714
v -0.249215 1.266194 -0.904849
v -0.249215 1.230570 -0.961475
v -0.249213 1.451343 -0.460080
v -0.247754 1.494577 -0.218529
v -0.249102 1.464573 -0.405415
v -0.248786 1.477436 -0.340315
v -0.248312 1.487971 -0.274689
v 0.269963 0.746052 -1.421249
v 0.269926 0.521519 -1.523270
v 0.269954 0.696006 -1.448527
v 0.269944 0.635761 -1.477494
v 0.269934 0.574490 -1.503740
v 0.269986 0.484924 -1.464832
v 0.269985 0.241852 -1.505064
v 0.269986 0.429673 -1.480242
v 0.269986 0.364077 -1.493299
v 0.269986 0.298123 -1.502015
v 0.269987 1.281296 -0.754407
v 0.269987 1.153375 -0.966443
v 0.269987 1.254836 -0.805196
v 0.269987 1.221234 -0.863326
v 0.269987 1.185606 -0.919949
v -0.249214 1.435733 -0.517055
v -0.249215 1.349360 -0.748025
v -0.249214 1.419056 -0.571503
v -0.249214 1.396787 -0.634516
v -0.249214 1.372313 -0.696503
v 0.269986 1.494576 -0.218530
v 0.269986 1.451343 -0.460080
v 0.269986 1.487971 -0.274690
v 0.269986 1.477435 -0.340316
v 0.269986 1.464573 -0.405416
v 0.269920 0.484917 -1.535270
v 0.269900 0.241839 -1.574529
v 0.269912 0.429664 -1.550308
v 0.269906 0.364066 -1.563049
v 0.269902 0.298110 -1.571554
v -0.249216 0.241852 -1.505063
v -0.249216 0.484925 -1.464832
v -0.249216 0.298124 -1.502014
v -0.249216 0.364078 -1.493298
v -0.249216 0.429673 -1.480242
v -0.249156 0.521519 -1.523269
v -0.249193 0.746052 -1.421249
v -0.249165 0.574490 -1.503740
v -0.249175 0.635762 -1.477494
v -0.249184 0.696006 -1.448527
v -0.249215 0.946067 -1.196731
v -0.249216 0.747065 -1.343983
v -0.249215 0.902438 -1.233826
v -0.249215 0.849298 -1.274837
v -0.249216 0.794739 -1.313519
v -0.247100 1.444106 -0.156793
v -0.245578 1.444067 0.088050
v -0.246517 1.447433 -0.100635
v -0.246023 1.448595 -0.034384
v -0.245694 1.447412 0.031874
v 0.269987 1.435732 -0.517056
v 0.269987 1.349360 -0.748025
v 0.269987 1.419056 -0.571503
v 0.269987 1.396786 -0.634517
v 0.269987 1.372312 -0.696503
v 0.269987 1.298444 -0.718877
v 0.269986 1.384834 -0.487917
v 0.269987 1.321400 -0.667357
v 0.269987 1.345879 -0.605373
v 0.269987 1.368154 -0.542362
v -0.249215 1.004492 -1.229392
v -0.249215 1.170665 -1.045331
v -0.249215 1.045126 -1.189941
v -0.249215 1.090975 -1.141109
v -0.249215 1.135058 -1.090328
v -0.245578 1.499953 0.087745
v -0.247027 1.499966 -0.157099
v -0.245688 1.503250 0.031569
v -0.246002 1.504411 -0.034689
v -0.246472 1.503257 -0.100940
v 0.266352 1.435716 0.448247
v 0.266352 1.349359 0.679222
v 0.266352 1.419046 0.502696
v 0.266352 1.396780 0.565712
v 0.266352 1.372310 0.627700
v 0.266352 1.298443 0.650074
v 0.266352 1.384815 0.419107
v 0.266352 1.321398 0.598553
v 0.266352 1.345873 0.536568
v 0.266352 1.368143 0.473555
v -0.245577 1.153374 0.897641
v -0.245577 1.281295 0.685605
v -0.245577 1.185605 0.851146
v -0.245577 1.221234 0.794524
v -0.245577 1.254836 0.736393
v -0.245577 1.170663 0.976529
v -0.245577 1.004491 1.160590
v -0.245577 1.135056 1.021526
v -0.245577 1.090973 1.072306
v -0.245577 1.045124 1.121139
v 0.266352 0.726562 1.287329
v 0.266352 0.502290 1.390216
v 0.266352 0.676536 1.314672
v 0.266352 0.616348 1.343827
v 0.266352 0.555161 1.370355
v 0.269986 1.499966 -0.157100
v 0.268540 1.499953 0.087745
v 0.269876 1.503257 -0.100941
v 0.269563 1.504410 -0.034689
v 0.269094 1.503250 0.031568
v -0.245577 0.974866 1.187522
v -0.245559 0.775876 1.334797
v -0.245576 0.931240 1.224622
v -0.245572 0.878104 1.265639
v -0.245566 0.823547 1.304327
v -0.245554 0.746050 1.352458
v -0.245517 0.521520 1.454488
v -0.245546 0.696005 1.379738
v -0.245536 0.635761 1.408707
v -0.245526 0.574490 1.434956
v 0.266352 1.198341 0.939170
v 0.266352 1.326247 0.727120
v 0.266352 1.230568 0.892673
v 0.266352 1.266192 0.836046
v 0.266352 1.299790 0.777912
v 0.266352 0.974866 1.187522
v 0.266334 0.775875 1.334796
v 0.266351 0.931240 1.224622
v 0.266347 0.878104 1.265638
v 0.266341 0.823547 1.304326
v 0.266352 0.747066 1.275189
v 0.266352 0.946064 1.127931
v 0.266352 0.794739 1.244722
v 0.266352 0.849298 1.206038
v 0.266352 0.902436 1.165027
v 0.266352 1.396516 0.376389
v 0.267882 1.439897 0.134881
v 0.266468 1.409755 0.321727
v 0.266800 1.422648 0.256635
v 0.267297 1.433232 0.191024
v 0.266352 1.451272 0.391442
v 0.267806 1.494496 0.149892
v 0.266463 1.464496 0.336777
v 0.266778 1.477355 0.271676
v 0.267250 1.487889 0.206051
v 0.266352 0.241851 1.436289
v 0.266352 0.484923 1.396053
v 0.266352 0.298122 1.433240
v 0.266352 0.364076 1.424523
v 0.266352 0.429672 1.411464
v 0.268464 1.444066 0.088050
v 0.269986 1.444105 -0.156794
v 0.269047 1.447412 0.031873
v 0.269540 1.448594 -0.034384
v 0.269870 1.447433 -0.100635
v 0.266352 0.967060 1.108847
v 0.266352 1.133245 0.924803
v 0.266352 1.007697 1.069400
v 0.266352 1.053549 1.020572
v 0.266352 1.097635 0.969796
v 0.266352 1.281295 0.685604
v 0.266352 1.153373 0.897640
v 0.266352 1.254835 0.736393
v 0.266352 1.221233 0.794523
v 0.266352 1.185605 0.851146
v -0.245492 0.241838 1.505756
v -0.245511 0.484916 1.466491
v -0.245494 0.298110 1.502781
v -0.245498 0.364065 1.494274
v -0.245504 0.429663 1.481531
v 0.266292 0.521520 1.454487
v 0.266329 0.746049 1.352457
v 0.266301 0.574490 1.434956
v 0.266311 0.635761 1.408707
v 0.266321 0.696004 1.379737
v -0.245577 0.241851 1.436290
v -0.245577 0.484923 1.396053
v -0.245577 0.298123 1.433241
v -0.245577 0.364077 1.424524
v -0.245577 0.429672 1.411465
v -0.245577 1.384815 0.419107
v -0.245577 1.298444 0.650074
v -0.245577 1.368143 0.473555
v -0.245577 1.345874 0.536569
v -0.245577 1.321398 0.598554
v -0.245577 1.133245 0.924804
v -0.245577 0.967060 1.108848
v -0.245577 1.097636 0.969797
v -0.245577 1.053549 1.020572
v -0.245577 1.007697 1.069401
v -0.245577 0.502291 1.390217
v -0.245577 0.726563 1.287329
v -0.245577 0.555162 1.370355
v -0.245577 0.616349 1.343827
v -0.245577 0.676537 1.314673
v -0.245577 1.396516 0.376389
v -0.245578 1.439897 0.134882
v -0.245577 1.409755 0.321728
v -0.245577 1.422648 0.256636
v -0.245577 1.433233 0.191025
v 0.266352 1.004491 1.160590
v 0.266352 1.170663 0.976528
v 0.266352 1.045124 1.121139
v 0.266352 1.090972 1.072306
v 0.266352 1.135056 1.021525
v -0.245577 0.747066 1.275190
v -0.245577 0.946065 1.127931
v -0.245577 0.794739 1.244723
v -0.245577 0.849298 1.206039
v -0.245577 0.902436 1.165027
v -0.245577 1.326247 0.727120
v -0.245577 1.198342 0.939171
v -0.245577 1.299791 0.777912
v -0.245577 1.266193 0.836047
v -0.245577 1.230569 0.892673
v -0.245577 1.349360 0.679223
v -0.245577 1.435716 0.448247
v -0.245577 1.372310 0.627700
v -0.245577 1.396781 0.565713
v -0.245577 1.419046 0.502697
v -0.245577 1.494497 0.149893
v -0.245577 1.451272 0.391443
v -0.245577 1.487890 0.206051
v -0.245577 1.477356 0.271677
v -0.245577 1.464497 0.336777
v 0.266287 0.484916 1.466491
v 0.266267 0.241837 1.505755
v 0.266279 0.429662 1.481530
v 0.266273 0.364065 1.494274
v 0.266269 0.298109 1.502780
v -0.921926 0.080975 2.592675
v -0.921926 -2.743452 2.592676
v -0.921926 0.080975 1.506357
v -0.921926 -2.743452 1.506358
v 0.888605 0.080975 2.592675
v 0.888605 -2.743452 2.592676
v 0.888605 0.080975 1.506357
v 0.888605 -2.743452 1.506358
v -0.921926 0.080973 -1.575166
v -0.921926 -2.743454 -1.575165
v -0.921926 0.080973 -2.661484
v -0.921926 -2.743454 -2.661483
v 0.888605 0.080973 -1.575166
v 0.888605 -2.743454 -1.575165
v 0.888605 0.080973 -2.661484
v 0.888605 -2.743454 -2.661483
v -0.921926 0.485237 -1.521186
v -0.921926 0.770263 -2.569444
v 0.888605 0.485237 -1.521186
v 0.888605 0.770263 -2.569444
v -0.921926 0.861173 -1.363026
v -0.921926 1.411255 -2.299775
v 0.888605 0.861173 -1.363026
v 0.888605 1.411255 -2.299775
v -0.921926 1.182441 -1.111770
v -0.921926 1.959033 -1.871370
v 0.888605 1.182441 -1.111770
v 0.888605 1.959033 -1.871370
v -0.921926 1.426529 -0.785023
v -0.921926 2.375216 -1.314248
v 0.888605 1.426529 -0.785023
v 0.888605 2.375216 -1.314249
v -0.921926 1.576334 -0.405680
v -0.921926 2.630641 -0.667448
v 0.888605 1.576334 -0.405680
v 0.888605 2.630642 -0.667448
v -0.921926 1.621359 -0.000322
v -0.921926 2.707411 0.023709
v 0.888605 1.621358 -0.000322
v 0.888605 2.707411 0.023709
v -0.921926 1.558449 0.402648
v -0.921926 2.600146 0.710794
v 0.888605 1.558448 0.402648
v 0.888605 2.600146 0.710794
v -0.921926 1.392012 0.774994
v -0.921926 2.316362 1.345663
v 0.888605 1.392012 0.774994
v 0.888605 2.316362 1.345663
v -0.921926 1.133711 1.090625
v -0.921926 1.875944 1.883831
v 0.888605 1.133711 1.090625
v 0.888605 1.875944 1.883831
v -0.921926 0.801644 1.327425
v -0.921926 1.309753 2.287587
v 0.888605 0.801644 1.327425
v 0.888605 1.309753 2.287587
v -0.921926 0.419080 1.468802
v -0.921926 0.657461 2.528642
v 0.888604 0.419079 1.468802
v 0.888605 0.657461 2.528642
v -0.921926 0.073749 1.498756
v -0.921926 0.074438 2.590103
v 0.888605 0.079841 1.504848
v 0.888605 0.080531 2.590103
v 1.793869 2.959716 -4.560731
v 1.793870 4.227087 -4.560732
v 1.793870 2.959719 4.491920
v 1.793870 4.227090 4.491920
v -1.827191 2.959716 -4.560731
v -1.827191 4.227087 -4.560732
v -1.827191 2.959719 4.491920
v -1.827191 4.227090 4.491920
v 1.974923 3.558745 -0.284204
v 1.974923 2.619269 -0.284203
v 1.974923 3.558746 0.215392
v 1.974923 2.619269 0.215392
v -1.646138 3.558745 -0.284204
v -1.646138 2.619269 -0.284203
v -1.646138 3.558745 0.215392
v -1.646138 2.619269 0.215392
vn 0.5779 -0.5759 -0.5783
vn -0.5785 -0.5754 0.5781
vn -0.5779 -0.5758 -0.5783
vn -0.7138 -0.0188 0.7001
vn 0.5785 -0.5755 0.5781
vn 0.7138 -0.0188 0.7001
vn -0.7045 0.5634 -0.4315
vn 0.7046 0.5768 -0.4134
vn 0.7045 0.5634 -0.4315
vn -0.7115 -0.4639 0.5277
vn -0.7042 0.4862 -0.5175
vn -0.7041 0.4689 -0.5333
vn 0.7120 -0.6985 0.0724
vn -0.7119 -0.6998 0.0600
vn -0.7123 -0.6973 0.0804
vn -0.7007 0.0187 -0.7132
vn 0.7007 0.0187 -0.7132
vn -0.7117 -0.5577 0.4272
vn -0.7046 0.5768 -0.4134
vn -0.7118 -0.6371 0.2956
vn 0.7118 -0.6278 0.3149
vn 0.7118 -0.6371 0.2956
vn 0.7116 -0.2355 0.6620
vn -0.7135 -0.2058 0.6698
vn 0.7135 -0.2058 0.6697
vn -0.7119 -0.6745 0.1957
vn -0.7055 0.6865 -0.1764
vn -0.7052 0.6809 -0.1975
vn 0.7049 0.6340 -0.3180
vn -0.7050 0.6434 -0.2984
vn 0.7050 0.6434 -0.2984
vn 0.7029 0.2338 -0.6718
vn 0.7042 0.4862 -0.5175
vn 0.7041 0.4689 -0.5333
vn 0.7117 -0.5577 0.4272
vn 0.7117 -0.5709 0.4093
vn 0.7119 -0.6745 0.1957
vn 0.7052 0.6865 -0.1771
vn 0.7119 -0.6800 0.1755
vn -0.7116 -0.4811 0.5121
vn 0.7115 -0.4639 0.5277
vn 0.7116 -0.4811 0.5121
vn -0.7122 -0.6796 0.1762
vn -0.7050 0.7079 -0.0440
vn -0.7053 0.7059 -0.0648
vn 0.7052 0.6809 -0.1975
vn -0.7012 0.2047 -0.6830
vn 0.7012 0.2047 -0.6830
vn -0.7120 -0.6985 -0.0725
vn -0.7052 0.7071 0.0525
vn -0.7117 -0.7006 -0.0513
vn -0.7029 0.2338 -0.6718
vn -0.7115 -0.3476 0.6107
vn -0.7036 0.3723 -0.6052
vn -0.7034 0.3512 -0.6180
vn 0.7115 -0.3476 0.6107
vn 0.7036 0.3723 -0.6052
vn 0.7115 -0.3682 0.5985
vn -0.7118 -0.6278 0.3150
vn -0.7049 0.6340 -0.3180
vn -0.7115 -0.3682 0.5985
vn 0.7034 0.3512 -0.6180
vn 0.7057 0.7067 -0.0510
vn 0.7122 -0.7001 0.0525
vn 0.7054 0.7051 -0.0724
vn 0.7053 0.7044 0.0800
vn -0.7054 0.7051 0.0724
vn 0.7135 -0.2058 -0.6697
vn 0.7029 0.2338 0.6718
vn 0.7012 0.2047 0.6830
vn -0.7135 -0.2058 -0.6697
vn -0.7029 0.2338 0.6718
vn -0.7116 -0.2355 -0.6620
vn 0.7075 0.0003 -0.7067
vn -0.7138 -0.0188 -0.7001
vn 0.7138 -0.0188 -0.7001
vn 0.7046 0.5768 0.4134
vn -0.7045 0.5634 0.4315
vn 0.7045 0.5634 0.4315
vn -0.7119 -0.6745 -0.1956
vn 0.7117 -0.6804 -0.1748
vn 0.7119 -0.6745 -0.1956
vn -0.7118 -0.6278 -0.3149
vn 0.7118 -0.6371 -0.2956
vn 0.7118 -0.6278 -0.3149
vn 0.7050 0.6434 0.2984
vn 0.7049 0.6340 0.3180
vn -0.7012 0.2047 0.6830
vn 0.7115 -0.3476 -0.6107
vn 0.7036 0.3724 0.6052
vn 0.7034 0.3512 0.6180
vn -0.7115 -0.4640 -0.5277
vn -0.7042 0.4862 0.5175
vn -0.7116 -0.4811 -0.5121
vn 0.7050 0.6866 0.1777
vn 0.7052 0.6809 0.1974
vn -0.7052 0.6865 0.1770
vn -0.7119 -0.6800 -0.1754
vn -0.7115 -0.3683 -0.5985
vn 0.7115 -0.3683 -0.5985
vn -0.7067 -0.0003 0.7075
vn -0.7007 0.0187 0.7132
vn -0.7117 -0.5577 -0.4272
vn 0.7117 -0.5709 -0.4093
vn 0.7117 -0.5577 -0.4272
vn 0.7116 -0.6997 -0.0645
vn 0.7120 -0.7008 -0.0438
vn 0.7041 0.4689 0.5333
vn -0.7041 0.4689 0.5333
vn -0.7115 -0.3476 -0.6107
vn -0.7036 0.3724 0.6052
vn -0.7052 0.6809 0.1974
vn -0.7046 0.5768 0.4134
vn -0.7117 -0.5709 -0.4093
vn -0.7034 0.3512 0.6180
vn 0.7115 -0.4640 -0.5277
vn 0.7042 0.4862 0.5175
vn -0.7049 0.6340 0.3180
vn 0.7116 -0.4811 -0.5121
vn 0.7116 -0.2355 -0.6620
vn 0.7007 0.0187 0.7132
vn 0.7067 -0.0003 0.7075
vn 0.7058 0.7059 0.0594
vn -0.7050 0.6434 0.2984
vn -0.7118 -0.6371 -0.2956
vn -0.7042 0.6940 -0.1501
vn 0.7039 0.6938 -0.1524
vn -0.7048 0.6990 -0.1209
vn 0.7046 0.6985 -0.1250
vn -0.7041 0.7041 -0.0919
vn 0.7040 0.7035 -0.0978
vn -0.7133 -0.6656 0.2195
vn -0.7038 0.6747 -0.2224
vn -0.7126 -0.6571 0.2458
vn -0.7044 0.6648 -0.2486
vn -0.7133 -0.6462 0.2714
vn -0.7037 0.6551 -0.2751
vn 0.7032 0.5932 -0.3919
vn 0.7132 -0.5848 0.3864
vn 0.7041 0.6081 -0.3668
vn 0.7125 -0.6008 0.3625
vn 0.7034 0.6230 -0.3421
vn 0.7133 -0.6144 0.3374
vn 0.7131 -0.4413 0.5447
vn 0.7024 0.4481 -0.5530
vn 0.7123 -0.4175 0.5642
vn 0.7031 0.4230 -0.5716
vn 0.7131 -0.3916 0.5815
vn 0.7022 0.3977 -0.5906
vn -0.7162 -0.1620 0.6788
vn -0.6986 0.1622 -0.6969
vn -0.7150 -0.1141 0.6898
vn -0.6996 0.1138 -0.7054
vn -0.7164 -0.0646 0.6947
vn -0.6983 0.0647 -0.7129
vn 0.7132 -0.3210 0.6232
vn -0.7124 -0.2926 0.6379
vn 0.7124 -0.2926 0.6379
vn 0.7133 -0.2627 0.6498
vn -0.7116 -0.2355 0.6620
vn 0.7132 -0.5396 0.4474
vn -0.7132 -0.5396 0.4474
vn 0.7124 -0.5209 0.4704
vn -0.7124 -0.5209 0.4704
vn 0.7131 -0.4998 0.4916
vn 0.7134 -0.6941 0.0970
vn -0.7137 -0.6928 0.1033
vn 0.7126 -0.6905 0.1240
vn -0.7129 -0.6894 0.1283
vn 0.7133 -0.6844 0.1506
vn -0.7137 -0.6836 0.1530
vn -0.7036 0.6551 0.2751
vn -0.7133 -0.6462 -0.2714
vn -0.7044 0.6648 0.2486
vn -0.7126 -0.6571 -0.2458
vn -0.7038 0.6747 0.2224
vn -0.7133 -0.6656 -0.2194
vn -0.7030 0.5475 0.4539
vn 0.7030 0.5475 0.4539
vn -0.7036 0.5274 0.4762
vn 0.7036 0.5274 0.4762
vn 0.7027 0.5073 0.4988
vn -0.7027 0.5073 0.4988
vn 0.7022 0.3977 0.5906
vn 0.7131 -0.3916 -0.5815
vn 0.7031 0.4230 0.5716
vn 0.7123 -0.4175 -0.5642
vn 0.7024 0.4481 0.5530
vn 0.7131 -0.4414 -0.5447
vn -0.7030 0.5476 -0.4539
vn 0.7030 0.5475 -0.4539
vn -0.7036 0.5274 -0.4762
vn 0.7036 0.5274 -0.4762
vn -0.7027 0.5073 -0.4988
vn 0.7027 0.5073 -0.4988
vn -0.7131 -0.3916 0.5815
vn -0.7123 -0.4175 0.5642
vn -0.7131 -0.4413 0.5447
vn 0.7133 -0.6656 0.2195
vn 0.7126 -0.6571 0.2458
vn 0.7133 -0.6462 0.2714
vn -0.7132 -0.7001 0.0332
vn -0.7036 0.7103 -0.0210
vn -0.7125 -0.7016 0.0042
vn -0.7044 0.7098 0.0042
vn -0.7037 0.7099 0.0294
vn -0.7131 -0.7006 -0.0246
vn 0.7038 0.6747 -0.2224
vn 0.7044 0.6648 -0.2486
vn 0.7037 0.6551 -0.2751
vn -0.7024 0.4481 -0.5530
vn -0.7031 0.4230 -0.5716
vn -0.7022 0.3977 -0.5906
vn -0.7117 -0.5709 0.4093
vn -0.7032 0.5932 -0.3919
vn -0.7132 -0.5848 0.3864
vn -0.7041 0.6081 -0.3668
vn -0.7125 -0.6008 0.3625
vn -0.7034 0.6230 -0.3421
vn -0.7133 -0.6144 0.3374
vn -0.7016 0.3250 -0.6342
vn 0.7016 0.3250 -0.6342
vn -0.7023 0.2944 -0.6482
vn 0.7023 0.2944 -0.6482
vn -0.7013 0.2637 -0.6623
vn 0.7013 0.2637 -0.6623
vn 0.6986 0.1622 -0.6969
vn 0.6996 0.1138 -0.7054
vn -0.7131 -0.4998 0.4916
vn -0.7133 -0.2627 0.6498
vn -0.7132 -0.3210 0.6232
vn 0.7136 -0.6999 0.0294
vn 0.7045 0.7093 -0.0245
vn 0.7128 -0.7014 0.0042
vn 0.7045 0.7089 0.0329
vn 0.7134 -0.7004 -0.0207
vn 0.7162 -0.1620 0.6788
vn 0.7150 -0.1141 0.6898
vn 0.7164 -0.0646 0.6947
vn 0.6983 0.0647 -0.7129
vn 0.7052 0.7090 0.0042
vn -0.7022 0.3977 0.5906
vn -0.7031 0.4230 0.5716
vn -0.7024 0.4481 0.5530
vn -0.7013 0.2637 0.6623
vn 0.7023 0.2944 0.6482
vn -0.7023 0.2944 0.6482
vn -0.7016 0.3250 0.6342
vn 0.7016 0.3250 0.6342
vn 0.7034 0.6230 0.3421
vn -0.7034 0.6230 0.3421
vn 0.7041 0.6081 0.3668
vn -0.7041 0.6081 0.3668
vn 0.7032 0.5932 0.3919
vn -0.7032 0.5932 0.3919
vn 0.7038 0.7028 0.1036
vn -0.7040 0.7035 0.0978
vn 0.7044 0.6979 0.1291
vn -0.7046 0.6985 0.1250
vn 0.7036 0.6935 0.1547
vn -0.7039 0.6938 0.1524
vn 0.7037 0.6551 0.2751
vn 0.7133 -0.6462 -0.2714
vn 0.7044 0.6648 0.2486
vn 0.7126 -0.6571 -0.2458
vn 0.7038 0.6747 0.2224
vn 0.7133 -0.6656 -0.2194
vn -0.7131 -0.3916 -0.5815
vn -0.7131 -0.4414 -0.5447
vn -0.7131 -0.4998 -0.4916
vn -0.7124 -0.5209 -0.4703
vn -0.7132 -0.5396 -0.4474
vn 0.7162 -0.1620 -0.6788
vn 0.6986 0.1622 0.6969
vn 0.7150 -0.1141 -0.6898
vn 0.6996 0.1138 0.7054
vn 0.7164 -0.0646 -0.6947
vn 0.6983 0.0647 0.7129
vn -0.7164 -0.0646 -0.6947
vn -0.7150 -0.1141 -0.6898
vn -0.7162 -0.1620 -0.6788
vn 0.7132 -0.5848 -0.3864
vn -0.7132 -0.5848 -0.3864
vn 0.7125 -0.6008 -0.3625
vn -0.7125 -0.6008 -0.3625
vn 0.7133 -0.6144 -0.3374
vn -0.6983 0.0647 0.7129
vn -0.6996 0.1138 0.7054
vn -0.6986 0.1622 0.6969
vn 0.7130 -0.6853 -0.1482
vn 0.7123 -0.6916 -0.1197
vn 0.7129 -0.6953 -0.0908
vn 0.7131 -0.4998 -0.4916
vn 0.7124 -0.5209 -0.4704
vn 0.7132 -0.5396 -0.4474
vn -0.7132 -0.3210 -0.6232
vn 0.7132 -0.3210 -0.6232
vn -0.7124 -0.2926 -0.6379
vn 0.7124 -0.2926 -0.6379
vn -0.7133 -0.2628 -0.6498
vn 0.7133 -0.2628 -0.6498
vn -0.7133 -0.6844 -0.1506
vn -0.7126 -0.6905 -0.1240
vn -0.7133 -0.6940 -0.0971
vn -0.7133 -0.6144 -0.3374
vn -0.7123 -0.4175 -0.5642
vn 0.7013 0.2637 0.6623
vn -0.0000 1.0000 -0.0000
vn -0.0000 -0.0000 -1.0000
vn 1.0000 -0.0000 -0.0000
vn -0.0000 -1.0000 -0.0000
vn -1.0000 -0.0000 -0.0000
vn -0.0000 -0.0000 1.0000
vn -0.0000 0.1324 -0.9912
vn -0.0000 -0.3878 0.9217
vn -0.0000 -0.1324 0.9912
vn -0.0000 0.3878 -0.9217
vn -0.0000 0.6160 -0.7877
vn -0.0000 -0.6160 0.7877
vn -0.0000 -0.9301 0.3673
vn -0.0000 0.8011 -0.5985
vn -0.0000 -0.8011 0.5985
vn -0.0000 0.9301 -0.3673
vn -0.0000 0.9880 0.1542
vn -0.0000 0.9939 -0.1104
vn -0.0000 -0.9939 0.1104
vn -0.0000 -0.9129 -0.4081
vn -0.0000 -0.9880 -0.1542
vn -0.0000 0.9129 0.4081
vn -0.0000 -0.5806 -0.8142
vn -0.0000 0.7739 0.6333
vn -0.0000 -0.7739 -0.6333
vn -0.0000 0.5806 0.8142
vn -0.0000 0.3466 0.9380
vn -0.0000 -0.3466 -0.9380
vn 0.0034 -1.0000 0.0006
vn -0.0000 0.1059 0.9944
vn 0.0036 -0.0864 -0.9963
vn -0.7075 0.0003 -0.7067
vn -0.0004 0.1048 0.9945
vn -0.0000 -0.1057 -0.9944
vt 0.644553 0.117214
vt 0.651390 0.152976
vt 0.644553 0.152971
vt 0.799059 0.844733
vt 0.506370 0.809027
vt 0.799059 0.809027
vt 0.720317 0.255225
vt 0.629728 0.533574
vt 0.623279 0.531301
vt 0.477730 0.025727
vt 0.481644 0.061433
vt 0.477730 0.061433
vt 0.714583 0.179933
vt 0.719515 0.175592
vt 0.721052 0.179216
vt 0.187178 0.278701
vt 0.182574 0.243140
vt 0.187178 0.243100
vt 0.911657 0.358352
vt 0.875963 0.065663
vt 0.911657 0.065663
vt 0.701809 0.155958
vt 0.705259 0.150400
vt 0.707828 0.154185
vt 0.237988 0.242995
vt 0.241491 0.278701
vt 0.237988 0.278701
vt 0.824623 0.809027
vt 0.822918 0.844733
vt 0.822918 0.809027
vt 0.663038 0.116122
vt 0.662615 0.109053
vt 0.667397 0.112362
vt 0.503600 0.061433
vt 0.508509 0.025727
vt 0.508509 0.061433
vt 0.680437 0.305822
vt 0.687052 0.307299
vt 0.680460 0.307621
vt 0.455274 0.025727
vt 0.458181 0.061433
vt 0.455274 0.061433
vt 0.640366 0.402799
vt 0.641986 0.409310
vt 0.637625 0.405549
vt 0.657762 0.381266
vt 0.661212 0.386824
vt 0.655894 0.384019
vt 0.618990 0.421102
vt 0.618567 0.428171
vt 0.615388 0.423594
vt 0.870248 0.844733
vt 0.868187 0.809027
vt 0.870248 0.809027
vt 0.210988 0.242995
vt 0.215218 0.278701
vt 0.210988 0.278701
vt 0.638422 0.101714
vt 0.636066 0.094641
vt 0.641594 0.097149
vt 0.670536 0.357291
vt 0.675467 0.361632
vt 0.669447 0.359859
vt 0.531954 0.025727
vt 0.537686 0.061433
vt 0.531954 0.061433
vt 0.875961 0.041809
vt 0.911659 0.038218
vt 0.911658 0.041809
vt 0.239904 0.601962
vt 0.232801 0.599538
vt 0.237986 0.597749
vt 0.724484 0.231402
vt 0.731099 0.229925
vt 0.731024 0.233706
vt 0.722246 0.205471
vt 0.728256 0.202458
vt 0.728926 0.205797
vt 0.678199 0.331753
vt 0.684209 0.334766
vt 0.677738 0.334048
vt 0.684414 0.134425
vt 0.686034 0.127914
vt 0.689730 0.131621
vt 0.848651 0.844733
vt 0.846639 0.809027
vt 0.848651 0.809027
vt 0.875958 0.016192
vt 0.911662 0.013267
vt 0.911661 0.016192
vt 0.594375 0.435509
vt 0.592018 0.442583
vt 0.590174 0.437420
vt 0.676271 0.281999
vt 0.585683 0.003650
vt 0.682720 0.279726
vt 0.561787 0.061433
vt 0.567866 0.025877
vt 0.567866 0.061433
vt 0.619368 0.357522
vt 0.625422 0.392828
vt 0.619368 0.392828
vt 0.443851 0.733763
vt 0.445329 0.740378
vt 0.441547 0.740302
vt 0.369575 0.688017
vt 0.368097 0.694632
vt 0.367776 0.688040
vt 0.835039 0.260148
vt 0.870245 0.552836
vt 0.835039 0.552836
vt 0.544507 0.357622
vt 0.541085 0.392828
vt 0.541085 0.357622
vt 0.396985 0.427126
vt 0.392774 0.391920
vt 0.396985 0.391920
vt 0.423259 0.427126
vt 0.419756 0.391920
vt 0.423259 0.391920
vt 0.540827 0.693685
vt 0.547338 0.695305
vt 0.543631 0.699001
vt 0.794125 0.337250
vt 0.829322 0.333657
vt 0.829322 0.337250
vt 0.469782 0.731522
vt 0.472796 0.737532
vt 0.469456 0.738202
vt 0.318106 0.678111
vt 0.313764 0.683043
vt 0.315538 0.677022
vt 0.559128 0.672306
vt 0.566186 0.671898
vt 0.562888 0.676666
vt 0.254299 0.626561
vt 0.247240 0.626152
vt 0.251818 0.622975
vt 0.835039 0.600431
vt 0.870245 0.602445
vt 0.835039 0.602445
vt 0.393399 0.683852
vt 0.671753 0.593278
vt 0.395672 0.690301
vt 0.446841 0.427126
vt 0.444163 0.391920
vt 0.446841 0.391920
vt 0.368964 0.391815
vt 0.364347 0.427126
vt 0.364347 0.391775
vt 0.794120 0.289165
vt 0.829326 0.286257
vt 0.829326 0.289165
vt 0.343644 0.685776
vt 0.340631 0.691786
vt 0.341349 0.685316
vt 0.590597 0.357622
vt 0.596036 0.392828
vt 0.590597 0.392828
vt 0.294131 0.665336
vt 0.288573 0.668786
vt 0.291379 0.663468
vt 0.794121 0.308693
vt 0.829325 0.311621
vt 0.794122 0.311621
vt 0.495320 0.723857
vt 0.499662 0.728788
vt 0.496038 0.730326
vt 0.568687 0.357622
vt 0.564190 0.392828
vt 0.564190 0.357622
vt 0.519295 0.711082
vt 0.524853 0.714531
vt 0.521068 0.717100
vt 0.835039 0.621996
vt 0.870245 0.624059
vt 0.835039 0.624059
vt 0.870245 0.576700
vt 0.835039 0.578405
vt 0.835039 0.576700
vt 0.794126 0.361108
vt 0.829320 0.653797
vt 0.794126 0.653797
vt 0.573523 0.647708
vt 0.580626 0.645283
vt 0.578088 0.650876
vt 0.272600 0.647939
vt 0.266089 0.649559
vt 0.269850 0.645198
vt 0.420028 0.729598
vt 0.141674 0.639023
vt 0.143947 0.632574
vt 0.543142 0.025735
vt 0.543142 0.061433
vt 0.549593 0.025756
vt 0.549593 0.061433
vt 0.556215 0.025789
vt 0.556215 0.061433
vt 0.561787 0.025827
vt 0.667550 0.119447
vt 0.671911 0.115687
vt 0.673131 0.123107
vt 0.677002 0.119769
vt 0.677635 0.127865
vt 0.681996 0.124104
vt 0.681672 0.131675
vt 0.657942 0.391329
vt 0.652625 0.388524
vt 0.653810 0.396543
vt 0.649086 0.394051
vt 0.649538 0.401492
vt 0.644221 0.398688
vt 0.645682 0.405603
vt 0.677005 0.358009
vt 0.672562 0.352038
vt 0.679031 0.352756
vt 0.675356 0.345927
vt 0.681104 0.346564
vt 0.676460 0.339459
vt 0.682930 0.340177
vt 0.724119 0.237022
vt 0.730624 0.239314
vt 0.724327 0.243819
vt 0.729706 0.245715
vt 0.721864 0.249915
vt 0.728320 0.252191
vt 0.846639 0.844733
vt 0.841826 0.809027
vt 0.836086 0.844733
vt 0.836086 0.809027
vt 0.829875 0.809027
vt 0.824623 0.844733
vt 0.265072 0.242995
vt 0.269614 0.278701
vt 0.265072 0.278701
vt 0.269614 0.242995
vt 0.275036 0.278701
vt 0.879210 0.844733
vt 0.874361 0.809027
vt 0.879210 0.809027
vt 0.192727 0.278701
vt 0.192727 0.243060
vt 0.199322 0.278701
vt 0.199322 0.243026
vt 0.205642 0.278701
vt 0.205642 0.243003
vt 0.262278 0.645521
vt 0.266040 0.641160
vt 0.257944 0.640526
vt 0.261282 0.636656
vt 0.253863 0.635434
vt 0.257623 0.631074
vt 0.250539 0.630921
vt 0.536864 0.392828
vt 0.536864 0.357622
vt 0.531826 0.392828
vt 0.531826 0.357622
vt 0.829326 0.277299
vt 0.794120 0.282147
vt 0.794120 0.277299
vt 0.829326 0.282146
vt 0.794120 0.286257
vt 0.472077 0.731061
vt 0.478206 0.736252
vt 0.477488 0.729782
vt 0.484594 0.734426
vt 0.483956 0.728678
vt 0.490785 0.732353
vt 0.490067 0.725883
vt 0.643419 0.104167
vt 0.646593 0.099598
vt 0.649504 0.106756
vt 0.652319 0.102703
vt 0.654791 0.110615
vt 0.657970 0.106040
vt 0.659436 0.113629
vt 0.472903 0.025727
vt 0.472903 0.061433
vt 0.467140 0.025727
vt 0.467140 0.061433
vt 0.462293 0.025727
vt 0.462293 0.061433
vt 0.458181 0.025727
vt 0.853428 0.809027
vt 0.853428 0.844733
vt 0.859066 0.844733
vt 0.864029 0.809027
vt 0.864029 0.844733
vt 0.868187 0.844733
vt 0.215218 0.242995
vt 0.220630 0.278701
vt 0.220630 0.242995
vt 0.227073 0.278701
vt 0.227073 0.242995
vt 0.232982 0.278701
vt 0.232982 0.242995
vt 0.629116 0.097658
vt 0.630959 0.092499
vt 0.623211 0.094794
vt 0.624843 0.090225
vt 0.232972 0.586735
vt 0.230659 0.594429
vt 0.228385 0.588317
vt 0.235839 0.592642
vt 0.526430 0.025727
vt 0.526430 0.061433
vt 0.519854 0.025727
vt 0.519854 0.061433
vt 0.513712 0.025727
vt 0.513712 0.061433
vt 0.451118 0.025727
vt 0.451118 0.061433
vt 0.446157 0.025727
vt 0.875957 0.002861
vt 0.911662 0.008494
vt 0.875957 0.008494
vt 0.875958 0.013267
vt 0.699942 0.153205
vt 0.701990 0.145895
vt 0.696673 0.148700
vt 0.697857 0.140681
vt 0.693134 0.143173
vt 0.693585 0.135732
vt 0.688269 0.138536
vt 0.597546 0.440075
vt 0.599371 0.433057
vt 0.602545 0.437626
vt 0.605456 0.430468
vt 0.608272 0.434521
vt 0.610744 0.426609
vt 0.613922 0.431184
vt 0.673126 0.366685
vt 0.667105 0.364912
vt 0.670061 0.372602
vt 0.664711 0.371026
vt 0.666801 0.378271
vt 0.660781 0.376497
vt 0.663780 0.383039
vt 0.481644 0.025727
vt 0.486405 0.061433
vt 0.486405 0.025727
vt 0.492018 0.061433
vt 0.492018 0.025727
vt 0.498318 0.061433
vt 0.498318 0.025727
vt 0.875959 0.020998
vt 0.911661 0.020998
vt 0.875960 0.026735
vt 0.911660 0.026735
vt 0.875960 0.032958
vt 0.911659 0.032958
vt 0.875961 0.038218
vt 0.875962 0.047140
vt 0.911658 0.047140
vt 0.875963 0.053571
vt 0.911657 0.053571
vt 0.875963 0.060140
vt 0.713494 0.177365
vt 0.717173 0.170539
vt 0.711153 0.172312
vt 0.714108 0.164622
vt 0.708758 0.166198
vt 0.710848 0.158953
vt 0.704829 0.160727
vt 0.716609 0.185186
vt 0.723078 0.184469
vt 0.719403 0.191298
vt 0.725151 0.190660
vt 0.720507 0.197765
vt 0.726977 0.197048
vt 0.721786 0.203176
vt 0.724507 0.229603
vt 0.731008 0.224381
vt 0.724382 0.224058
vt 0.730566 0.217795
vt 0.724660 0.217507
vt 0.729832 0.211324
vt 0.723158 0.210998
vt 0.585068 0.439565
vt 0.586911 0.444724
vt 0.579163 0.442430
vt 0.580455 0.632480
vt 0.582768 0.640175
vt 0.577588 0.638388
vt 0.575441 0.643495
vt 0.686961 0.312843
vt 0.680335 0.313166
vt 0.686519 0.319429
vt 0.680613 0.319717
vt 0.685785 0.325901
vt 0.679111 0.326226
vt 0.684879 0.331427
vt 0.358823 0.427134
vt 0.358823 0.391735
vt 0.352274 0.427126
vt 0.352274 0.391701
vt 0.170507 0.243245
vt 0.177051 0.278693
vt 0.170507 0.278670
vt 0.177051 0.243180
vt 0.182574 0.278701
vt 0.686976 0.303518
vt 0.680072 0.300202
vt 0.686576 0.297910
vt 0.680280 0.293405
vt 0.685659 0.291509
vt 0.677817 0.287309
vt 0.684273 0.285034
vt 0.623350 0.424862
vt 0.623502 0.417777
vt 0.627863 0.421537
vt 0.629083 0.414117
vt 0.632954 0.417455
vt 0.633588 0.409359
vt 0.637949 0.413120
vt 0.817589 0.809027
vt 0.811152 0.844733
vt 0.811152 0.809027
vt 0.804582 0.809027
vt 0.804582 0.844733
vt 0.241491 0.242995
vt 0.246572 0.278701
vt 0.252633 0.242995
vt 0.252633 0.278701
vt 0.257915 0.278701
vt 0.262394 0.242995
vt 0.262394 0.278701
vt 0.573410 0.025915
vt 0.573410 0.061425
vt 0.579978 0.025977
vt 0.579978 0.061404
vt 0.637349 0.392828
vt 0.630880 0.357434
vt 0.637349 0.357401
vt 0.630880 0.392836
vt 0.625422 0.357472
vt 0.829326 0.303918
vt 0.829325 0.308693
vt 0.794121 0.303918
vt 0.829326 0.298281
vt 0.794120 0.298281
vt 0.829326 0.293320
vt 0.794120 0.293320
vt 0.794124 0.333657
vt 0.829323 0.328395
vt 0.794123 0.322170
vt 0.829323 0.322170
vt 0.829324 0.316430
vt 0.794122 0.316430
vt 0.559350 0.357622
vt 0.559350 0.392828
vt 0.553577 0.357622
vt 0.553577 0.392828
vt 0.548669 0.357622
vt 0.548669 0.392828
vt 0.613884 0.357561
vt 0.613884 0.392828
vt 0.607367 0.357622
vt 0.607367 0.392828
vt 0.601228 0.357615
vt 0.601228 0.392828
vt 0.596036 0.357622
vt 0.543576 0.690943
vt 0.551148 0.691267
vt 0.547387 0.686906
vt 0.555483 0.686272
vt 0.552145 0.682401
vt 0.559564 0.681180
vt 0.555803 0.676820
vt 0.870245 0.607225
vt 0.835039 0.607225
vt 0.835039 0.612866
vt 0.870245 0.617834
vt 0.835039 0.617834
vt 0.870245 0.621996
vt 0.308712 0.680701
vt 0.310485 0.674680
vt 0.302795 0.677635
vt 0.304371 0.672285
vt 0.297127 0.674375
vt 0.298900 0.668356
vt 0.292358 0.671354
vt 0.438231 0.733398
vt 0.435939 0.739903
vt 0.431434 0.733606
vt 0.429538 0.738985
vt 0.425338 0.731144
vt 0.423063 0.737600
vt 0.835039 0.558359
vt 0.870245 0.558359
vt 0.835039 0.564929
vt 0.870245 0.564929
vt 0.835039 0.571369
vt 0.870245 0.571369
vt 0.444163 0.427126
vt 0.439684 0.391920
vt 0.439684 0.427126
vt 0.434402 0.391920
vt 0.434402 0.427126
vt 0.428341 0.391920
vt 0.390364 0.691854
vt 0.388088 0.685398
vt 0.383888 0.693240
vt 0.381992 0.687861
vt 0.377488 0.694157
vt 0.375195 0.687652
vt 0.371879 0.694556
vt 0.585341 0.357622
vt 0.585341 0.392828
vt 0.579082 0.357622
vt 0.579082 0.392828
vt 0.573455 0.357622
vt 0.573455 0.392828
vt 0.829321 0.342583
vt 0.794125 0.342583
vt 0.794126 0.349015
vt 0.829320 0.349015
vt 0.794126 0.355585
vt 0.829320 0.355585
vt 0.561608 0.668721
vt 0.569198 0.667252
vt 0.564621 0.664076
vt 0.572535 0.661602
vt 0.568479 0.658787
vt 0.575640 0.655875
vt 0.571070 0.652704
vt 0.497888 0.722768
vt 0.504715 0.726446
vt 0.502941 0.720426
vt 0.510631 0.723381
vt 0.509055 0.718031
vt 0.516300 0.720121
vt 0.514526 0.714101
vt 0.402397 0.391920
vt 0.402397 0.427126
vt 0.408841 0.391920
vt 0.408841 0.427126
vt 0.414750 0.427126
vt 0.414750 0.391920
vt 0.419756 0.427126
vt 0.870245 0.595616
vt 0.870245 0.600431
vt 0.835039 0.595616
vt 0.870245 0.589872
vt 0.835039 0.589872
vt 0.870245 0.583659
vt 0.835039 0.583659
vt 0.870245 0.578405
vt 0.835039 0.628175
vt 0.870245 0.628175
vt 0.835039 0.633030
vt 0.456806 0.427126
vt 0.451384 0.391920
vt 0.456806 0.391920
vt 0.451384 0.427126
vt 0.387428 0.427126
vt 0.387428 0.391912
vt 0.381107 0.427126
vt 0.381107 0.391920
vt 0.374513 0.427126
vt 0.374513 0.391855
vt 0.368964 0.427126
vt 0.269795 0.653255
vt 0.276711 0.651795
vt 0.273906 0.657111
vt 0.281347 0.656660
vt 0.278855 0.661383
vt 0.286874 0.660199
vt 0.284069 0.665516
vt 0.244228 0.621507
vt 0.248805 0.618330
vt 0.240892 0.615856
vt 0.244947 0.613041
vt 0.237787 0.610130
vt 0.242357 0.606958
vt 0.235339 0.605130
vt 0.335220 0.690507
vt 0.335938 0.684036
vt 0.328832 0.688680
vt 0.329470 0.682932
vt 0.322641 0.686607
vt 0.323359 0.680138
vt 0.317388 0.684580
vt 0.362554 0.694540
vt 0.362231 0.687914
vt 0.355967 0.694097
vt 0.355680 0.688192
vt 0.349496 0.693363
vt 0.349171 0.686689
vt 0.343970 0.692457
vt 0.536716 0.697540
vt 0.539520 0.702856
vt 0.532079 0.702406
vt 0.534572 0.707129
vt 0.526552 0.705945
vt 0.529358 0.711262
vt 0.522047 0.709214
vt 0.445650 0.733785
vt 0.450873 0.740286
vt 0.451195 0.733660
vt 0.457459 0.739843
vt 0.457747 0.733937
vt 0.463930 0.739109
vt 0.464256 0.732435
vt 0.875000 0.500000
vt 0.625000 0.750000
vt 0.625000 0.500000
vt 0.375000 1.000000
vt 0.375000 0.750000
vt 1.294099 -0.189870
vt -0.312359 1.159825
vt -0.312359 -0.189870
vt 0.375000 0.500000
vt 0.125000 0.750000
vt 0.125000 0.500000
vt 1.542720 -0.538116
vt -0.547816 1.557564
vt -0.555474 -0.491154
vt 0.625000 0.250000
vt 0.375000 0.250000
vt 0.701087 1.826923
vt 0.701087 2.076923
vt 0.451087 2.076923
vt 0.451087 1.826923
vt 1.227548 -0.328707
vt -0.238561 1.417773
vt -0.244115 -0.317890
vt 0.451087 1.576923
vt 0.201087 1.826923
vt 0.201087 1.576923
vt -0.588029 1.323465
vt 1.557212 -0.346773
vt -0.590436 -0.327250
vt 0.998664 2.068688
vt 0.102785 2.068688
vt 0.701087 1.326923
vt 0.701087 1.576923
vt 0.987794 0.953303
vt 0.016304 0.032967
vt 0.027174 0.980769
vt 0.993242 0.012406
vt -0.001913 0.996206
vt 0.988678 0.989283
vt 0.976449 0.030220
vt 0.030797 0.956044
vt 0.972826 0.958791
vt 0.993243 -0.029130
vt 0.016347 0.996206
vt 0.988678 0.996206
vt 0.983696 0.969780
vt 0.019927 0.032967
vt 0.016304 0.980769
vt 0.987319 0.942308
vt 0.009058 0.021978
vt 0.019927 0.986264
vt 0.979548 0.026251
vt 0.025477 0.989283
vt 0.979548 0.975438
vt 0.997807 0.012406
vt 0.020912 1.003129
vt 0.997807 0.975438
vt 0.023551 0.969780
vt 0.969203 0.027472
vt 0.983696 0.980769
vt 0.988678 0.012406
vt 0.011782 0.982361
vt 0.988677 0.996206
vt 0.019927 0.942308
vt 0.976449 0.027472
vt 0.980072 0.964286
vt 0.988677 0.026251
vt 0.016347 0.975438
vt 0.979548 0.982361
vt 0.988678 0.982361
vt 0.007217 0.005483
vt 0.025477 0.989283
vt 0.988677 0.973083
vt 0.011782 0.039312
vt 0.970418 0.011621
vt 0.701087 1.076923
vt 0.984113 0.975438
vt 0.011782 0.033174
vt 0.970418 0.996206
vt 0.016347 0.005483
vt 0.007217 0.975438
vt 0.992280 0.008104
vt 0.003854 1.007598
vt 0.987237 0.974655
vt 0.993242 -0.005125
vt 0.011782 1.020660
vt 1.011502 1.005581
vt 0.635870 1.236264
vt 0.385870 1.486264
vt 0.385870 1.236264
vt 0.989286 1.000744
vt 0.002042 -0.005152
vt 0.019866 0.997261
vt 0.000000 0.000000
vt 0.651390 0.117209
vt 0.506370 0.844733
vt 0.726767 0.257498
vt 0.875963 0.358352
vt 0.503600 0.025727
vt 0.634221 0.099803
vt 0.537686 0.025727
vt 0.579234 0.005923
vt 0.870245 0.260148
vt 0.544507 0.392828
vt 0.392774 0.427126
vt 0.669480 0.586829
vt 0.568687 0.392828
vt 0.829320 0.361108
vt 0.417755 0.736047
vt 0.841826 0.844733
vt 0.829875 0.844733
vt 0.275036 0.242995
vt 0.874361 0.844733
vt 0.859066 0.809027
vt 0.446157 0.061433
vt 0.911663 0.002861
vt 0.911657 0.060140
vt 0.580796 0.446999
vt 0.585042 0.634062
vt 0.817589 0.844733
vt 0.246572 0.242995
vt 0.257915 0.242995
vt 0.794124 0.328395
vt 0.870245 0.612866
vt 0.428341 0.427126
vt 0.870245 0.633030
vt 0.875000 0.750000
vt 0.625000 1.000000
vt 1.294099 1.159825
vt 1.542720 1.557565
vt 1.251361 1.397293
vt 1.589350 1.333037
vt 0.984171 0.038455
vt 0.002653 0.005483
vt 0.038043 0.038462
vt 0.011782 0.019329
vt 0.983695 0.021978
vt 0.972826 0.038462
vt 0.007217 0.012406
vt 0.020912 0.019329
vt 0.009058 0.005495
vt -0.006477 0.019329
vt 0.030797 0.027473
vt 0.988677 0.033174
vt 0.011782 0.986929
vt 0.970418 0.026251
vt 0.974983 -0.022207
vt 0.022352 0.020112
vt 0.002652 -0.003891
vt 0.635870 1.486264
vt 1.005050 0.005849
s 1
g off
g Jamb_Door
usemtl Door
f 1/1/1 2/2/2 4/3/3
f 119/4/4 3/5/5 95/6/6
f 119/7/4 4/8/3 2/9/2
f 150/10/7 54/11/8 24/12/9
f 129/13/10 149/14/11 40/15/12
f 60/16/13 134/17/14 74/18/15
f 1/19/1 45/20/16 115/21/17
f 29/22/18 80/23/19 150/24/7
f 34/25/20 99/26/21 144/27/22
f 64/28/23 120/29/24 94/30/25
f 35/31/26 84/32/27 104/33/28
f 55/34/29 105/35/30 140/36/31
f 94/37/25 90/38/32 64/39/23
f 40/40/12 25/41/33 50/42/34
f 99/43/21 140/44/31 144/45/22
f 70/46/35 54/47/8 100/48/36
f 145/49/37 110/50/38 59/51/39
f 30/52/40 19/53/41 69/54/42
f 75/55/43 145/56/37 59/57/39
f 74/58/15 155/59/44 85/60/45
f 19/61/41 25/62/33 69/63/42
f 104/64/28 110/65/38 139/66/46
f 44/67/47 90/68/32 114/69/48
f 275/70/49 154/71/50 135/72/51
f 120/73/24 124/74/52 44/75/47
f 14/76/53 39/77/54 125/78/55
f 65/79/56 49/80/57 20/81/58
f 10/82/59 105/83/30 79/84/60
f 130/85/61 65/86/56 20/87/58
f 125/88/55 49/89/57 89/90/62
f 60/91/13 184/92/63 230/93/64
f 95/94/6 1/95/1 115/96/17
f 109/97/65 155/98/44 184/99/63
f 220/100/66 154/101/50 299/102/67
f 225/103/68 249/104/69 304/105/70
f 255/106/71 195/107/72 269/108/73
f 5/109/74 254/110/75 224/111/76
f 199/112/77 174/113/78 280/114/79
f 259/115/80 214/116/81 165/117/82
f 170/118/83 164/119/84 239/120/85
f 239/121/85 160/122/86 200/123/87
f 304/124/70 195/125/72 245/126/88
f 179/127/89 205/128/90 250/129/91
f 285/130/92 175/131/93 265/132/94
f 165/133/82 219/134/95 159/135/96
f 259/136/80 300/137/97 274/138/98
f 179/139/89 284/140/99 209/141/100
f 254/142/75 7/143/101 244/144/102
f 264/145/103 240/146/104 235/147/105
f 215/148/106 135/149/51 229/150/107
f 204/151/108 175/152/93 189/153/109
f 270/154/110 190/155/111 284/156/99
f 159/157/96 300/158/97 295/159/112
f 264/160/103 290/161/113 169/162/114
f 205/163/90 194/164/115 250/165/91
f 210/166/116 279/167/117 204/168/108
f 160/169/86 289/170/118 200/171/87
f 235/172/105 199/173/77 280/174/79
f 210/175/116 265/176/94 234/177/119
f 255/178/71 180/179/120 225/180/68
f 305/181/121 7/182/101 8/183/122
f 215/184/106 185/185/123 220/186/66
f 170/187/83 294/188/124 260/189/125
f 224/190/76 8/191/122 5/192/74
f 110/65/38 86/193/126 113/194/127
f 113/194/127 87/195/128 112/196/129
f 112/196/129 88/197/130 111/198/131
f 111/198/131 85/199/45 109/97/65
f 104/33/28 38/200/132 35/31/26
f 106/201/133 37/202/134 38/200/132
f 107/203/135 36/204/136 37/202/134
f 108/205/137 34/206/20 36/204/136
f 100/48/36 56/207/138 103/208/139
f 103/208/139 57/209/140 102/210/141
f 102/210/141 58/211/142 101/212/143
f 101/212/143 55/213/29 99/43/21
f 50/214/34 21/215/144 53/216/145
f 53/216/145 22/217/146 52/218/147
f 52/218/147 23/219/148 51/220/149
f 51/220/149 20/81/58 49/80/57
f 44/75/47 123/221/150 120/73/24
f 46/222/151 122/223/152 123/221/150
f 47/224/153 121/225/154 122/223/152
f 48/226/155 119/7/4 121/225/154
f 14/227/53 68/228/156 65/86/56
f 68/228/156 17/229/157 67/230/158
f 17/229/157 66/231/159 67/230/158
f 66/231/159 15/232/160 64/28/23
f 29/233/18 73/234/161 70/235/35
f 31/236/162 72/237/163 73/234/161
f 32/238/164 71/239/165 72/240/163
f 71/239/165 30/52/40 69/54/42
f 74/18/15 63/241/166 60/16/13
f 76/242/167 62/243/168 63/241/166
f 77/244/169 61/245/170 62/243/168
f 78/246/171 59/57/39 61/245/170
f 260/189/125 296/247/172 263/248/173
f 263/248/173 297/249/174 262/250/175
f 262/250/175 298/251/176 261/252/177
f 261/252/177 295/253/112 259/136/80
f 280/114/79 176/254/178 283/255/179
f 283/255/179 177/256/180 282/257/181
f 177/258/180 281/259/182 282/260/181
f 178/261/183 279/262/117 281/259/182
f 209/263/100 208/264/184 205/128/90
f 211/265/185 207/266/186 208/264/184
f 212/267/187 206/268/188 207/266/186
f 213/269/189 204/168/108 206/268/188
f 85/60/45 76/270/167 74/58/15
f 88/271/130 77/272/169 76/270/167
f 87/273/128 78/274/171 77/272/169
f 86/275/126 75/276/43 78/274/171
f 24/12/9 153/277/190 150/10/7
f 26/278/191 152/279/192 153/277/190
f 27/280/193 151/281/194 152/279/192
f 28/282/195 149/283/11 151/281/194
f 130/85/61 23/284/148 133/285/196
f 23/284/148 132/286/197 133/285/196
f 132/286/197 21/287/144 131/288/198
f 131/288/198 19/53/41 129/289/10
f 35/290/26 148/291/199 145/56/37
f 38/292/132 147/293/200 148/291/199
f 37/294/134 146/295/201 147/293/200
f 36/296/136 144/27/22 146/295/201
f 155/59/44 136/297/202 158/298/203
f 158/298/203 137/299/204 157/300/205
f 137/301/204 156/302/206 157/303/205
f 138/304/207 154/71/50 156/302/206
f 139/66/46 106/305/133 104/64/28
f 141/306/208 107/307/135 106/305/133
f 142/308/209 108/309/137 107/307/135
f 143/310/210 105/35/30 108/309/137
f 50/42/34 43/311/211 40/40/12
f 53/312/145 42/313/212 43/311/211
f 42/314/212 51/315/149 41/316/213
f 51/315/149 39/317/54 41/316/213
f 9/318/214 83/319/215 80/23/19
f 11/320/216 82/321/217 83/319/215
f 12/322/218 81/323/219 82/321/217
f 13/324/220 79/84/60 81/323/219
f 109/325/65 63/326/166 111/327/131
f 111/327/131 62/328/168 112/329/129
f 112/329/129 61/330/170 113/331/127
f 113/331/127 59/51/39 110/50/38
f 69/63/42 28/332/195 71/333/165
f 71/333/165 27/334/193 72/335/163
f 72/335/163 26/336/191 73/337/161
f 73/337/161 24/338/9 70/46/35
f 80/339/19 56/340/138 54/11/8
f 83/341/215 57/342/140 56/340/138
f 82/343/217 58/344/142 57/342/140
f 81/345/219 55/34/29 58/344/142
f 89/90/62 128/346/221 125/88/55
f 91/347/222 127/348/223 128/346/221
f 92/349/224 126/350/225 127/348/223
f 93/351/226 124/352/52 126/350/225
f 114/69/48 46/353/151 44/67/47
f 116/354/227 47/355/153 46/353/151
f 117/356/228 48/357/155 47/355/153
f 48/357/155 115/21/17 45/20/16
f 30/358/40 151/359/194 149/14/11
f 33/360/229 152/361/192 151/359/194
f 32/362/164 153/363/190 152/361/192
f 31/364/162 150/24/7 153/363/190
f 40/15/12 131/365/198 129/13/10
f 43/366/211 132/367/197 131/365/198
f 42/368/212 133/369/196 132/367/197
f 41/370/213 130/371/61 133/369/196
f 15/372/160 126/373/225 124/74/52
f 18/374/230 127/375/223 126/373/225
f 17/376/157 128/377/221 127/375/223
f 16/378/231 125/78/55 128/377/221
f 184/92/63 233/379/232 230/93/64
f 186/380/233 232/381/234 233/379/232
f 232/382/234 188/383/235 231/384/236
f 231/384/236 185/185/123 229/385/107
f 64/39/23 93/386/226 66/387/159
f 66/387/159 92/388/224 67/389/158
f 67/389/158 91/390/222 68/391/156
f 68/391/156 89/392/62 65/79/56
f 229/150/107 138/393/207 231/394/236
f 231/394/236 137/395/204 232/396/234
f 137/397/204 233/398/232 232/399/234
f 136/400/202 230/401/64 233/398/232
f 114/402/48 96/403/237 116/404/227
f 116/404/227 97/405/238 117/406/228
f 117/406/228 98/407/239 118/408/240
f 118/408/240 95/94/6 115/96/17
f 139/409/46 148/410/199 141/411/208
f 141/411/208 147/412/200 142/413/209
f 142/413/209 146/414/201 143/415/210
f 143/415/210 144/45/22 140/44/31
f 120/29/24 96/416/237 94/30/25
f 96/416/237 122/417/152 97/418/238
f 122/417/152 98/419/239 97/418/238
f 121/420/154 95/6/6 98/419/239
f 10/421/59 101/422/143 99/26/21
f 101/422/143 12/423/218 102/424/141
f 12/423/218 103/425/139 102/424/141
f 103/425/139 9/426/214 100/427/36
f 184/99/63 158/428/203 186/429/233
f 186/429/233 157/430/205 187/431/241
f 157/432/205 188/433/235 187/434/241
f 156/435/206 185/436/123 188/433/235
f 205/163/90 193/437/242 190/438/111
f 208/439/184 192/440/243 193/437/242
f 207/441/186 191/442/244 192/440/243
f 206/443/188 189/153/109 191/442/244
f 249/444/69 198/445/245 195/125/72
f 198/445/245 252/446/246 197/447/247
f 252/446/246 196/448/248 197/447/247
f 253/449/249 194/164/115 196/448/248
f 289/170/118 203/450/250 200/171/87
f 291/451/251 202/452/252 203/450/250
f 292/453/253 201/454/254 202/452/252
f 293/455/255 199/112/77 201/454/254
f 299/102/67 223/456/256 220/100/66
f 301/457/257 222/458/258 223/456/256
f 302/459/259 221/460/260 222/458/258
f 303/461/261 219/462/95 221/460/260
f 164/463/84 163/464/262 160/122/86
f 166/465/263 162/466/264 163/464/262
f 167/467/265 161/468/266 162/466/264
f 168/469/267 159/135/96 161/468/266
f 209/141/100 286/470/268 211/471/185
f 286/470/268 212/472/187 211/471/185
f 212/472/187 288/473/269 213/474/189
f 213/474/189 285/475/92 210/175/116
f 265/132/94 178/476/183 268/477/270
f 268/477/270 177/478/180 267/479/271
f 267/479/271 176/480/178 266/481/272
f 266/481/272 174/482/78 264/160/103
f 304/105/70 228/483/273 225/103/68
f 306/484/274 227/485/275 228/483/273
f 307/486/276 226/487/277 227/485/275
f 308/488/278 224/190/76 226/487/277
f 254/110/75 226/489/277 224/111/76
f 256/490/279 227/491/275 226/489/277
f 257/492/280 228/493/273 227/491/275
f 258/494/281 225/180/68 228/493/273
f 169/495/114 243/496/282 240/146/104
f 171/497/283 242/498/284 243/496/282
f 172/499/285 241/500/286 242/498/284
f 241/500/286 170/118/83 239/120/85
f 254/142/75 246/501/287 256/502/279
f 256/502/279 247/503/288 257/504/280
f 257/504/280 248/505/289 258/506/281
f 258/506/281 245/507/88 255/106/71
f 295/159/112 161/508/266 159/157/96
f 298/509/176 162/510/264 161/508/266
f 297/511/174 163/512/262 162/510/264
f 296/513/172 160/169/86 163/512/262
f 304/124/70 248/514/289 306/515/274
f 248/514/289 307/516/276 306/515/274
f 247/517/288 308/518/278 307/516/276
f 246/519/287 305/181/121 308/518/278
f 214/520/81 221/521/260 219/134/95
f 216/522/290 222/523/258 221/521/260
f 217/524/291 223/525/256 222/523/258
f 218/526/292 220/186/66 223/525/256
f 234/527/119 281/528/182 279/167/117
f 236/529/293 282/530/181 281/528/182
f 237/531/294 283/532/179 282/530/181
f 238/533/295 280/174/79 283/532/179
f 259/115/80 168/534/267 261/535/177
f 261/535/177 167/536/265 262/537/175
f 167/536/265 263/538/173 262/537/175
f 166/539/263 260/540/125 263/538/173
f 179/139/89 273/541/296 270/542/110
f 181/543/297 272/544/298 273/541/296
f 182/545/299 271/546/300 272/544/298
f 183/547/301 269/548/73 271/546/300
f 265/176/94 236/549/293 234/177/119
f 268/550/270 237/551/294 236/549/293
f 267/552/271 238/553/295 237/554/294
f 266/555/272 235/147/105 238/553/295
f 214/116/81 276/556/302 216/557/290
f 216/557/290 277/558/303 217/559/291
f 217/559/291 278/560/304 218/561/292
f 218/561/292 275/562/49 215/148/106
f 289/563/118 173/564/305 291/565/251
f 291/565/251 172/566/285 292/567/253
f 292/567/253 171/568/283 293/569/255
f 293/569/255 169/162/114 290/161/113
f 274/138/98 303/570/261 276/571/302
f 276/571/302 302/572/259 277/573/303
f 277/573/303 301/574/257 278/575/304
f 278/575/304 299/576/67 275/70/49
f 284/156/99 193/577/242 286/578/268
f 286/578/268 192/579/243 287/580/306
f 287/580/306 191/581/244 288/582/269
f 288/582/269 189/583/109 285/130/92
f 269/108/73 198/584/245 271/585/300
f 271/585/300 197/586/247 272/587/298
f 272/587/298 196/588/248 273/589/296
f 273/589/296 194/590/115 270/154/110
f 200/123/87 241/591/286 239/121/85
f 203/592/250 242/593/284 241/591/286
f 202/594/252 243/595/282 242/593/284
f 201/596/254 240/597/104 243/595/282
f 180/598/120 251/599/307 249/104/69
f 183/600/301 252/601/246 251/599/307
f 182/602/299 253/603/249 252/601/246
f 181/604/297 250/129/91 253/603/249
f 100/427/36 29/233/18 70/235/35
f 1/1/1 3/699/5 2/2/2
f 119/4/4 2/700/2 3/5/5
f 119/7/4 45/701/16 4/8/3
f 150/10/7 80/339/19 54/11/8
f 129/13/10 30/358/40 149/14/11
f 60/16/13 230/401/64 134/17/14
f 1/19/1 4/702/3 45/20/16
f 29/22/18 9/318/214 80/23/19
f 34/25/20 10/421/59 99/26/21
f 64/28/23 15/232/160 120/29/24
f 35/31/26 75/276/43 84/32/27
f 55/34/29 79/703/60 105/35/30
f 94/37/25 114/402/48 90/38/32
f 40/40/12 149/283/11 25/41/33
f 99/43/21 55/213/29 140/44/31
f 70/46/35 24/338/9 54/47/8
f 145/49/37 139/409/46 110/50/38
f 30/52/40 129/289/10 19/53/41
f 75/55/43 35/290/26 145/56/37
f 74/58/15 134/704/14 155/59/44
f 19/61/41 50/214/34 25/62/33
f 104/64/28 84/705/27 110/65/38
f 44/67/47 124/352/52 90/68/32
f 275/70/49 299/576/67 154/71/50
f 120/73/24 15/372/160 124/74/52
f 14/76/53 130/371/61 39/77/54
f 65/79/56 89/392/62 49/80/57
f 10/82/59 34/206/20 105/83/30
f 130/85/61 14/227/53 65/86/56
f 125/88/55 39/317/54 49/89/57
f 60/91/13 109/325/65 184/92/63
f 95/94/6 3/706/5 1/95/1
f 109/97/65 85/199/45 155/98/44
f 220/100/66 185/436/123 154/101/50
f 225/103/68 180/598/120 249/104/69
f 255/106/71 245/507/88 195/107/72
f 5/109/74 6/707/339 254/110/75
f 199/112/77 290/708/113 174/113/78
f 259/115/80 274/709/98 214/116/81
f 170/118/83 260/540/125 164/119/84
f 239/121/85 164/463/84 160/122/86
f 304/124/70 249/444/69 195/125/72
f 179/127/89 209/263/100 205/128/90
f 285/130/92 189/583/109 175/131/93
f 165/133/82 214/520/81 219/134/95
f 259/136/80 295/253/112 300/137/97
f 179/139/89 270/542/110 284/140/99
f 254/142/75 6/710/339 7/143/101
f 264/145/103 169/495/114 240/146/104
f 215/148/106 275/562/49 135/149/51
f 204/151/108 279/262/117 175/152/93
f 270/154/110 194/590/115 190/155/111
f 159/157/96 219/462/95 300/158/97
f 264/160/103 174/482/78 290/161/113
f 205/163/90 190/438/111 194/164/115
f 210/166/116 234/527/119 279/167/117
f 160/169/86 294/711/124 289/170/118
f 235/172/105 240/597/104 199/173/77
f 210/175/116 285/475/92 265/176/94
f 255/178/71 269/548/73 180/179/120
f 305/181/121 244/712/102 7/182/101
f 215/184/106 229/385/107 185/185/123
f 170/187/83 289/563/118 294/188/124
f 224/190/76 305/713/121 8/191/122
f 110/65/38 84/705/27 86/193/126
f 113/194/127 86/193/126 87/195/128
f 112/196/129 87/195/128 88/197/130
f 111/198/131 88/197/130 85/199/45
f 104/33/28 106/201/133 38/200/132
f 106/201/133 107/203/135 37/202/134
f 107/203/135 108/205/137 36/204/136
f 108/205/137 105/83/30 34/206/20
f 100/48/36 54/47/8 56/207/138
f 103/208/139 56/207/138 57/209/140
f 102/210/141 57/209/140 58/211/142
f 101/212/143 58/211/142 55/213/29
f 50/214/34 19/61/41 21/215/144
f 53/216/145 21/215/144 22/217/146
f 52/218/147 22/217/146 23/219/148
f 51/220/149 23/219/148 20/81/58
f 44/75/47 46/222/151 123/221/150
f 46/222/151 47/224/153 122/223/152
f 47/224/153 48/226/155 121/225/154
f 48/226/155 45/701/16 119/7/4
f 14/227/53 16/714/231 68/228/156
f 68/228/156 16/714/231 17/229/157
f 17/229/157 18/715/230 66/231/159
f 66/231/159 18/715/230 15/232/160
f 29/233/18 31/236/162 73/234/161
f 31/236/162 32/716/164 72/237/163
f 32/238/164 33/717/229 71/239/165
f 71/239/165 33/717/229 30/52/40
f 74/18/15 76/242/167 63/241/166
f 76/242/167 77/244/169 62/243/168
f 77/244/169 78/246/171 61/245/170
f 78/246/171 75/55/43 59/57/39
f 260/189/125 294/188/124 296/247/172
f 263/248/173 296/247/172 297/249/174
f 262/250/175 297/249/174 298/251/176
f 261/252/177 298/251/176 295/253/112
f 280/114/79 174/113/78 176/254/178
f 283/255/179 176/254/178 177/256/180
f 177/258/180 178/261/183 281/259/182
f 178/261/183 175/152/93 279/262/117
f 209/263/100 211/265/185 208/264/184
f 211/265/185 212/267/187 207/266/186
f 212/267/187 213/269/189 206/268/188
f 213/269/189 210/166/116 204/168/108
f 85/60/45 88/271/130 76/270/167
f 88/271/130 87/273/128 77/272/169
f 87/273/128 86/275/126 78/274/171
f 86/275/126 84/32/27 75/276/43
f 24/12/9 26/278/191 153/277/190
f 26/278/191 27/280/193 152/279/192
f 27/280/193 28/282/195 151/281/194
f 28/282/195 25/41/33 149/283/11
f 130/85/61 20/87/58 23/284/148
f 23/284/148 22/718/146 132/286/197
f 132/286/197 22/718/146 21/287/144
f 131/288/198 21/287/144 19/53/41
f 35/290/26 38/292/132 148/291/199
f 38/292/132 37/294/134 147/293/200
f 37/294/134 36/296/136 146/295/201
f 36/296/136 34/25/20 144/27/22
f 155/59/44 134/704/14 136/297/202
f 158/298/203 136/297/202 137/299/204
f 137/301/204 138/304/207 156/302/206
f 138/304/207 135/72/51 154/71/50
f 139/66/46 141/306/208 106/305/133
f 141/306/208 142/308/209 107/307/135
f 142/308/209 143/310/210 108/309/137
f 143/310/210 140/36/31 105/35/30
f 50/42/34 53/312/145 43/311/211
f 53/312/145 52/719/147 42/313/212
f 42/314/212 52/720/147 51/315/149
f 51/315/149 49/89/57 39/317/54
f 9/318/214 11/320/216 83/319/215
f 11/320/216 12/322/218 82/321/217
f 12/322/218 13/324/220 81/323/219
f 13/324/220 10/82/59 79/84/60
f 109/325/65 60/91/13 63/326/166
f 111/327/131 63/326/166 62/328/168
f 112/329/129 62/328/168 61/330/170
f 113/331/127 61/330/170 59/51/39
f 69/63/42 25/62/33 28/332/195
f 71/333/165 28/332/195 27/334/193
f 72/335/163 27/334/193 26/336/191
f 73/337/161 26/336/191 24/338/9
f 80/339/19 83/341/215 56/340/138
f 83/341/215 82/343/217 57/342/140
f 82/343/217 81/345/219 58/344/142
f 81/345/219 79/703/60 55/34/29
f 89/90/62 91/347/222 128/346/221
f 91/347/222 92/349/224 127/348/223
f 92/349/224 93/351/226 126/350/225
f 93/351/226 90/68/32 124/352/52
f 114/69/48 116/354/227 46/353/151
f 116/354/227 117/356/228 47/355/153
f 117/356/228 118/721/240 48/357/155
f 48/357/155 118/721/240 115/21/17
f 30/358/40 33/360/229 151/359/194
f 33/360/229 32/362/164 152/361/192
f 32/362/164 31/364/162 153/363/190
f 31/364/162 29/22/18 150/24/7
f 40/15/12 43/366/211 131/365/198
f 43/366/211 42/368/212 132/367/197
f 42/368/212 41/370/213 133/369/196
f 41/370/213 39/77/54 130/371/61
f 15/372/160 18/374/230 126/373/225
f 18/374/230 17/376/157 127/375/223
f 17/376/157 16/378/231 128/377/221
f 16/378/231 14/76/53 125/78/55
f 184/92/63 186/380/233 233/379/232
f 186/380/233 187/722/241 232/381/234
f 232/382/234 187/723/241 188/383/235
f 231/384/236 188/383/235 185/185/123
f 64/39/23 90/38/32 93/386/226
f 66/387/159 93/386/226 92/388/224
f 67/389/158 92/388/224 91/390/222
f 68/391/156 91/390/222 89/392/62
f 229/150/107 135/149/51 138/393/207
f 231/394/236 138/393/207 137/395/204
f 137/397/204 136/400/202 233/398/232
f 136/400/202 134/17/14 230/401/64
f 114/402/48 94/37/25 96/403/237
f 116/404/227 96/403/237 97/405/238
f 117/406/228 97/405/238 98/407/239
f 118/408/240 98/407/239 95/94/6
f 139/409/46 145/49/37 148/410/199
f 141/411/208 148/410/199 147/412/200
f 142/413/209 147/412/200 146/414/201
f 143/415/210 146/414/201 144/45/22
f 120/29/24 123/724/150 96/416/237
f 96/416/237 123/724/150 122/417/152
f 122/417/152 121/420/154 98/419/239
f 121/420/154 119/4/4 95/6/6
f 10/421/59 13/725/220 101/422/143
f 101/422/143 13/725/220 12/423/218
f 12/423/218 11/726/216 103/425/139
f 103/425/139 11/726/216 9/426/214
f 184/99/63 155/98/44 158/428/203
f 186/429/233 158/428/203 157/430/205
f 157/432/205 156/435/206 188/433/235
f 156/435/206 154/101/50 185/436/123
f 205/163/90 208/439/184 193/437/242
f 208/439/184 207/441/186 192/440/243
f 207/441/186 206/443/188 191/442/244
f 206/443/188 204/151/108 189/153/109
f 249/444/69 251/727/307 198/445/245
f 198/445/245 251/727/307 252/446/246
f 252/446/246 253/449/249 196/448/248
f 253/449/249 250/165/91 194/164/115
f 289/170/118 291/451/251 203/450/250
f 291/451/251 292/453/253 202/452/252
f 292/453/253 293/455/255 201/454/254
f 293/455/255 290/708/113 199/112/77
f 299/102/67 301/457/257 223/456/256
f 301/457/257 302/459/259 222/458/258
f 302/459/259 303/461/261 221/460/260
f 303/461/261 300/158/97 219/462/95
f 164/463/84 166/465/263 163/464/262
f 166/465/263 167/467/265 162/466/264
f 167/467/265 168/469/267 161/468/266
f 168/469/267 165/133/82 159/135/96
f 209/141/100 284/140/99 286/470/268
f 286/470/268 287/728/306 212/472/187
f 212/472/187 287/728/306 288/473/269
f 213/474/189 288/473/269 285/475/92
f 265/132/94 175/131/93 178/476/183
f 268/477/270 178/476/183 177/478/180
f 267/479/271 177/478/180 176/480/178
f 266/481/272 176/480/178 174/482/78
f 304/105/70 306/484/274 228/483/273
f 306/484/274 307/486/276 227/485/275
f 307/486/276 308/488/278 226/487/277
f 308/488/278 305/713/121 224/190/76
f 254/110/75 256/490/279 226/489/277
f 256/490/279 257/492/280 227/491/275
f 257/492/280 258/494/281 228/493/273
f 258/494/281 255/178/71 225/180/68
f 169/495/114 171/497/283 243/496/282
f 171/497/283 172/499/285 242/498/284
f 172/499/285 173/729/305 241/500/286
f 241/500/286 173/729/305 170/118/83
f 254/142/75 244/144/102 246/501/287
f 256/502/279 246/501/287 247/503/288
f 257/504/280 247/503/288 248/505/289
f 258/506/281 248/505/289 245/507/88
f 295/159/112 298/509/176 161/508/266
f 298/509/176 297/511/174 162/510/264
f 297/511/174 296/513/172 163/512/262
f 296/513/172 294/711/124 160/169/86
f 304/124/70 245/126/88 248/514/289
f 248/514/289 247/517/288 307/516/276
f 247/517/288 246/519/287 308/518/278
f 246/519/287 244/712/102 305/181/121
f 214/520/81 216/522/290 221/521/260
f 216/522/290 217/524/291 222/523/258
f 217/524/291 218/526/292 223/525/256
f 218/526/292 215/184/106 220/186/66
f 234/527/119 236/529/293 281/528/182
f 236/529/293 237/531/294 282/530/181
f 237/531/294 238/533/295 283/532/179
f 238/533/295 235/172/105 280/174/79
f 259/115/80 165/117/82 168/534/267
f 261/535/177 168/534/267 167/536/265
f 167/536/265 166/539/263 263/538/173
f 166/539/263 164/119/84 260/540/125
f 179/139/89 181/543/297 273/541/296
f 181/543/297 182/545/299 272/544/298
f 182/545/299 183/547/301 271/546/300
f 183/547/301 180/179/120 269/548/73
f 265/176/94 268/550/270 236/549/293
f 268/550/270 267/730/271 237/551/294
f 267/552/271 266/555/272 238/553/295
f 266/555/272 264/145/103 235/147/105
f 214/116/81 274/709/98 276/556/302
f 216/557/290 276/556/302 277/558/303
f 217/559/291 277/558/303 278/560/304
f 218/561/292 278/560/304 275/562/49
f 289/563/118 170/187/83 173/564/305
f 291/565/251 173/564/305 172/566/285
f 292/567/253 172/566/285 171/568/283
f 293/569/255 171/568/283 169/162/114
f 274/138/98 300/137/97 303/570/261
f 276/571/302 303/570/261 302/572/259
f 277/573/303 302/572/259 301/574/257
f 278/575/304 301/574/257 299/576/67
f 284/156/99 190/155/111 193/577/242
f 286/578/268 193/577/242 192/579/243
f 287/580/306 192/579/243 191/581/244
f 288/582/269 191/581/244 189/583/109
f 269/108/73 195/107/72 198/584/245
f 271/585/300 198/584/245 197/586/247
f 272/587/298 197/586/247 196/588/248
f 273/589/296 196/588/248 194/590/115
f 200/123/87 203/592/250 241/591/286
f 203/592/250 202/594/252 242/593/284
f 202/594/252 201/596/254 243/595/282
f 201/596/254 199/173/77 240/597/104
f 180/598/120 183/600/301 251/599/307
f 183/600/301 182/602/299 252/601/246
f 182/602/299 181/604/297 253/603/249
f 181/604/297 179/127/89 250/129/91
f 100/427/36 9/426/214 29/233/18
s 0
g Jamb_Material
usemtl Material
f 313/605/308 311/606/308 309/607/308
f 311/606/309 316/608/309 312/609/309
f 315/610/310 314/611/310 316/612/310
f 310/613/311 316/614/311 314/615/311
f 309/616/312 312/617/312 310/618/312
f 313/619/313 310/613/313 314/620/313
f 313/605/308 315/731/308 311/606/308
f 311/606/309 315/732/309 316/608/309
f 315/610/310 313/733/310 314/611/310
f 310/613/311 312/609/311 316/614/311
f 309/616/312 311/734/312 312/617/312
f 313/619/313 309/607/313 310/613/313
g Jamb_Material.001
usemtl Material.001
f 319/621/314 328/622/314 323/622/314
f 319/621/309 324/623/309 320/624/309
f 323/625/310 322/626/310 324/627/310
f 318/628/311 324/629/311 322/630/311
f 318/631/312 319/632/312 320/633/312
f 321/634/313 318/628/313 322/635/313
f 327/636/315 329/637/315 325/637/315
f 321/638/310 328/639/310 327/640/310
f 317/641/312 326/642/312 319/643/312
f 321/634/316 325/637/316 317/637/316
f 331/644/310 336/645/310 335/646/310
f 325/647/312 330/648/312 326/649/312
f 327/650/310 332/651/310 331/652/310
f 328/622/317 330/621/317 332/622/317
f 335/653/310 340/654/310 339/655/310
f 332/622/318 334/621/318 336/622/318
f 329/637/319 335/636/319 333/637/319
f 329/656/312 334/657/312 330/658/312
f 337/637/320 343/636/320 341/637/320
f 334/621/321 340/622/321 336/622/321
f 335/636/322 337/637/322 333/637/322
f 333/659/312 338/660/312 334/661/312
f 343/662/310 348/663/310 347/664/310
f 337/665/312 342/666/312 338/667/312
f 339/668/310 344/669/310 343/670/310
f 338/621/323 344/622/323 340/622/323
f 346/621/324 352/622/324 348/622/324
f 342/621/325 348/622/325 344/622/325
f 343/636/326 345/637/326 341/637/326
f 341/671/312 346/672/312 342/673/312
f 351/636/327 353/637/327 349/637/327
f 347/636/328 349/637/328 345/637/328
f 346/674/312 349/675/312 350/676/312
f 348/677/310 351/678/310 347/679/310
f 356/680/310 359/636/310 355/636/310
f 350/681/312 353/682/312 354/672/312
f 352/680/310 355/636/310 351/636/310
f 350/621/329 356/622/329 352/622/329
f 357/637/330 363/636/330 361/637/330
f 354/621/331 360/622/331 356/622/331
f 355/636/332 357/637/332 353/637/332
f 354/683/312 357/684/312 358/685/312
f 362/686/312 365/687/312 366/688/312
f 358/689/312 361/690/312 362/691/312
f 360/680/310 363/636/310 359/636/310
f 358/621/333 364/622/333 360/622/333
f 367/636/310 372/680/310 371/636/310
f 364/680/310 367/636/310 363/636/310
f 364/622/334 366/621/334 368/622/334
f 363/636/335 365/637/335 361/637/335
f 371/692/336 370/693/336 369/694/336
f 366/621/337 372/622/337 368/622/337
f 365/637/338 371/636/338 369/694/338
f 365/695/312 370/696/312 366/697/312
f 319/621/314 326/621/314 328/622/314
f 319/621/309 323/622/309 324/623/309
f 323/625/310 321/735/310 322/626/310
f 318/628/311 320/624/311 324/629/311
f 318/631/312 317/736/312 319/632/312
f 321/634/313 317/637/313 318/628/313
f 327/636/315 331/636/315 329/637/315
f 321/638/310 323/737/310 328/639/310
f 317/641/312 325/738/312 326/642/312
f 321/634/316 327/636/316 325/637/316
f 331/644/310 332/739/310 336/645/310
f 325/647/312 329/740/312 330/648/312
f 327/650/310 328/741/310 332/651/310
f 328/622/317 326/621/317 330/621/317
f 335/653/310 336/742/310 340/654/310
f 332/622/318 330/621/318 334/621/318
f 329/637/319 331/636/319 335/636/319
f 329/656/312 333/743/312 334/657/312
f 337/637/320 339/636/320 343/636/320
f 334/621/321 338/621/321 340/622/321
f 335/636/322 339/636/322 337/637/322
f 333/659/312 337/744/312 338/660/312
f 343/662/310 344/745/310 348/663/310
f 337/665/312 341/746/312 342/666/312
f 339/668/310 340/747/310 344/669/310
f 338/621/323 342/621/323 344/622/323
f 346/621/324 350/621/324 352/622/324
f 342/621/325 346/621/325 348/622/325
f 343/636/326 347/636/326 345/637/326
f 341/671/312 345/740/312 346/672/312
f 351/636/327 355/636/327 353/637/327
f 347/636/328 351/636/328 349/637/328
f 346/674/312 345/748/312 349/675/312
f 348/677/310 352/749/310 351/678/310
f 356/680/310 360/680/310 359/636/310
f 350/681/312 349/750/312 353/682/312
f 352/680/310 356/680/310 355/636/310
f 350/621/329 354/621/329 356/622/329
f 357/637/330 359/636/330 363/636/330
f 354/621/331 358/621/331 360/622/331
f 355/636/332 359/636/332 357/637/332
f 354/683/312 353/751/312 357/684/312
f 362/686/312 361/752/312 365/687/312
f 358/689/312 357/753/312 361/690/312
f 360/680/310 364/680/310 363/636/310
f 358/621/333 362/621/333 364/622/333
f 367/636/310 368/680/310 372/680/310
f 364/680/310 368/680/310 367/636/310
f 364/622/334 362/621/334 366/621/334
f 363/636/335 367/636/335 365/637/335
f 371/692/336 372/754/336 370/693/336
f 366/621/340 370/693/340 372/622/340
f 365/637/341 367/636/341 371/636/341
f 365/695/312 369/755/312 370/696/312
g Jamb_Material.004
usemtl Material.004
f 374/698/310 375/698/310 373/698/310
f 376/698/313 379/698/313 375/698/313
f 380/698/312 377/698/312 379/698/312
f 378/698/309 373/698/309 377/698/309
f 379/698/311 373/698/311 375/698/311
f 376/698/308 378/698/308 380/698/308
f 374/698/310 376/698/310 375/698/310
f 376/698/313 380/698/313 379/698/313
f 380/698/312 378/698/312 377/698/312
f 378/698/309 374/698/309 373/698/309
f 379/698/311 377/698/311 373/698/311
f 376/698/308 374/698/308 378/698/308
g Jamb_Material.005
usemtl Material.005
f 381/698/312 384/698/312 383/698/312
f 384/698/309 387/698/309 383/698/309
f 388/698/310 385/698/310 387/698/310
f 386/698/313 381/698/313 385/698/313
f 387/698/311 381/698/311 383/698/311
f 384/698/308 386/698/308 388/698/308
f 381/698/312 382/698/312 384/698/312
f 384/698/309 388/698/309 387/698/309
f 388/698/310 386/698/310 385/698/310
f 386/698/313 382/698/313 381/698/313
f 387/698/311 385/698/311 381/698/311
f 384/698/308 382/698/308 386/698/308
