# Blender 4.5.3 LTS
# www.blender.org
mtllib Arco2.mtl
g Jamb_Malla
v -0.921926 0.080975 2.592675
v -0.921926 -2.743452 2.592676
v -0.921926 0.080975 1.506357
v -0.921926 -2.743452 1.506358
v 0.888605 0.080975 2.592675
v 0.888605 -2.743452 2.592676
v 0.888605 0.080975 1.506357
v 0.888605 -2.743452 1.506358
v -0.921926 0.080973 -1.575166
v -0.921926 -2.743454 -1.575165
v -0.921926 0.080973 -2.661484
v -0.921926 -2.743454 -2.661483
v 0.888605 0.080973 -1.575166
v 0.888605 -2.743454 -1.575165
v 0.888605 0.080973 -2.661484
v 0.888605 -2.743454 -2.661483
v -0.921926 0.485237 -1.521186
v -0.921926 0.770263 -2.569444
v 0.888605 0.485237 -1.521186
v 0.888605 0.770263 -2.569444
v -0.921926 0.861173 -1.363026
v -0.921926 1.411255 -2.299775
v 0.888605 0.861173 -1.363026
v 0.888605 1.411255 -2.299775
v -0.921926 1.182441 -1.111770
v -0.921926 1.959033 -1.871370
v 0.888605 1.182441 -1.111770
v 0.888605 1.959033 -1.871370
v -0.921926 1.426529 -0.785023
v -0.921926 2.375216 -1.314248
v 0.888605 1.426529 -0.785023
v 0.888605 2.375216 -1.314249
v -0.921926 1.576334 -0.405680
v -0.921926 2.630641 -0.667448
v 0.888605 1.576334 -0.405680
v 0.888605 2.630642 -0.667448
v -0.921926 1.621359 -0.000322
v -0.921926 2.707411 0.023709
v 0.888605 1.621358 -0.000322
v 0.888605 2.707411 0.023709
v -0.921926 1.558449 0.402648
v -0.921926 2.600146 0.710794
v 0.888605 1.558448 0.402648
v 0.888605 2.600146 0.710794
v -0.921926 1.392012 0.774994
v -0.921926 2.316362 1.345663
v 0.888605 1.392012 0.774994
v 0.888605 2.316362 1.345663
v -0.921926 1.133711 1.090625
v -0.921926 1.875944 1.883831
v 0.888605 1.133711 1.090625
v 0.888605 1.875944 1.883831
v -0.921926 0.801644 1.327425
v -0.921926 1.309753 2.287587
v 0.888605 0.801644 1.327425
v 0.888605 1.309753 2.287587
v -0.921926 0.419080 1.468802
v -0.921926 0.657461 2.528642
v 0.888604 0.419079 1.468802
v 0.888605 0.657461 2.528642
v -0.921926 0.073749 1.498756
v -0.921926 0.074438 2.590103
v 0.888605 0.079841 1.504848
v 0.888605 0.080531 2.590103
v -1.376126 3.594482 0.247672
v -1.376128 2.655006 0.247672
v -1.376125 3.594482 -0.251923
v -1.376127 2.655007 -0.251924
v 1.485481 3.594478 0.247679
v 1.485480 2.655001 0.247679
v 1.485482 3.594477 -0.251916
v 1.485481 2.655002 -0.251917
vn -0.0000 1.0000 -0.0000
vn -0.0000 -0.0000 -1.0000
vn 1.0000 -0.0000 -0.0000
vn -0.0000 -1.0000 -0.0000
vn -1.0000 -0.0000 -0.0000
vn -0.0000 -0.0000 1.0000
vn -0.0000 0.1324 -0.9912
vn -0.0000 -0.3878 0.9217
vn -0.0000 -0.1324 0.9912
vn -0.0000 0.3878 -0.9217
vn -0.0000 0.6160 -0.7877
vn -0.0000 -0.6160 0.7877
vn -0.0000 -0.9301 0.3673
vn -0.0000 0.8011 -0.5985
vn -0.0000 -0.8011 0.5985
vn -0.0000 0.9301 -0.3673
vn -0.0000 0.9880 0.1542
vn -0.0000 0.9939 -0.1104
vn -0.0000 -0.9939 0.1104
vn -0.0000 -0.9129 -0.4081
vn -0.0000 -0.9880 -0.1542
vn -0.0000 0.9129 0.4081
vn -0.0000 -0.5806 -0.8142
vn -0.0000 0.7739 0.6333
vn -0.0000 -0.7739 -0.6333
vn -0.0000 0.5806 0.8142
vn -0.0000 0.3466 0.9380
vn -0.0000 -0.3466 -0.9380
vn 0.0034 -1.0000 0.0006
vn -0.0000 0.1059 0.9944
vn 0.0036 -0.0864 -0.9963
vn -0.0004 0.1048 0.9945
vn -0.0000 -0.1057 -0.9944
vt 0.875000 0.500000
vt 0.625000 0.750000
vt 0.625000 0.500000
vt 0.375000 1.000000
vt 0.375000 0.750000
vt 1.294099 -0.189870
vt -0.312359 1.159825
vt -0.312359 -0.189870
vt 0.375000 0.500000
vt 0.125000 0.750000
vt 0.125000 0.500000
vt 1.542720 -0.538116
vt -0.547816 1.557564
vt -0.555474 -0.491154
vt 1.154532 -0.224201
vt -0.159097 1.123038
vt -0.136272 -0.234585
vt 0.999503 0.990691
vt -0.011042 0.000019
vt -0.022550 0.986793
vt 1.230220 -0.222743
vt -0.141313 1.169837
vt -0.152816 -0.309963
vt 1.227548 -0.328707
vt -0.238561 1.417773
vt -0.244115 -0.317890
vt 0.451087 1.576923
vt 0.201087 1.826923
vt 0.201087 1.576923
vt -0.588029 1.323465
vt 1.557212 -0.346773
vt -0.590436 -0.327250
vt 0.998664 2.068688
vt 0.962966 2.004300
vt 0.977006 2.033800
vt 0.701087 1.326923
vt 0.701087 1.576923
vt 0.987794 0.953303
vt 0.016304 0.032967
vt 0.027174 0.980769
vt 0.993242 0.012406
vt -0.001913 0.996206
vt 0.988678 0.989283
vt 0.976449 0.030220
vt 0.030797 0.956044
vt 0.972826 0.958791
vt 0.993243 -0.029130
vt 0.016347 0.996206
vt 0.988678 0.996206
vt 0.983696 0.969780
vt 0.019927 0.032967
vt 0.016304 0.980769
vt 0.010561 0.991472
vt 0.988621 0.016655
vt -0.025179 0.019873
vt 0.987319 0.942308
vt 0.009058 0.021978
vt 0.019927 0.986264
vt 1.005914 1.012841
vt 0.005161 -0.030859
vt 0.033918 1.012841
vt 0.979548 0.026251
vt 0.025477 0.989283
vt 0.979548 0.975438
vt 0.994411 -0.004693
vt 0.005161 0.899456
vt 0.988660 0.995397
vt 0.997807 0.012406
vt 0.020912 1.003129
vt 0.997807 0.975438
vt 0.023551 0.969780
vt 0.969203 0.027472
vt 0.983696 0.980769
vt 0.988678 0.012406
vt 0.011782 0.982361
vt 0.988677 0.996206
vt 0.019927 0.942308
vt 0.976449 0.027472
vt 0.980072 0.964286
vt -0.006342 -0.013415
vt 1.017417 1.030285
vt 0.010913 0.908177
vt 1.011665 0.012751
vt 1.005914 0.986675
vt 0.994411 -0.030859
vt 0.022416 0.977953
vt 0.988660 1.021563
vt 0.988677 0.026251
vt 0.016347 0.975438
vt 0.979548 0.982361
vt 0.988678 0.982361
vt 0.007217 0.005483
vt 0.025477 0.989283
vt 0.988677 0.973083
vt 0.011782 0.039312
vt 0.970418 0.011621
vt 0.990960 -0.006470
vt 0.009500 1.001559
vt 0.995525 0.973868
vt 0.984113 0.975438
vt 0.011782 0.033174
vt 0.988677 0.010836
vt 0.020912 0.994636
vt -0.004195 0.001237
vt -0.005153 0.013235
vt 0.976169 0.989768
vt 0.982240 0.006400
vt 0.004358 -0.024234
vt 0.988892 0.986687
vt 0.987701 0.025005
vt 0.970418 0.996206
vt 0.016347 0.005483
vt 0.007217 0.975438
vt 0.992280 0.008104
vt 0.003854 1.007598
vt 0.987237 0.974655
vt 0.993242 -0.005125
vt 0.011782 1.020660
vt 1.011502 1.005581
vt 0.993242 -0.013393
vt 0.011782 1.008482
vt 0.988678 0.984252
vt 0.001836 0.005139
vt 0.983806 0.986316
vt 0.996507 0.014259
vt 0.988678 0.991175
vt -0.013325 -0.003009
vt 0.011782 1.015404
vt 0.995525 0.000452
vt -0.004195 0.994636
vt 0.997807 0.994636
vt 0.993787 1.018715
vt -0.001031 0.043995
vt 1.007803 -0.008126
vt 0.635870 1.236264
vt 0.385870 1.486264
vt 0.385870 1.236264
vt -0.041667 -0.008242
vt 0.987319 0.994506
vt 1.009058 0.010989
vt 0.989286 1.000744
vt 0.002042 -0.005152
vt 0.019866 0.997261
vt 0.977747 0.976862
vt 0.000000 0.000000
vt 1.006504 -0.017444
vt 0.995001 0.976862
vt 0.023006 0.078498
vt 0.995001 0.069776
vt 0.989250 0.008722
vt 0.000000 0.950696
vt 0.948990 0.959418
vt 1.236562 1.282131
vt -0.350839 -0.244216
vt 1.259568 -0.226772
vt 1.529886 1.639733
vt -0.356590 -0.828588
vt 1.483875 -0.828588
vt 1.391851 1.674621
vt -0.368093 -1.098970
vt 1.518383 -0.933252
vt 0.875000 0.750000
vt 0.625000 1.000000
vt 1.294099 1.159825
vt 1.542720 1.557565
vt 1.161379 1.133422
vt 0.975315 0.031649
vt 1.155452 1.134949
vt 1.251361 1.397293
vt 0.451087 1.826923
vt 1.589350 1.333037
vt 0.948399 2.013022
vt 0.984171 0.038455
vt 0.002653 0.005483
vt 0.038043 0.038462
vt 0.011782 0.019329
vt 0.983695 0.021978
vt 0.990243 1.014441
vt 0.972826 0.038462
vt 0.977157 0.004029
vt 0.007217 0.012406
vt -0.012093 -0.126801
vt 0.020912 0.019329
vt 0.009058 0.005495
vt -0.006477 0.019329
vt 0.030797 0.027473
vt 0.982908 0.021473
vt -0.012093 -0.022137
vt 0.028167 0.038917
vt 0.988677 0.033174
vt 0.011782 0.986929
vt -0.013325 0.017759
vt 0.970418 0.026251
vt 1.006937 0.986929
vt 0.039071 1.000955
vt 0.012531 0.974392
vt 0.974983 -0.022207
vt 0.022352 0.020112
vt 0.002652 -0.003891
vt 0.002653 -0.003009
vt 0.021609 0.988489
vt 0.995525 0.000452
vt 0.007217 0.010836
vt 0.031999 1.016447
vt 0.635870 1.486264
vt 0.019927 0.969780
vt 1.005050 0.005849
vt 0.011503 0.994306
vt 0.023006 0.933252
vt 0.005751 0.043610
vt -0.333584 1.308297
vt -0.437110 1.508903
vt -0.552139 1.500181
s 0
g off
g Jamb_Material
usemtl Material
f 5/1/1 3/2/1 1/3/1
f 3/2/2 8/4/2 4/5/2
f 7/6/3 6/7/3 8/8/3
f 2/9/4 8/10/4 6/11/4
f 1/12/5 4/13/5 2/14/5
f 5/15/6 2/16/6 6/17/6
f 5/1/1 7/162/1 3/2/1
f 3/2/2 7/163/2 8/4/2
f 7/6/3 5/164/3 6/7/3
f 2/9/4 4/5/4 8/10/4
f 1/12/5 3/165/5 4/13/5
f 5/15/6 1/166/6 2/16/6
g Jamb_Material.001
usemtl Material.001
f 11/18/7 20/19/7 15/20/7
f 11/21/2 16/22/2 12/23/2
f 15/24/3 14/25/3 16/26/3
f 10/27/4 16/28/4 14/29/4
f 10/30/5 11/31/5 12/32/5
f 13/33/6 10/34/6 14/35/6
f 19/36/8 21/37/8 17/37/8
f 13/38/3 20/39/3 19/40/3
f 9/41/5 18/42/5 11/43/5
f 13/33/9 17/37/9 9/37/9
f 23/44/3 28/45/3 27/46/3
f 17/47/5 22/48/5 18/49/5
f 19/50/3 24/51/3 23/52/3
f 20/53/10 22/54/10 24/55/10
f 27/56/3 32/57/3 31/58/3
f 24/59/11 26/60/11 28/61/11
f 21/37/12 27/36/12 25/37/12
f 21/62/5 26/63/5 22/64/5
f 29/37/13 35/36/13 33/37/13
f 26/65/14 32/66/14 28/67/14
f 27/36/15 29/37/15 25/37/15
f 25/68/5 30/69/5 26/70/5
f 35/71/3 40/72/3 39/73/3
f 29/74/5 34/75/5 30/76/5
f 31/77/3 36/78/3 35/79/3
f 30/80/16 36/81/16 32/82/16
f 38/83/17 44/61/17 40/84/17
f 34/85/18 40/86/18 36/87/18
f 35/36/19 37/37/19 33/37/19
f 33/88/5 38/89/5 34/90/5
f 43/36/20 45/37/20 41/37/20
f 39/36/21 41/37/21 37/37/21
f 38/91/5 41/92/5 42/93/5
f 40/94/3 43/95/3 39/96/3
f 48/97/3 51/98/3 47/99/3
f 42/100/5 45/101/5 46/89/5
f 44/102/3 47/103/3 43/104/3
f 42/105/22 48/106/22 44/107/22
f 49/37/23 55/36/23 53/37/23
f 46/108/24 52/109/24 48/110/24
f 47/36/25 49/37/25 45/37/25
f 46/111/5 49/112/5 50/113/5
f 54/114/5 57/115/5 58/116/5
f 50/117/5 53/118/5 54/119/5
f 52/120/3 55/121/3 51/122/3
f 50/123/26 56/124/26 52/125/26
f 59/126/3 64/127/3 63/128/3
f 56/129/3 59/130/3 55/131/3
f 56/132/27 58/133/27 60/134/27
f 55/36/28 57/37/28 53/37/28
f 63/135/29 62/136/29 61/137/29
f 58/138/30 64/139/30 60/140/30
f 57/37/31 63/36/31 61/137/31
f 57/141/5 62/142/5 58/143/5
f 11/18/7 18/167/7 20/19/7
f 11/21/2 15/168/2 16/22/2
f 15/24/3 13/169/3 14/25/3
f 10/27/4 12/170/4 16/28/4
f 10/30/5 9/171/5 11/31/5
f 13/33/6 9/172/6 10/34/6
f 19/36/8 23/36/8 21/37/8
f 13/38/3 15/173/3 20/39/3
f 9/41/5 17/174/5 18/42/5
f 13/33/9 19/36/9 17/37/9
f 23/44/3 24/175/3 28/45/3
f 17/47/5 21/176/5 22/48/5
f 19/50/3 20/177/3 24/51/3
f 20/53/10 18/178/10 22/54/10
f 27/56/3 28/179/3 32/57/3
f 24/59/11 22/180/11 26/60/11
f 21/37/12 23/36/12 27/36/12
f 21/62/5 25/181/5 26/63/5
f 29/37/13 31/36/13 35/36/13
f 26/65/14 30/182/14 32/66/14
f 27/36/15 31/36/15 29/37/15
f 25/68/5 29/183/5 30/69/5
f 35/71/3 36/184/3 40/72/3
f 29/74/5 33/185/5 34/75/5
f 31/77/3 32/186/3 36/78/3
f 30/80/16 34/187/16 36/81/16
f 38/83/17 42/188/17 44/61/17
f 34/85/18 38/189/18 40/86/18
f 35/36/19 39/36/19 37/37/19
f 33/88/5 37/176/5 38/89/5
f 43/36/20 47/36/20 45/37/20
f 39/36/21 43/36/21 41/37/21
f 38/91/5 37/190/5 41/92/5
f 40/94/3 44/191/3 43/95/3
f 48/97/3 52/192/3 51/98/3
f 42/100/5 41/193/5 45/101/5
f 44/102/3 48/194/3 47/103/3
f 42/105/22 46/195/22 48/106/22
f 49/37/23 51/36/23 55/36/23
f 46/108/24 50/196/24 52/109/24
f 47/36/25 51/36/25 49/37/25
f 46/111/5 45/197/5 49/112/5
f 54/114/5 53/198/5 57/115/5
f 50/117/5 49/199/5 53/118/5
f 52/120/3 56/200/3 55/121/3
f 50/123/26 54/201/26 56/124/26
f 59/126/3 60/202/3 64/127/3
f 56/129/3 60/203/3 59/130/3
f 56/132/27 54/204/27 58/133/27
f 55/36/28 59/36/28 57/37/28
f 63/135/29 64/205/29 62/136/29
f 58/138/32 62/206/32 64/139/32
f 57/37/33 59/36/33 63/36/33
f 57/141/5 61/207/5 62/142/5
g Jamb_Material.005
usemtl Material.005
f 66/144/3 67/145/3 65/146/3
f 68/147/6 71/148/6 67/149/6
f 72/150/5 69/151/5 71/152/5
f 69/153/2 66/154/2 65/155/2
f 71/156/4 65/157/4 67/158/4
f 72/159/1 66/160/1 70/161/1
f 66/144/3 68/208/3 67/145/3
f 68/147/6 72/209/6 71/148/6
f 72/150/5 70/210/5 69/151/5
f 69/153/2 70/211/2 66/154/2
f 71/156/4 69/212/4 65/157/4
f 72/159/1 68/213/1 66/160/1
g Jamb.001_Malla
v 0.917808 -2.716158 -1.560597
v 0.398583 -2.716145 -1.491132
v 0.917884 -2.716145 -1.491132
v 0.398655 -2.716157 -1.560596
v 0.914406 -2.716147 1.448032
v 0.402476 -2.716146 1.448033
v 0.402561 -2.716159 1.517498
v 0.914321 -2.716160 1.517497
v 0.398841 1.177303 -0.953606
v 0.398841 1.305225 -0.741570
v 0.398841 1.209535 -0.907112
v 0.398841 1.245163 -0.850489
v 0.398841 1.278765 -0.792359
v 0.398840 0.750493 -1.343283
v 0.398840 0.526217 -1.446161
v 0.398840 0.700466 -1.370624
v 0.398840 0.640276 -1.399776
v 0.398840 0.579089 -1.426301
v 0.918042 0.969995 -1.183895
v 0.918042 0.770993 -1.331147
v 0.918042 0.926366 -1.220990
v 0.918042 0.873226 -1.262000
v 0.918042 0.818667 -1.300682
v 0.918042 1.194592 -1.032495
v 0.918042 1.028420 -1.216556
v 0.918042 1.158986 -1.077492
v 0.918042 1.114903 -1.128273
v 0.918042 1.069054 -1.177105
v 0.398841 1.157175 -0.980769
v 0.398840 0.990989 -1.164812
v 0.398841 1.121564 -1.025762
v 0.398841 1.077477 -1.076538
v 0.398841 1.031626 -1.125366
v 0.398841 1.322373 -0.706040
v 0.398842 1.408763 -0.475080
v 0.398841 1.345329 -0.654520
v 0.398842 1.369808 -0.592536
v 0.398842 1.392083 -0.529526
v 0.398858 0.799803 -1.390755
v 0.398840 0.998796 -1.243486
v 0.398851 0.847475 -1.360287
v 0.398845 0.902033 -1.321600
v 0.398842 0.955170 -1.280585
v 0.398906 0.508846 -1.522433
v 0.398925 0.265767 -1.561692
v 0.398913 0.453592 -1.537471
v 0.398919 0.387995 -1.550212
v 0.398923 0.322039 -1.558717
v 0.918024 0.799802 -1.390755
v 0.918042 0.998796 -1.243486
v 0.918031 0.847475 -1.360287
v 0.918037 0.902033 -1.321601
v 0.918040 0.955169 -1.280586
v 0.918042 1.222271 -0.995137
v 0.918043 1.350176 -0.783086
v 0.918042 1.254498 -0.948639
v 0.918043 1.290122 -0.892013
v 0.918043 1.323720 -0.833878
v 0.918042 1.420523 -0.432170
v 0.918042 1.463888 -0.190656
v 0.918042 1.433766 -0.377510
v 0.918042 1.446658 -0.312417
v 0.918042 1.457236 -0.246803
v 0.918041 0.526217 -1.446161
v 0.918042 0.750493 -1.343283
v 0.918042 0.579088 -1.426302
v 0.918042 0.640276 -1.399777
v 0.918042 0.700465 -1.370625
v 0.918042 0.990989 -1.164813
v 0.918042 1.157174 -0.980770
v 0.918042 1.031625 -1.125366
v 0.918042 1.077477 -1.076539
v 0.918042 1.121564 -1.025763
v 0.400375 1.463889 -0.190656
v 0.398843 1.420523 -0.432170
v 0.399789 1.457236 -0.246803
v 0.399292 1.446659 -0.312417
v 0.398960 1.433767 -0.377509
v 0.398841 1.350177 -0.783086
v 0.398841 1.222271 -0.995136
v 0.398841 1.323720 -0.833878
v 0.398841 1.290122 -0.892012
v 0.398841 1.254498 -0.948639
v 0.398842 1.475272 -0.447243
v 0.400302 1.518505 -0.205693
v 0.398954 1.488502 -0.392579
v 0.399270 1.501364 -0.327478
v 0.399744 1.511900 -0.261853
v 0.918019 0.769980 -1.408413
v 0.917981 0.545447 -1.510433
v 0.918010 0.719934 -1.435691
v 0.918000 0.659690 -1.464658
v 0.917990 0.598418 -1.490904
v 0.918041 0.508853 -1.451996
v 0.918041 0.265780 -1.492227
v 0.918041 0.453601 -1.467406
v 0.918041 0.388006 -1.480462
v 0.918041 0.322052 -1.489179
v 0.918043 1.305224 -0.741570
v 0.918042 1.177303 -0.953607
v 0.918043 1.278765 -0.792359
v 0.918042 1.245162 -0.850490
v 0.918042 1.209534 -0.907112
v 0.398842 1.459661 -0.504219
v 0.398841 1.373289 -0.735188
v 0.398842 1.442985 -0.558666
v 0.398842 1.420715 -0.621680
v 0.398841 1.396241 -0.683666
v 0.918042 1.518505 -0.205693
v 0.918042 1.475271 -0.447244
v 0.918042 1.511899 -0.261853
v 0.918042 1.501364 -0.327479
v 0.918042 1.488501 -0.392579
v 0.917976 0.508846 -1.522434
v 0.917956 0.265767 -1.561692
v 0.917968 0.453592 -1.537471
v 0.917962 0.387994 -1.550212
v 0.917958 0.322039 -1.558718
v 0.398840 0.265780 -1.492227
v 0.398840 0.508853 -1.451995
v 0.398840 0.322052 -1.489178
v 0.398840 0.388006 -1.480462
v 0.398840 0.453602 -1.467405
v 0.398900 0.545448 -1.510432
v 0.398863 0.769980 -1.408412
v 0.398891 0.598418 -1.490903
v 0.398881 0.659690 -1.464657
v 0.398871 0.719935 -1.435690
v 0.398840 0.969995 -1.183894
v 0.398840 0.770993 -1.331147
v 0.398840 0.926366 -1.220989
v 0.398840 0.873227 -1.262000
v 0.398840 0.818667 -1.300682
v 0.400956 1.468034 -0.143957
v 0.402478 1.467995 0.100887
v 0.401538 1.471362 -0.087798
v 0.402032 1.472523 -0.021547
v 0.402362 1.471341 0.044710
v 0.918042 1.459661 -0.504219
v 0.918043 1.373288 -0.735188
v 0.918043 1.442984 -0.558667
v 0.918043 1.420715 -0.621680
v 0.918043 1.396240 -0.683666
v 0.918043 1.322372 -0.706040
v 0.918042 1.408762 -0.475081
v 0.918043 1.345329 -0.654520
v 0.918043 1.369808 -0.592537
v 0.918042 1.392082 -0.529526
v 0.398840 1.028420 -1.216556
v 0.398841 1.194593 -1.032495
v 0.398841 1.069055 -1.177105
v 0.398841 1.114903 -1.128272
v 0.398841 1.158987 -1.077492
v 0.402478 1.523882 0.100582
v 0.401029 1.523895 -0.144263
v 0.402368 1.527179 0.044405
v 0.402054 1.528339 -0.021852
v 0.401584 1.527185 -0.088103
v 0.914408 1.459644 0.461083
v 0.914408 1.373287 0.692059
v 0.914408 1.442974 0.515533
v 0.914408 1.420709 0.578548
v 0.914408 1.396238 0.640536
v 0.914408 1.322371 0.662910
v 0.914408 1.408743 0.431943
v 0.914408 1.345326 0.611390
v 0.914408 1.369802 0.549405
v 0.914408 1.392071 0.486391
v 0.402479 1.177302 0.910477
v 0.402479 1.305224 0.698441
v 0.402479 1.209533 0.863983
v 0.402479 1.245162 0.807360
v 0.402479 1.278764 0.749230
v 0.402479 1.194592 0.989365
v 0.402479 1.028419 1.173427
v 0.402479 1.158985 1.034362
v 0.402479 1.114901 1.085143
v 0.402479 1.069053 1.133976
v 0.914408 0.750491 1.300165
v 0.914408 0.526218 1.403053
v 0.914408 0.700465 1.327509
v 0.914408 0.640276 1.356663
v 0.914408 0.579089 1.383191
v 0.918042 1.523894 -0.144263
v 0.916596 1.523881 0.100581
v 0.917932 1.527185 -0.088104
v 0.917618 1.528338 -0.021853
v 0.917149 1.527178 0.044405
v 0.402479 0.998794 1.200359
v 0.402497 0.799804 1.347633
v 0.402480 0.955169 1.237459
v 0.402484 0.902032 1.278476
v 0.402490 0.847476 1.317163
v 0.402502 0.769978 1.365294
v 0.402539 0.545449 1.467324
v 0.402510 0.719933 1.392574
v 0.402520 0.659689 1.421544
v 0.402530 0.598418 1.447793
v 0.914408 1.222270 0.952007
v 0.914408 1.350175 0.739956
v 0.914408 1.254497 0.905509
v 0.914408 1.290121 0.848883
v 0.914408 1.323719 0.790748
v 0.914408 0.998794 1.200358
v 0.914390 0.799804 1.347633
v 0.914407 0.955168 1.237458
v 0.914403 0.902032 1.278475
v 0.914397 0.847475 1.317163
v 0.914408 0.770994 1.288026
v 0.914408 0.969992 1.140767
v 0.914408 0.818667 1.257559
v 0.914408 0.873226 1.218875
v 0.914408 0.926364 1.177863
v 0.914408 1.420444 0.389225
v 0.915938 1.463825 0.147718
v 0.914524 1.433683 0.334563
v 0.914856 1.446576 0.269472
v 0.915352 1.457160 0.203860
v 0.914408 1.475200 0.404279
v 0.915862 1.518425 0.162729
v 0.914518 1.488425 0.349613
v 0.914834 1.501284 0.284512
v 0.915305 1.511818 0.218887
v 0.914408 0.265779 1.449126
v 0.914408 0.508851 1.408889
v 0.914408 0.322051 1.446077
v 0.914408 0.388005 1.437359
v 0.914408 0.453600 1.424301
v 0.916520 1.467995 0.100886
v 0.918042 1.468034 -0.143958
v 0.917102 1.471340 0.044710
v 0.917596 1.472522 -0.021548
v 0.917926 1.471361 -0.087799
v 0.914408 0.990988 1.121684
v 0.914408 1.157173 0.937640
v 0.914408 1.031625 1.082237
v 0.914408 1.077477 1.033408
v 0.914408 1.121564 0.982633
v 0.914408 1.305223 0.698441
v 0.914408 1.177302 0.910477
v 0.914408 1.278764 0.749229
v 0.914408 1.245162 0.807360
v 0.914408 1.209533 0.863982
v 0.402564 0.265766 1.518592
v 0.402545 0.508844 1.479328
v 0.402562 0.322038 1.515617
v 0.402558 0.387993 1.507111
v 0.402552 0.453591 1.494367
v 0.914348 0.545448 1.467324
v 0.914385 0.769978 1.365294
v 0.914357 0.598418 1.447792
v 0.914367 0.659689 1.421543
v 0.914377 0.719933 1.392574
v 0.402479 0.265779 1.449127
v 0.402479 0.508851 1.408890
v 0.402479 0.322051 1.446078
v 0.402479 0.388005 1.437360
v 0.402479 0.453601 1.424302
v 0.402478 1.408744 0.431944
v 0.402479 1.322372 0.662911
v 0.402479 1.392071 0.486392
v 0.402479 1.369802 0.549405
v 0.402479 1.345327 0.611390
v 0.402479 1.157174 0.937640
v 0.402479 0.990988 1.121684
v 0.402479 1.121564 0.982633
v 0.402479 1.077477 1.033409
v 0.402479 1.031626 1.082237
v 0.402479 0.526219 1.403054
v 0.402479 0.750491 1.300166
v 0.402479 0.579090 1.383192
v 0.402479 0.640277 1.356664
v 0.402479 0.700465 1.327509
v 0.402478 1.420445 0.389226
v 0.402478 1.463825 0.147718
v 0.402478 1.433683 0.334564
v 0.402478 1.446577 0.269473
v 0.402478 1.457161 0.203861
v 0.914408 1.028419 1.173426
v 0.914408 1.194591 0.989365
v 0.914408 1.069052 1.133975
v 0.914408 1.114901 1.085142
v 0.914408 1.158984 1.034362
v 0.402479 0.770994 1.288026
v 0.402479 0.969993 1.140768
v 0.402479 0.818668 1.257560
v 0.402479 0.873226 1.218876
v 0.402479 0.926365 1.177864
v 0.402479 1.350176 0.739957
v 0.402479 1.222270 0.952007
v 0.402479 1.323719 0.790749
v 0.402479 1.290121 0.848883
v 0.402479 1.254497 0.905510
v 0.402479 1.373288 0.692059
v 0.402479 1.459645 0.461084
v 0.402479 1.396239 0.640537
v 0.402479 1.420709 0.578549
v 0.402479 1.442975 0.515534
v 0.402478 1.518425 0.162729
v 0.402478 1.475200 0.404279
v 0.402478 1.511818 0.218888
v 0.402478 1.501284 0.284513
v 0.402478 1.488425 0.349614
v 0.914342 0.508844 1.479327
v 0.914323 0.265766 1.518592
v 0.914335 0.453590 1.494367
v 0.914329 0.387993 1.507110
v 0.914324 0.322038 1.515617
vn 0.5779 -0.5759 -0.5783
vn -0.5785 -0.5754 0.5781
vn -0.5779 -0.5758 -0.5783
vn -0.7138 -0.0188 0.7001
vn 0.5785 -0.5755 0.5781
vn 0.7138 -0.0188 0.7001
vn -0.7045 0.5634 -0.4315
vn 0.7046 0.5768 -0.4134
vn 0.7045 0.5634 -0.4315
vn -0.7115 -0.4639 0.5277
vn -0.7042 0.4862 -0.5175
vn -0.7041 0.4689 -0.5333
vn 0.7120 -0.6985 0.0724
vn -0.7119 -0.6998 0.0600
vn -0.7123 -0.6973 0.0804
vn -0.7007 0.0187 -0.7132
vn 0.7007 0.0187 -0.7132
vn -0.7117 -0.5577 0.4272
vn -0.7046 0.5768 -0.4134
vn -0.7118 -0.6371 0.2956
vn 0.7118 -0.6278 0.3149
vn 0.7118 -0.6371 0.2956
vn 0.7116 -0.2355 0.6620
vn -0.7135 -0.2058 0.6698
vn 0.7135 -0.2058 0.6697
vn -0.7119 -0.6745 0.1957
vn -0.7055 0.6865 -0.1764
vn -0.7052 0.6809 -0.1975
vn 0.7049 0.6340 -0.3180
vn -0.7050 0.6434 -0.2984
vn 0.7050 0.6434 -0.2984
vn 0.7029 0.2338 -0.6718
vn 0.7042 0.4862 -0.5175
vn 0.7041 0.4689 -0.5333
vn 0.7117 -0.5577 0.4272
vn 0.7117 -0.5709 0.4093
vn 0.7119 -0.6745 0.1957
vn 0.7052 0.6865 -0.1771
vn 0.7119 -0.6800 0.1755
vn -0.7116 -0.4811 0.5121
vn 0.7115 -0.4639 0.5277
vn 0.7116 -0.4811 0.5121
vn -0.7122 -0.6796 0.1762
vn -0.7050 0.7079 -0.0440
vn -0.7053 0.7059 -0.0648
vn 0.7052 0.6809 -0.1975
vn -0.7012 0.2047 -0.6830
vn 0.7012 0.2047 -0.6830
vn -0.7120 -0.6985 -0.0725
vn -0.7052 0.7071 0.0525
vn -0.7117 -0.7006 -0.0513
vn -0.7029 0.2338 -0.6718
vn -0.7115 -0.3476 0.6107
vn -0.7036 0.3723 -0.6052
vn -0.7034 0.3512 -0.6180
vn 0.7115 -0.3476 0.6107
vn 0.7036 0.3723 -0.6052
vn 0.7115 -0.3682 0.5985
vn -0.7118 -0.6278 0.3150
vn -0.7049 0.6340 -0.3180
vn -0.7115 -0.3682 0.5985
vn 0.7034 0.3512 -0.6180
vn 0.7057 0.7067 -0.0510
vn 0.7122 -0.7001 0.0525
vn 0.7054 0.7051 -0.0724
vn 0.7053 0.7044 0.0800
vn -0.7054 0.7051 0.0724
vn 0.7135 -0.2058 -0.6697
vn 0.7029 0.2338 0.6718
vn 0.7012 0.2047 0.6830
vn -0.7135 -0.2058 -0.6697
vn -0.7029 0.2338 0.6718
vn -0.7116 -0.2355 -0.6620
vn 0.7075 0.0003 -0.7067
vn -0.7138 -0.0188 -0.7001
vn 0.7138 -0.0188 -0.7001
vn 0.7046 0.5768 0.4134
vn -0.7045 0.5634 0.4315
vn 0.7045 0.5634 0.4315
vn -0.7119 -0.6745 -0.1956
vn 0.7117 -0.6804 -0.1748
vn 0.7119 -0.6745 -0.1956
vn -0.7118 -0.6278 -0.3149
vn 0.7118 -0.6371 -0.2956
vn 0.7118 -0.6278 -0.3149
vn 0.7050 0.6434 0.2984
vn 0.7049 0.6340 0.3180
vn -0.7012 0.2047 0.6830
vn 0.7115 -0.3476 -0.6107
vn 0.7036 0.3724 0.6052
vn 0.7034 0.3512 0.6180
vn -0.7115 -0.4640 -0.5277
vn -0.7042 0.4862 0.5175
vn -0.7116 -0.4811 -0.5121
vn 0.7050 0.6866 0.1777
vn 0.7052 0.6809 0.1974
vn -0.7052 0.6865 0.1770
vn -0.7119 -0.6800 -0.1754
vn -0.7115 -0.3683 -0.5985
vn 0.7115 -0.3683 -0.5985
vn -0.7067 -0.0003 0.7075
vn -0.7007 0.0187 0.7132
vn -0.7117 -0.5577 -0.4272
vn 0.7117 -0.5709 -0.4093
vn 0.7117 -0.5577 -0.4272
vn 0.7116 -0.6997 -0.0645
vn 0.7120 -0.7008 -0.0438
vn 0.7041 0.4689 0.5333
vn -0.7041 0.4689 0.5333
vn -0.7115 -0.3476 -0.6107
vn -0.7036 0.3724 0.6052
vn -0.7052 0.6809 0.1974
vn -0.7046 0.5768 0.4134
vn -0.7117 -0.5709 -0.4093
vn -0.7034 0.3512 0.6180
vn 0.7115 -0.4640 -0.5277
vn 0.7042 0.4862 0.5175
vn -0.7049 0.6340 0.3180
vn 0.7116 -0.4811 -0.5121
vn 0.7116 -0.2355 -0.6620
vn 0.7007 0.0187 0.7132
vn 0.7067 -0.0003 0.7075
vn 0.7058 0.7059 0.0594
vn -0.7050 0.6434 0.2984
vn -0.7118 -0.6371 -0.2956
vn -0.7042 0.6940 -0.1501
vn 0.7039 0.6938 -0.1524
vn -0.7048 0.6990 -0.1209
vn 0.7046 0.6985 -0.1250
vn -0.7041 0.7041 -0.0919
vn 0.7040 0.7035 -0.0978
vn -0.7133 -0.6656 0.2195
vn -0.7038 0.6747 -0.2224
vn -0.7126 -0.6571 0.2458
vn -0.7044 0.6648 -0.2486
vn -0.7133 -0.6462 0.2714
vn -0.7037 0.6551 -0.2751
vn 0.7032 0.5932 -0.3919
vn 0.7132 -0.5848 0.3864
vn 0.7041 0.6081 -0.3668
vn 0.7125 -0.6008 0.3625
vn 0.7034 0.6230 -0.3421
vn 0.7133 -0.6144 0.3374
vn 0.7131 -0.4413 0.5447
vn 0.7024 0.4481 -0.5530
vn 0.7123 -0.4175 0.5642
vn 0.7031 0.4230 -0.5716
vn 0.7131 -0.3916 0.5815
vn 0.7022 0.3977 -0.5906
vn -0.7162 -0.1620 0.6788
vn -0.6986 0.1622 -0.6969
vn -0.7150 -0.1141 0.6898
vn -0.6996 0.1138 -0.7054
vn -0.7164 -0.0646 0.6947
vn -0.6983 0.0647 -0.7129
vn 0.7132 -0.3210 0.6232
vn -0.7124 -0.2926 0.6379
vn 0.7124 -0.2926 0.6379
vn 0.7133 -0.2627 0.6498
vn -0.7116 -0.2355 0.6620
vn 0.7132 -0.5396 0.4474
vn -0.7132 -0.5396 0.4474
vn 0.7124 -0.5209 0.4704
vn -0.7124 -0.5209 0.4704
vn 0.7131 -0.4998 0.4916
vn 0.7134 -0.6941 0.0970
vn -0.7137 -0.6928 0.1033
vn 0.7126 -0.6905 0.1240
vn -0.7129 -0.6894 0.1283
vn 0.7133 -0.6844 0.1506
vn -0.7137 -0.6836 0.1530
vn -0.7036 0.6551 0.2751
vn -0.7133 -0.6462 -0.2714
vn -0.7044 0.6648 0.2486
vn -0.7126 -0.6571 -0.2458
vn -0.7038 0.6747 0.2224
vn -0.7133 -0.6656 -0.2194
vn -0.7030 0.5475 0.4539
vn 0.7030 0.5475 0.4539
vn -0.7036 0.5274 0.4762
vn 0.7036 0.5274 0.4762
vn 0.7027 0.5073 0.4988
vn -0.7027 0.5073 0.4988
vn 0.7022 0.3977 0.5906
vn 0.7131 -0.3916 -0.5815
vn 0.7031 0.4230 0.5716
vn 0.7123 -0.4175 -0.5642
vn 0.7024 0.4481 0.5530
vn 0.7131 -0.4414 -0.5447
vn -0.7030 0.5476 -0.4539
vn 0.7030 0.5475 -0.4539
vn -0.7036 0.5274 -0.4762
vn 0.7036 0.5274 -0.4762
vn -0.7027 0.5073 -0.4988
vn 0.7027 0.5073 -0.4988
vn -0.7131 -0.3916 0.5815
vn -0.7123 -0.4175 0.5642
vn -0.7131 -0.4413 0.5447
vn 0.7133 -0.6656 0.2195
vn 0.7126 -0.6571 0.2458
vn 0.7133 -0.6462 0.2714
vn -0.7132 -0.7001 0.0332
vn -0.7036 0.7103 -0.0210
vn -0.7125 -0.7016 0.0042
vn -0.7044 0.7098 0.0042
vn -0.7037 0.7099 0.0294
vn -0.7131 -0.7006 -0.0246
vn 0.7038 0.6747 -0.2224
vn 0.7044 0.6648 -0.2486
vn 0.7037 0.6551 -0.2751
vn -0.7024 0.4481 -0.5530
vn -0.7031 0.4230 -0.5716
vn -0.7022 0.3977 -0.5906
vn -0.7117 -0.5709 0.4093
vn -0.7032 0.5932 -0.3919
vn -0.7132 -0.5848 0.3864
vn -0.7041 0.6081 -0.3668
vn -0.7125 -0.6008 0.3625
vn -0.7034 0.6230 -0.3421
vn -0.7133 -0.6144 0.3374
vn -0.7016 0.3250 -0.6342
vn 0.7016 0.3250 -0.6342
vn -0.7023 0.2944 -0.6482
vn 0.7023 0.2944 -0.6482
vn -0.7013 0.2637 -0.6623
vn 0.7013 0.2637 -0.6623
vn 0.6986 0.1622 -0.6969
vn 0.6996 0.1138 -0.7054
vn -0.7131 -0.4998 0.4916
vn -0.7133 -0.2627 0.6498
vn -0.7132 -0.3210 0.6232
vn 0.7136 -0.6999 0.0294
vn 0.7045 0.7093 -0.0245
vn 0.7128 -0.7014 0.0042
vn 0.7045 0.7089 0.0329
vn 0.7134 -0.7004 -0.0207
vn 0.7162 -0.1620 0.6788
vn 0.7150 -0.1141 0.6898
vn 0.7164 -0.0646 0.6947
vn 0.6983 0.0647 -0.7129
vn 0.7052 0.7090 0.0042
vn -0.7022 0.3977 0.5906
vn -0.7031 0.4230 0.5716
vn -0.7024 0.4481 0.5530
vn -0.7013 0.2637 0.6623
vn 0.7023 0.2944 0.6482
vn -0.7023 0.2944 0.6482
vn -0.7016 0.3250 0.6342
vn 0.7016 0.3250 0.6342
vn 0.7034 0.6230 0.3421
vn -0.7034 0.6230 0.3421
vn 0.7041 0.6081 0.3668
vn -0.7041 0.6081 0.3668
vn 0.7032 0.5932 0.3919
vn -0.7032 0.5932 0.3919
vn 0.7038 0.7028 0.1036
vn -0.7040 0.7035 0.0978
vn 0.7044 0.6979 0.1291
vn -0.7046 0.6985 0.1250
vn 0.7036 0.6935 0.1547
vn -0.7039 0.6938 0.1524
vn 0.7037 0.6551 0.2751
vn 0.7133 -0.6462 -0.2714
vn 0.7044 0.6648 0.2486
vn 0.7126 -0.6571 -0.2458
vn 0.7038 0.6747 0.2224
vn 0.7133 -0.6656 -0.2194
vn -0.7131 -0.3916 -0.5815
vn -0.7131 -0.4414 -0.5447
vn -0.7131 -0.4998 -0.4916
vn -0.7124 -0.5209 -0.4703
vn -0.7132 -0.5396 -0.4474
vn 0.7162 -0.1620 -0.6788
vn 0.6986 0.1622 0.6969
vn 0.7150 -0.1141 -0.6898
vn 0.6996 0.1138 0.7054
vn 0.7164 -0.0646 -0.6947
vn 0.6983 0.0647 0.7129
vn -0.7164 -0.0646 -0.6947
vn -0.7150 -0.1141 -0.6898
vn -0.7162 -0.1620 -0.6788
vn 0.7132 -0.5848 -0.3864
vn -0.7132 -0.5848 -0.3864
vn 0.7125 -0.6008 -0.3625
vn -0.7125 -0.6008 -0.3625
vn 0.7133 -0.6144 -0.3374
vn -0.6983 0.0647 0.7129
vn -0.6996 0.1138 0.7054
vn -0.6986 0.1622 0.6969
vn 0.7130 -0.6853 -0.1482
vn 0.7123 -0.6916 -0.1197
vn 0.7129 -0.6953 -0.0908
vn 0.7131 -0.4998 -0.4916
vn 0.7124 -0.5209 -0.4704
vn 0.7132 -0.5396 -0.4474
vn -0.7132 -0.3210 -0.6232
vn 0.7132 -0.3210 -0.6232
vn -0.7124 -0.2926 -0.6379
vn 0.7124 -0.2926 -0.6379
vn -0.7133 -0.2628 -0.6498
vn 0.7133 -0.2628 -0.6498
vn -0.7133 -0.6844 -0.1506
vn -0.7126 -0.6905 -0.1240
vn -0.7133 -0.6940 -0.0971
vn -0.7133 -0.6144 -0.3374
vn -0.7123 -0.4175 -0.5642
vn 0.7013 0.2637 0.6623
vn -0.7075 0.0003 -0.7067
vt 0.644553 0.117214
vt 0.651390 0.152976
vt 0.644553 0.152971
vt 0.799059 0.844733
vt 0.506370 0.809027
vt 0.799059 0.809027
vt 0.720317 0.255225
vt 0.629728 0.533574
vt 0.623279 0.531301
vt 0.477730 0.025727
vt 0.481644 0.061433
vt 0.477730 0.061433
vt 0.714583 0.179933
vt 0.719515 0.175592
vt 0.721052 0.179216
vt 0.187178 0.278701
vt 0.182574 0.243140
vt 0.187178 0.243100
vt 0.911657 0.358352
vt 0.875963 0.065663
vt 0.911657 0.065663
vt 0.701809 0.155958
vt 0.705259 0.150400
vt 0.707828 0.154185
vt 0.237988 0.242995
vt 0.241491 0.278701
vt 0.237988 0.278701
vt 0.824623 0.809027
vt 0.822918 0.844733
vt 0.822918 0.809027
vt 0.663038 0.116122
vt 0.662615 0.109053
vt 0.667397 0.112362
vt 0.503600 0.061433
vt 0.508509 0.025727
vt 0.508509 0.061433
vt 0.680437 0.305822
vt 0.687052 0.307299
vt 0.680460 0.307621
vt 0.455274 0.025727
vt 0.458181 0.061433
vt 0.455274 0.061433
vt 0.640366 0.402799
vt 0.641986 0.409310
vt 0.637625 0.405549
vt 0.657762 0.381266
vt 0.661212 0.386824
vt 0.655894 0.384019
vt 0.618990 0.421102
vt 0.618567 0.428171
vt 0.615388 0.423594
vt 0.870248 0.844733
vt 0.868187 0.809027
vt 0.870248 0.809027
vt 0.210988 0.242995
vt 0.215218 0.278701
vt 0.210988 0.278701
vt 0.638422 0.101714
vt 0.636066 0.094641
vt 0.641594 0.097149
vt 0.670536 0.357291
vt 0.675467 0.361632
vt 0.669447 0.359859
vt 0.531954 0.025727
vt 0.537686 0.061433
vt 0.531954 0.061433
vt 0.875961 0.041809
vt 0.911659 0.038218
vt 0.911658 0.041809
vt 0.239904 0.601962
vt 0.232801 0.599538
vt 0.237986 0.597749
vt 0.724484 0.231402
vt 0.731099 0.229925
vt 0.731024 0.233706
vt 0.722246 0.205471
vt 0.728256 0.202458
vt 0.728926 0.205797
vt 0.678199 0.331753
vt 0.684209 0.334766
vt 0.677738 0.334048
vt 0.684414 0.134425
vt 0.686034 0.127914
vt 0.689730 0.131621
vt 0.848651 0.844733
vt 0.846639 0.809027
vt 0.848651 0.809027
vt 0.875958 0.016192
vt 0.911662 0.013267
vt 0.911661 0.016192
vt 0.594375 0.435509
vt 0.592018 0.442583
vt 0.590174 0.437420
vt 0.676271 0.281999
vt 0.585683 0.003650
vt 0.682720 0.279726
vt 0.561787 0.061433
vt 0.567866 0.025877
vt 0.567866 0.061433
vt 0.619368 0.357522
vt 0.625422 0.392828
vt 0.619368 0.392828
vt 0.443851 0.733763
vt 0.445329 0.740378
vt 0.441547 0.740302
vt 0.369575 0.688017
vt 0.368097 0.694632
vt 0.367776 0.688040
vt 0.835039 0.260148
vt 0.870245 0.552836
vt 0.835039 0.552836
vt 0.544507 0.357622
vt 0.541085 0.392828
vt 0.541085 0.357622
vt 0.396985 0.427126
vt 0.392774 0.391920
vt 0.396985 0.391920
vt 0.423259 0.427126
vt 0.419756 0.391920
vt 0.423259 0.391920
vt 0.540827 0.693685
vt 0.547338 0.695305
vt 0.543631 0.699001
vt 0.794125 0.337250
vt 0.829322 0.333657
vt 0.829322 0.337250
vt 0.469782 0.731522
vt 0.472796 0.737532
vt 0.469456 0.738202
vt 0.318106 0.678111
vt 0.313764 0.683043
vt 0.315538 0.677022
vt 0.559128 0.672306
vt 0.566186 0.671898
vt 0.562888 0.676666
vt 0.254299 0.626561
vt 0.247240 0.626152
vt 0.251818 0.622975
vt 0.835039 0.600431
vt 0.870245 0.602445
vt 0.835039 0.602445
vt 0.393399 0.683852
vt 0.671753 0.593278
vt 0.395672 0.690301
vt 0.446841 0.427126
vt 0.444163 0.391920
vt 0.446841 0.391920
vt 0.368964 0.391815
vt 0.364347 0.427126
vt 0.364347 0.391775
vt 0.794120 0.289165
vt 0.829326 0.286257
vt 0.829326 0.289165
vt 0.343644 0.685776
vt 0.340631 0.691786
vt 0.341349 0.685316
vt 0.590597 0.357622
vt 0.596036 0.392828
vt 0.590597 0.392828
vt 0.294131 0.665336
vt 0.288573 0.668786
vt 0.291379 0.663468
vt 0.794121 0.308693
vt 0.829325 0.311621
vt 0.794122 0.311621
vt 0.495320 0.723857
vt 0.499662 0.728788
vt 0.496038 0.730326
vt 0.568687 0.357622
vt 0.564190 0.392828
vt 0.564190 0.357622
vt 0.519295 0.711082
vt 0.524853 0.714531
vt 0.521068 0.717100
vt 0.835039 0.621996
vt 0.870245 0.624059
vt 0.835039 0.624059
vt 0.870245 0.576700
vt 0.835039 0.578405
vt 0.835039 0.576700
vt 0.794126 0.361108
vt 0.829320 0.653797
vt 0.794126 0.653797
vt 0.573523 0.647708
vt 0.580626 0.645283
vt 0.578088 0.650876
vt 0.272600 0.647939
vt 0.266089 0.649559
vt 0.269850 0.645198
vt 0.420028 0.729598
vt 0.141674 0.639023
vt 0.143947 0.632574
vt 0.543142 0.025735
vt 0.543142 0.061433
vt 0.549593 0.025756
vt 0.549593 0.061433
vt 0.556215 0.025789
vt 0.556215 0.061433
vt 0.561787 0.025827
vt 0.667550 0.119447
vt 0.671911 0.115687
vt 0.673131 0.123107
vt 0.677002 0.119769
vt 0.677635 0.127865
vt 0.681996 0.124104
vt 0.681672 0.131675
vt 0.657942 0.391329
vt 0.652625 0.388524
vt 0.653810 0.396543
vt 0.649086 0.394051
vt 0.649538 0.401492
vt 0.644221 0.398688
vt 0.645682 0.405603
vt 0.677005 0.358009
vt 0.672562 0.352038
vt 0.679031 0.352756
vt 0.675356 0.345927
vt 0.681104 0.346564
vt 0.676460 0.339459
vt 0.682930 0.340177
vt 0.724119 0.237022
vt 0.730624 0.239314
vt 0.724327 0.243819
vt 0.729706 0.245715
vt 0.721864 0.249915
vt 0.728320 0.252191
vt 0.846639 0.844733
vt 0.841826 0.809027
vt 0.836086 0.844733
vt 0.836086 0.809027
vt 0.829875 0.809027
vt 0.824623 0.844733
vt 0.265072 0.242995
vt 0.269614 0.278701
vt 0.265072 0.278701
vt 0.269614 0.242995
vt 0.275036 0.278701
vt 0.879210 0.844733
vt 0.874361 0.809027
vt 0.879210 0.809027
vt 0.192727 0.278701
vt 0.192727 0.243060
vt 0.199322 0.278701
vt 0.199322 0.243026
vt 0.205642 0.278701
vt 0.205642 0.243003
vt 0.262278 0.645521
vt 0.266040 0.641160
vt 0.257944 0.640526
vt 0.261282 0.636656
vt 0.253863 0.635434
vt 0.257623 0.631074
vt 0.250539 0.630921
vt 0.536864 0.392828
vt 0.536864 0.357622
vt 0.531826 0.392828
vt 0.531826 0.357622
vt 0.829326 0.277299
vt 0.794120 0.282147
vt 0.794120 0.277299
vt 0.829326 0.282146
vt 0.794120 0.286257
vt 0.472077 0.731061
vt 0.478206 0.736252
vt 0.477488 0.729782
vt 0.484594 0.734426
vt 0.483956 0.728678
vt 0.490785 0.732353
vt 0.490067 0.725883
vt 0.643419 0.104167
vt 0.646593 0.099598
vt 0.649504 0.106756
vt 0.652319 0.102703
vt 0.654791 0.110615
vt 0.657970 0.106040
vt 0.659436 0.113629
vt 0.472903 0.025727
vt 0.472903 0.061433
vt 0.467140 0.025727
vt 0.467140 0.061433
vt 0.462293 0.025727
vt 0.462293 0.061433
vt 0.458181 0.025727
vt 0.853428 0.809027
vt 0.853428 0.844733
vt 0.859066 0.844733
vt 0.864029 0.809027
vt 0.864029 0.844733
vt 0.868187 0.844733
vt 0.215218 0.242995
vt 0.220630 0.278701
vt 0.220630 0.242995
vt 0.227073 0.278701
vt 0.227073 0.242995
vt 0.232982 0.278701
vt 0.232982 0.242995
vt 0.629116 0.097658
vt 0.630959 0.092499
vt 0.623211 0.094794
vt 0.624843 0.090225
vt 0.232972 0.586735
vt 0.230659 0.594429
vt 0.228385 0.588317
vt 0.235839 0.592642
vt 0.526430 0.025727
vt 0.526430 0.061433
vt 0.519854 0.025727
vt 0.519854 0.061433
vt 0.513712 0.025727
vt 0.513712 0.061433
vt 0.451118 0.025727
vt 0.451118 0.061433
vt 0.446157 0.025727
vt 0.875957 0.002861
vt 0.911662 0.008494
vt 0.875957 0.008494
vt 0.875958 0.013267
vt 0.699942 0.153205
vt 0.701990 0.145895
vt 0.696673 0.148700
vt 0.697857 0.140681
vt 0.693134 0.143173
vt 0.693585 0.135732
vt 0.688269 0.138536
vt 0.597546 0.440075
vt 0.599371 0.433057
vt 0.602545 0.437626
vt 0.605456 0.430468
vt 0.608272 0.434521
vt 0.610744 0.426609
vt 0.613922 0.431184
vt 0.673126 0.366685
vt 0.667105 0.364912
vt 0.670061 0.372602
vt 0.664711 0.371026
vt 0.666801 0.378271
vt 0.660781 0.376497
vt 0.663780 0.383039
vt 0.481644 0.025727
vt 0.486405 0.061433
vt 0.486405 0.025727
vt 0.492018 0.061433
vt 0.492018 0.025727
vt 0.498318 0.061433
vt 0.498318 0.025727
vt 0.875959 0.020998
vt 0.911661 0.020998
vt 0.875960 0.026735
vt 0.911660 0.026735
vt 0.875960 0.032958
vt 0.911659 0.032958
vt 0.875961 0.038218
vt 0.875962 0.047140
vt 0.911658 0.047140
vt 0.875963 0.053571
vt 0.911657 0.053571
vt 0.875963 0.060140
vt 0.713494 0.177365
vt 0.717173 0.170539
vt 0.711153 0.172312
vt 0.714108 0.164622
vt 0.708758 0.166198
vt 0.710848 0.158953
vt 0.704829 0.160727
vt 0.716609 0.185186
vt 0.723078 0.184469
vt 0.719403 0.191298
vt 0.725151 0.190660
vt 0.720507 0.197765
vt 0.726977 0.197048
vt 0.721786 0.203176
vt 0.724507 0.229603
vt 0.731008 0.224381
vt 0.724382 0.224058
vt 0.730566 0.217795
vt 0.724660 0.217507
vt 0.729832 0.211324
vt 0.723158 0.210998
vt 0.585068 0.439565
vt 0.586911 0.444724
vt 0.579163 0.442430
vt 0.580455 0.632480
vt 0.582768 0.640175
vt 0.577588 0.638388
vt 0.575441 0.643495
vt 0.686961 0.312843
vt 0.680335 0.313166
vt 0.686519 0.319429
vt 0.680613 0.319717
vt 0.685785 0.325901
vt 0.679111 0.326226
vt 0.684879 0.331427
vt 0.358823 0.427134
vt 0.358823 0.391735
vt 0.352274 0.427126
vt 0.352274 0.391701
vt 0.170507 0.243245
vt 0.177051 0.278693
vt 0.170507 0.278670
vt 0.177051 0.243180
vt 0.182574 0.278701
vt 0.686976 0.303518
vt 0.680072 0.300202
vt 0.686576 0.297910
vt 0.680280 0.293405
vt 0.685659 0.291509
vt 0.677817 0.287309
vt 0.684273 0.285034
vt 0.623350 0.424862
vt 0.623502 0.417777
vt 0.627863 0.421537
vt 0.629083 0.414117
vt 0.632954 0.417455
vt 0.633588 0.409359
vt 0.637949 0.413120
vt 0.817589 0.809027
vt 0.811152 0.844733
vt 0.811152 0.809027
vt 0.804582 0.809027
vt 0.804582 0.844733
vt 0.241491 0.242995
vt 0.246572 0.278701
vt 0.252633 0.242995
vt 0.252633 0.278701
vt 0.257915 0.278701
vt 0.262394 0.242995
vt 0.262394 0.278701
vt 0.573410 0.025915
vt 0.573410 0.061425
vt 0.579978 0.025977
vt 0.579978 0.061404
vt 0.637349 0.392828
vt 0.630880 0.357434
vt 0.637349 0.357401
vt 0.630880 0.392836
vt 0.625422 0.357472
vt 0.829326 0.303918
vt 0.829325 0.308693
vt 0.794121 0.303918
vt 0.829326 0.298281
vt 0.794120 0.298281
vt 0.829326 0.293320
vt 0.794120 0.293320
vt 0.794124 0.333657
vt 0.829323 0.328395
vt 0.794123 0.322170
vt 0.829323 0.322170
vt 0.829324 0.316430
vt 0.794122 0.316430
vt 0.559350 0.357622
vt 0.559350 0.392828
vt 0.553577 0.357622
vt 0.553577 0.392828
vt 0.548669 0.357622
vt 0.548669 0.392828
vt 0.613884 0.357561
vt 0.613884 0.392828
vt 0.607367 0.357622
vt 0.607367 0.392828
vt 0.601228 0.357615
vt 0.601228 0.392828
vt 0.596036 0.357622
vt 0.543576 0.690943
vt 0.551148 0.691267
vt 0.547387 0.686906
vt 0.555483 0.686272
vt 0.552145 0.682401
vt 0.559564 0.681180
vt 0.555803 0.676820
vt 0.870245 0.607225
vt 0.835039 0.607225
vt 0.835039 0.612866
vt 0.870245 0.617834
vt 0.835039 0.617834
vt 0.870245 0.621996
vt 0.308712 0.680701
vt 0.310485 0.674680
vt 0.302795 0.677635
vt 0.304371 0.672285
vt 0.297127 0.674375
vt 0.298900 0.668356
vt 0.292358 0.671354
vt 0.438231 0.733398
vt 0.435939 0.739903
vt 0.431434 0.733606
vt 0.429538 0.738985
vt 0.425338 0.731144
vt 0.423063 0.737600
vt 0.835039 0.558359
vt 0.870245 0.558359
vt 0.835039 0.564929
vt 0.870245 0.564929
vt 0.835039 0.571369
vt 0.870245 0.571369
vt 0.444163 0.427126
vt 0.439684 0.391920
vt 0.439684 0.427126
vt 0.434402 0.391920
vt 0.434402 0.427126
vt 0.428341 0.391920
vt 0.390364 0.691854
vt 0.388088 0.685398
vt 0.383888 0.693240
vt 0.381992 0.687861
vt 0.377488 0.694157
vt 0.375195 0.687652
vt 0.371879 0.694556
vt 0.585341 0.357622
vt 0.585341 0.392828
vt 0.579082 0.357622
vt 0.579082 0.392828
vt 0.573455 0.357622
vt 0.573455 0.392828
vt 0.829321 0.342583
vt 0.794125 0.342583
vt 0.794126 0.349015
vt 0.829320 0.349015
vt 0.794126 0.355585
vt 0.829320 0.355585
vt 0.561608 0.668721
vt 0.569198 0.667252
vt 0.564621 0.664076
vt 0.572535 0.661602
vt 0.568479 0.658787
vt 0.575640 0.655875
vt 0.571070 0.652704
vt 0.497888 0.722768
vt 0.504715 0.726446
vt 0.502941 0.720426
vt 0.510631 0.723381
vt 0.509055 0.718031
vt 0.516300 0.720121
vt 0.514526 0.714101
vt 0.402397 0.391920
vt 0.402397 0.427126
vt 0.408841 0.391920
vt 0.408841 0.427126
vt 0.414750 0.427126
vt 0.414750 0.391920
vt 0.419756 0.427126
vt 0.870245 0.595616
vt 0.870245 0.600431
vt 0.835039 0.595616
vt 0.870245 0.589872
vt 0.835039 0.589872
vt 0.870245 0.583659
vt 0.835039 0.583659
vt 0.870245 0.578405
vt 0.835039 0.628175
vt 0.870245 0.628175
vt 0.835039 0.633030
vt 0.456806 0.427126
vt 0.451384 0.391920
vt 0.456806 0.391920
vt 0.451384 0.427126
vt 0.387428 0.427126
vt 0.387428 0.391912
vt 0.381107 0.427126
vt 0.381107 0.391920
vt 0.374513 0.427126
vt 0.374513 0.391855
vt 0.368964 0.427126
vt 0.269795 0.653255
vt 0.276711 0.651795
vt 0.273906 0.657111
vt 0.281347 0.656660
vt 0.278855 0.661383
vt 0.286874 0.660199
vt 0.284069 0.665516
vt 0.244228 0.621507
vt 0.248805 0.618330
vt 0.240892 0.615856
vt 0.244947 0.613041
vt 0.237787 0.610130
vt 0.242357 0.606958
vt 0.235339 0.605130
vt 0.335220 0.690507
vt 0.335938 0.684036
vt 0.328832 0.688680
vt 0.329470 0.682932
vt 0.322641 0.686607
vt 0.323359 0.680138
vt 0.317388 0.684580
vt 0.362554 0.694540
vt 0.362231 0.687914
vt 0.355967 0.694097
vt 0.355680 0.688192
vt 0.349496 0.693363
vt 0.349171 0.686689
vt 0.343970 0.692457
vt 0.536716 0.697540
vt 0.539520 0.702856
vt 0.532079 0.702406
vt 0.534572 0.707129
vt 0.526552 0.705945
vt 0.529358 0.711262
vt 0.522047 0.709214
vt 0.445650 0.733785
vt 0.450873 0.740286
vt 0.451195 0.733660
vt 0.457459 0.739843
vt 0.457747 0.733937
vt 0.463930 0.739109
vt 0.464256 0.732435
vt 0.651390 0.117209
vt 0.506370 0.844733
vt 0.726767 0.257498
vt 0.875963 0.358352
vt 0.503600 0.025727
vt 0.634221 0.099803
vt 0.537686 0.025727
vt 0.579234 0.005923
vt 0.870245 0.260148
vt 0.544507 0.392828
vt 0.392774 0.427126
vt 0.669480 0.586829
vt 0.568687 0.392828
vt 0.829320 0.361108
vt 0.417755 0.736047
vt 0.841826 0.844733
vt 0.829875 0.844733
vt 0.275036 0.242995
vt 0.874361 0.844733
vt 0.859066 0.809027
vt 0.446157 0.061433
vt 0.911663 0.002861
vt 0.911657 0.060140
vt 0.580796 0.446999
vt 0.585042 0.634062
vt 0.817589 0.844733
vt 0.246572 0.242995
vt 0.257915 0.242995
vt 0.794124 0.328395
vt 0.870245 0.612866
vt 0.428341 0.427126
vt 0.870245 0.633030
s 1
g off
g Jamb.001_
usemtl 
f 73/214/34 74/215/35 76/216/36
f 191/217/37 75/218/38 167/219/39
f 191/220/37 76/221/36 74/222/35
f 222/223/40 126/224/41 96/225/42
f 201/226/43 221/227/44 112/228/45
f 132/229/46 206/230/47 146/231/48
f 73/232/34 117/233/49 187/234/50
f 101/235/51 152/236/52 222/237/40
f 106/238/53 171/239/54 216/240/55
f 136/241/56 192/242/57 166/243/58
f 107/244/59 156/245/60 176/246/61
f 127/247/62 177/248/63 212/249/64
f 166/250/58 162/251/65 136/252/56
f 112/253/45 97/254/66 122/255/67
f 171/256/54 212/257/64 216/258/55
f 142/259/68 126/260/41 172/261/69
f 217/262/70 182/263/71 131/264/72
f 102/265/73 91/266/74 141/267/75
f 147/268/76 217/269/70 131/270/72
f 146/271/48 227/272/77 157/273/78
f 91/274/74 97/275/66 141/276/75
f 176/277/61 182/278/71 211/279/79
f 116/280/80 162/281/65 186/282/81
f 347/283/82 226/284/83 207/285/84
f 192/286/57 196/287/85 116/288/80
f 86/289/86 111/290/87 197/291/88
f 137/292/89 121/293/90 92/294/91
f 82/295/92 177/296/63 151/297/93
f 202/298/94 137/299/89 92/300/91
f 197/301/88 121/302/90 161/303/95
f 132/304/46 256/305/96 302/306/97
f 167/307/39 73/308/34 187/309/50
f 181/310/98 227/311/77 256/312/96
f 292/313/99 226/314/83 371/315/100
f 297/316/101 321/317/102 376/318/103
f 327/319/104 267/320/105 341/321/106
f 77/322/107 326/323/108 296/324/109
f 271/325/110 246/326/111 352/327/112
f 331/328/113 286/329/114 237/330/115
f 242/331/116 236/332/117 311/333/118
f 311/334/118 232/335/119 272/336/120
f 376/337/103 267/338/105 317/339/121
f 251/340/122 277/341/123 322/342/124
f 357/343/125 247/344/126 337/345/127
f 237/346/115 291/347/128 231/348/129
f 331/349/113 372/350/130 346/351/131
f 251/352/122 356/353/132 281/354/133
f 326/355/108 79/356/134 316/357/135
f 336/358/136 312/359/137 307/360/138
f 287/361/139 207/362/84 301/363/140
f 276/364/141 247/365/126 261/366/142
f 342/367/143 262/368/144 356/369/132
f 231/370/129 372/371/130 367/372/145
f 336/373/136 362/374/146 241/375/147
f 277/376/123 266/377/148 322/378/124
f 282/379/149 351/380/150 276/381/141
f 232/382/119 361/383/151 272/384/120
f 307/385/138 271/386/110 352/387/112
f 282/388/149 337/389/127 306/390/152
f 327/391/104 252/392/153 297/393/101
f 377/394/154 79/395/134 80/396/155
f 287/397/139 257/398/156 292/399/99
f 242/400/116 366/401/157 332/402/158
f 296/403/109 80/404/155 77/405/107
f 182/278/71 158/406/159 185/407/160
f 185/407/160 159/408/161 184/409/162
f 184/409/162 160/410/163 183/411/164
f 183/411/164 157/412/78 181/310/98
f 176/246/61 110/413/165 107/244/59
f 178/414/166 109/415/167 110/413/165
f 179/416/168 108/417/169 109/415/167
f 180/418/170 106/419/53 108/417/169
f 172/261/69 128/420/171 175/421/172
f 175/421/172 129/422/173 174/423/174
f 174/423/174 130/424/175 173/425/176
f 173/425/176 127/426/62 171/256/54
f 122/427/67 93/428/177 125/429/178
f 125/429/178 94/430/179 124/431/180
f 124/431/180 95/432/181 123/433/182
f 123/433/182 92/294/91 121/293/90
f 116/288/80 195/434/183 192/286/57
f 118/435/184 194/436/185 195/434/183
f 119/437/186 193/438/187 194/436/185
f 120/439/188 191/220/37 193/438/187
f 86/440/86 140/441/189 137/299/89
f 140/441/189 89/442/190 139/443/191
f 89/442/190 138/444/192 139/443/191
f 138/444/192 87/445/193 136/241/56
f 101/446/51 145/447/194 142/448/68
f 103/449/195 144/450/196 145/447/194
f 104/451/197 143/452/198 144/453/196
f 143/452/198 102/265/73 141/267/75
f 146/231/48 135/454/199 132/229/46
f 148/455/200 134/456/201 135/454/199
f 149/457/202 133/458/203 134/456/201
f 150/459/204 131/270/72 133/458/203
f 332/402/158 368/460/205 335/461/206
f 335/461/206 369/462/207 334/463/208
f 334/463/208 370/464/209 333/465/210
f 333/465/210 367/466/145 331/349/113
f 352/327/112 248/467/211 355/468/212
f 355/468/212 249/469/213 354/470/214
f 249/471/213 353/472/215 354/473/214
f 250/474/216 351/475/150 353/472/215
f 281/476/133 280/477/217 277/341/123
f 283/478/218 279/479/219 280/477/217
f 284/480/220 278/481/221 279/479/219
f 285/482/222 276/381/141 278/481/221
f 157/273/78 148/483/200 146/271/48
f 160/484/163 149/485/202 148/483/200
f 159/486/161 150/487/204 149/485/202
f 158/488/159 147/489/76 150/487/204
f 96/225/42 225/490/223 222/223/40
f 98/491/224 224/492/225 225/490/223
f 99/493/226 223/494/227 224/492/225
f 100/495/228 221/496/44 223/494/227
f 202/298/94 95/497/181 205/498/229
f 95/497/181 204/499/230 205/498/229
f 204/499/230 93/500/177 203/501/231
f 203/501/231 91/266/74 201/502/43
f 107/503/59 220/504/232 217/269/70
f 110/505/165 219/506/233 220/504/232
f 109/507/167 218/508/234 219/506/233
f 108/509/169 216/240/55 218/508/234
f 227/272/77 208/510/235 230/511/236
f 230/511/236 209/512/237 229/513/238
f 209/514/237 228/515/239 229/516/238
f 210/517/240 226/284/83 228/515/239
f 211/279/79 178/518/166 176/277/61
f 213/519/241 179/520/168 178/518/166
f 214/521/242 180/522/170 179/520/168
f 215/523/243 177/248/63 180/522/170
f 122/255/67 115/524/244 112/253/45
f 125/525/178 114/526/245 115/524/244
f 114/527/245 123/528/182 113/529/246
f 123/528/182 111/530/87 113/529/246
f 81/531/247 155/532/248 152/236/52
f 83/533/249 154/534/250 155/532/248
f 84/535/251 153/536/252 154/534/250
f 85/537/253 151/297/93 153/536/252
f 181/538/98 135/539/199 183/540/164
f 183/540/164 134/541/201 184/542/162
f 184/542/162 133/543/203 185/544/160
f 185/544/160 131/264/72 182/263/71
f 141/276/75 100/545/228 143/546/198
f 143/546/198 99/547/226 144/548/196
f 144/548/196 98/549/224 145/550/194
f 145/550/194 96/551/42 142/259/68
f 152/552/52 128/553/171 126/224/41
f 155/554/248 129/555/173 128/553/171
f 154/556/250 130/557/175 129/555/173
f 153/558/252 127/247/62 130/557/175
f 161/303/95 200/559/254 197/301/88
f 163/560/255 199/561/256 200/559/254
f 164/562/257 198/563/258 199/561/256
f 165/564/259 196/565/85 198/563/258
f 186/282/81 118/566/184 116/280/80
f 188/567/260 119/568/186 118/566/184
f 189/569/261 120/570/188 119/568/186
f 120/570/188 187/234/50 117/233/49
f 102/571/73 223/572/227 221/227/44
f 105/573/262 224/574/225 223/572/227
f 104/575/197 225/576/223 224/574/225
f 103/577/195 222/237/40 225/576/223
f 112/228/45 203/578/231 201/226/43
f 115/579/244 204/580/230 203/578/231
f 114/581/245 205/582/229 204/580/230
f 113/583/246 202/584/94 205/582/229
f 87/585/193 198/586/258 196/287/85
f 90/587/263 199/588/256 198/586/258
f 89/589/190 200/590/254 199/588/256
f 88/591/264 197/291/88 200/590/254
f 256/305/96 305/592/265 302/306/97
f 258/593/266 304/594/267 305/592/265
f 304/595/267 260/596/268 303/597/269
f 303/597/269 257/398/156 301/598/140
f 136/252/56 165/599/259 138/600/192
f 138/600/192 164/601/257 139/602/191
f 139/602/191 163/603/255 140/604/189
f 140/604/189 161/605/95 137/292/89
f 301/363/140 210/606/240 303/607/269
f 303/607/269 209/608/237 304/609/267
f 209/610/237 305/611/265 304/612/267
f 208/613/235 302/614/97 305/611/265
f 186/615/81 168/616/270 188/617/260
f 188/617/260 169/618/271 189/619/261
f 189/619/261 170/620/272 190/621/273
f 190/621/273 167/307/39 187/309/50
f 211/622/79 220/623/232 213/624/241
f 213/624/241 219/625/233 214/626/242
f 214/626/242 218/627/234 215/628/243
f 215/628/243 216/258/55 212/257/64
f 192/242/57 168/629/270 166/243/58
f 168/629/270 194/630/185 169/631/271
f 194/630/185 170/632/272 169/631/271
f 193/633/187 167/219/39 170/632/272
f 82/634/92 173/635/176 171/239/54
f 173/635/176 84/636/251 174/637/174
f 84/636/251 175/638/172 174/637/174
f 175/638/172 81/639/247 172/640/69
f 256/312/96 230/641/236 258/642/266
f 258/642/266 229/643/238 259/644/274
f 229/645/238 260/646/268 259/647/274
f 228/648/239 257/649/156 260/646/268
f 277/376/123 265/650/275 262/651/144
f 280/652/217 264/653/276 265/650/275
f 279/654/219 263/655/277 264/653/276
f 278/656/221 261/366/142 263/655/277
f 321/657/102 270/658/278 267/338/105
f 270/658/278 324/659/279 269/660/280
f 324/659/279 268/661/281 269/660/280
f 325/662/282 266/377/148 268/661/281
f 361/383/151 275/663/283 272/384/120
f 363/664/284 274/665/285 275/663/283
f 364/666/286 273/667/287 274/665/285
f 365/668/288 271/325/110 273/667/287
f 371/315/100 295/669/289 292/313/99
f 373/670/290 294/671/291 295/669/289
f 374/672/292 293/673/293 294/671/291
f 375/674/294 291/675/128 293/673/293
f 236/676/117 235/677/295 232/335/119
f 238/678/296 234/679/297 235/677/295
f 239/680/298 233/681/299 234/679/297
f 240/682/300 231/348/129 233/681/299
f 281/354/133 358/683/301 283/684/218
f 358/683/301 284/685/220 283/684/218
f 284/685/220 360/686/302 285/687/222
f 285/687/222 357/688/125 282/388/149
f 337/345/127 250/689/216 340/690/303
f 340/690/303 249/691/213 339/692/304
f 339/692/304 248/693/211 338/694/305
f 338/694/305 246/695/111 336/373/136
f 376/318/103 300/696/306 297/316/101
f 378/697/307 299/698/308 300/696/306
f 379/699/309 298/700/310 299/698/308
f 380/701/311 296/403/109 298/700/310
f 326/323/108 298/702/310 296/324/109
f 328/703/312 299/704/308 298/702/310
f 329/705/313 300/706/306 299/704/308
f 330/707/314 297/393/101 300/706/306
f 241/708/147 315/709/315 312/359/137
f 243/710/316 314/711/317 315/709/315
f 244/712/318 313/713/319 314/711/317
f 313/713/319 242/331/116 311/333/118
f 326/355/108 318/714/320 328/715/312
f 328/715/312 319/716/321 329/717/313
f 329/717/313 320/718/322 330/719/314
f 330/719/314 317/720/121 327/319/104
f 367/372/145 233/721/299 231/370/129
f 370/722/209 234/723/297 233/721/299
f 369/724/207 235/725/295 234/723/297
f 368/726/205 232/382/119 235/725/295
f 376/337/103 320/727/322 378/728/307
f 320/727/322 379/729/309 378/728/307
f 319/730/321 380/731/311 379/729/309
f 318/732/320 377/394/154 380/731/311
f 286/733/114 293/734/293 291/347/128
f 288/735/323 294/736/291 293/734/293
f 289/737/324 295/738/289 294/736/291
f 290/739/325 292/399/99 295/738/289
f 306/740/152 353/741/215 351/380/150
f 308/742/326 354/743/214 353/741/215
f 309/744/327 355/745/212 354/743/214
f 310/746/328 352/387/112 355/745/212
f 331/328/113 240/747/300 333/748/210
f 333/748/210 239/749/298 334/750/208
f 239/749/298 335/751/206 334/750/208
f 238/752/296 332/753/158 335/751/206
f 251/352/122 345/754/329 342/755/143
f 253/756/330 344/757/331 345/754/329
f 254/758/332 343/759/333 344/757/331
f 255/760/334 341/761/106 343/759/333
f 337/389/127 308/762/326 306/390/152
f 340/763/303 309/764/327 308/762/326
f 339/765/304 310/766/328 309/767/327
f 338/768/305 307/360/138 310/766/328
f 286/329/114 348/769/335 288/770/323
f 288/770/323 349/771/336 289/772/324
f 289/772/324 350/773/337 290/774/325
f 290/774/325 347/775/82 287/361/139
f 361/776/151 245/777/338 363/778/284
f 363/778/284 244/779/318 364/780/286
f 364/780/286 243/781/316 365/782/288
f 365/782/288 241/375/147 362/374/146
f 346/351/131 375/783/294 348/784/335
f 348/784/335 374/785/292 349/786/336
f 349/786/336 373/787/290 350/788/337
f 350/788/337 371/789/100 347/283/82
f 356/369/132 265/790/275 358/791/301
f 358/791/301 264/792/276 359/793/339
f 359/793/339 263/794/277 360/795/302
f 360/795/302 261/796/142 357/343/125
f 341/321/106 270/797/278 343/798/333
f 343/798/333 269/799/280 344/800/331
f 344/800/331 268/801/281 345/802/329
f 345/802/329 266/803/148 342/367/143
f 272/336/120 313/804/319 311/334/118
f 275/805/283 314/806/317 313/804/319
f 274/807/285 315/808/315 314/806/317
f 273/809/287 312/810/137 315/808/315
f 252/811/153 323/812/340 321/317/102
f 255/813/334 324/814/279 323/812/340
f 254/815/332 325/816/282 324/814/279
f 253/817/330 322/342/124 325/816/282
f 172/640/69 101/446/51 142/448/68
f 73/214/34 75/818/38 74/215/35
f 191/217/37 74/819/35 75/218/38
f 191/220/37 117/820/49 76/221/36
f 222/223/40 152/552/52 126/224/41
f 201/226/43 102/571/73 221/227/44
f 132/229/46 302/614/97 206/230/47
f 73/232/34 76/821/36 117/233/49
f 101/235/51 81/531/247 152/236/52
f 106/238/53 82/634/92 171/239/54
f 136/241/56 87/445/193 192/242/57
f 107/244/59 147/489/76 156/245/60
f 127/247/62 151/822/93 177/248/63
f 166/250/58 186/615/81 162/251/65
f 112/253/45 221/496/44 97/254/66
f 171/256/54 127/426/62 212/257/64
f 142/259/68 96/551/42 126/260/41
f 217/262/70 211/622/79 182/263/71
f 102/265/73 201/502/43 91/266/74
f 147/268/76 107/503/59 217/269/70
f 146/271/48 206/823/47 227/272/77
f 91/274/74 122/427/67 97/275/66
f 176/277/61 156/824/60 182/278/71
f 116/280/80 196/565/85 162/281/65
f 347/283/82 371/789/100 226/284/83
f 192/286/57 87/585/193 196/287/85
f 86/289/86 202/584/94 111/290/87
f 137/292/89 161/605/95 121/293/90
f 82/295/92 106/419/53 177/296/63
f 202/298/94 86/440/86 137/299/89
f 197/301/88 111/530/87 121/302/90
f 132/304/46 181/538/98 256/305/96
f 167/307/39 75/825/38 73/308/34
f 181/310/98 157/412/78 227/311/77
f 292/313/99 257/649/156 226/314/83
f 297/316/101 252/811/153 321/317/102
f 327/319/104 317/720/121 267/320/105
f 77/322/107 78/826/341 326/323/108
f 271/325/110 362/827/146 246/326/111
f 331/328/113 346/828/131 286/329/114
f 242/331/116 332/753/158 236/332/117
f 311/334/118 236/676/117 232/335/119
f 376/337/103 321/657/102 267/338/105
f 251/340/122 281/476/133 277/341/123
f 357/343/125 261/796/142 247/344/126
f 237/346/115 286/733/114 291/347/128
f 331/349/113 367/466/145 372/350/130
f 251/352/122 342/755/143 356/353/132
f 326/355/108 78/829/341 79/356/134
f 336/358/136 241/708/147 312/359/137
f 287/361/139 347/775/82 207/362/84
f 276/364/141 351/475/150 247/365/126
f 342/367/143 266/803/148 262/368/144
f 231/370/129 291/675/128 372/371/130
f 336/373/136 246/695/111 362/374/146
f 277/376/123 262/651/144 266/377/148
f 282/379/149 306/740/152 351/380/150
f 232/382/119 366/830/157 361/383/151
f 307/385/138 312/810/137 271/386/110
f 282/388/149 357/688/125 337/389/127
f 327/391/104 341/761/106 252/392/153
f 377/394/154 316/831/135 79/395/134
f 287/397/139 301/598/140 257/398/156
f 242/400/116 361/776/151 366/401/157
f 296/403/109 377/832/154 80/404/155
f 182/278/71 156/824/60 158/406/159
f 185/407/160 158/406/159 159/408/161
f 184/409/162 159/408/161 160/410/163
f 183/411/164 160/410/163 157/412/78
f 176/246/61 178/414/166 110/413/165
f 178/414/166 179/416/168 109/415/167
f 179/416/168 180/418/170 108/417/169
f 180/418/170 177/296/63 106/419/53
f 172/261/69 126/260/41 128/420/171
f 175/421/172 128/420/171 129/422/173
f 174/423/174 129/422/173 130/424/175
f 173/425/176 130/424/175 127/426/62
f 122/427/67 91/274/74 93/428/177
f 125/429/178 93/428/177 94/430/179
f 124/431/180 94/430/179 95/432/181
f 123/433/182 95/432/181 92/294/91
f 116/288/80 118/435/184 195/434/183
f 118/435/184 119/437/186 194/436/185
f 119/437/186 120/439/188 193/438/187
f 120/439/188 117/820/49 191/220/37
f 86/440/86 88/833/264 140/441/189
f 140/441/189 88/833/264 89/442/190
f 89/442/190 90/834/263 138/444/192
f 138/444/192 90/834/263 87/445/193
f 101/446/51 103/449/195 145/447/194
f 103/449/195 104/835/197 144/450/196
f 104/451/197 105/836/262 143/452/198
f 143/452/198 105/836/262 102/265/73
f 146/231/48 148/455/200 135/454/199
f 148/455/200 149/457/202 134/456/201
f 149/457/202 150/459/204 133/458/203
f 150/459/204 147/268/76 131/270/72
f 332/402/158 366/401/157 368/460/205
f 335/461/206 368/460/205 369/462/207
f 334/463/208 369/462/207 370/464/209
f 333/465/210 370/464/209 367/466/145
f 352/327/112 246/326/111 248/467/211
f 355/468/212 248/467/211 249/469/213
f 249/471/213 250/474/216 353/472/215
f 250/474/216 247/365/126 351/475/150
f 281/476/133 283/478/218 280/477/217
f 283/478/218 284/480/220 279/479/219
f 284/480/220 285/482/222 278/481/221
f 285/482/222 282/379/149 276/381/141
f 157/273/78 160/484/163 148/483/200
f 160/484/163 159/486/161 149/485/202
f 159/486/161 158/488/159 150/487/204
f 158/488/159 156/245/60 147/489/76
f 96/225/42 98/491/224 225/490/223
f 98/491/224 99/493/226 224/492/225
f 99/493/226 100/495/228 223/494/227
f 100/495/228 97/254/66 221/496/44
f 202/298/94 92/300/91 95/497/181
f 95/497/181 94/837/179 204/499/230
f 204/499/230 94/837/179 93/500/177
f 203/501/231 93/500/177 91/266/74
f 107/503/59 110/505/165 220/504/232
f 110/505/165 109/507/167 219/506/233
f 109/507/167 108/509/169 218/508/234
f 108/509/169 106/238/53 216/240/55
f 227/272/77 206/823/47 208/510/235
f 230/511/236 208/510/235 209/512/237
f 209/514/237 210/517/240 228/515/239
f 210/517/240 207/285/84 226/284/83
f 211/279/79 213/519/241 178/518/166
f 213/519/241 214/521/242 179/520/168
f 214/521/242 215/523/243 180/522/170
f 215/523/243 212/249/64 177/248/63
f 122/255/67 125/525/178 115/524/244
f 125/525/178 124/838/180 114/526/245
f 114/527/245 124/839/180 123/528/182
f 123/528/182 121/302/90 111/530/87
f 81/531/247 83/533/249 155/532/248
f 83/533/249 84/535/251 154/534/250
f 84/535/251 85/537/253 153/536/252
f 85/537/253 82/295/92 151/297/93
f 181/538/98 132/304/46 135/539/199
f 183/540/164 135/539/199 134/541/201
f 184/542/162 134/541/201 133/543/203
f 185/544/160 133/543/203 131/264/72
f 141/276/75 97/275/66 100/545/228
f 143/546/198 100/545/228 99/547/226
f 144/548/196 99/547/226 98/549/224
f 145/550/194 98/549/224 96/551/42
f 152/552/52 155/554/248 128/553/171
f 155/554/248 154/556/250 129/555/173
f 154/556/250 153/558/252 130/557/175
f 153/558/252 151/822/93 127/247/62
f 161/303/95 163/560/255 200/559/254
f 163/560/255 164/562/257 199/561/256
f 164/562/257 165/564/259 198/563/258
f 165/564/259 162/281/65 196/565/85
f 186/282/81 188/567/260 118/566/184
f 188/567/260 189/569/261 119/568/186
f 189/569/261 190/840/273 120/570/188
f 120/570/188 190/840/273 187/234/50
f 102/571/73 105/573/262 223/572/227
f 105/573/262 104/575/197 224/574/225
f 104/575/197 103/577/195 225/576/223
f 103/577/195 101/235/51 222/237/40
f 112/228/45 115/579/244 203/578/231
f 115/579/244 114/581/245 204/580/230
f 114/581/245 113/583/246 205/582/229
f 113/583/246 111/290/87 202/584/94
f 87/585/193 90/587/263 198/586/258
f 90/587/263 89/589/190 199/588/256
f 89/589/190 88/591/264 200/590/254
f 88/591/264 86/289/86 197/291/88
f 256/305/96 258/593/266 305/592/265
f 258/593/266 259/841/274 304/594/267
f 304/595/267 259/842/274 260/596/268
f 303/597/269 260/596/268 257/398/156
f 136/252/56 162/251/65 165/599/259
f 138/600/192 165/599/259 164/601/257
f 139/602/191 164/601/257 163/603/255
f 140/604/189 163/603/255 161/605/95
f 301/363/140 207/362/84 210/606/240
f 303/607/269 210/606/240 209/608/237
f 209/610/237 208/613/235 305/611/265
f 208/613/235 206/230/47 302/614/97
f 186/615/81 166/250/58 168/616/270
f 188/617/260 168/616/270 169/618/271
f 189/619/261 169/618/271 170/620/272
f 190/621/273 170/620/272 167/307/39
f 211/622/79 217/262/70 220/623/232
f 213/624/241 220/623/232 219/625/233
f 214/626/242 219/625/233 218/627/234
f 215/628/243 218/627/234 216/258/55
f 192/242/57 195/843/183 168/629/270
f 168/629/270 195/843/183 194/630/185
f 194/630/185 193/633/187 170/632/272
f 193/633/187 191/217/37 167/219/39
f 82/634/92 85/844/253 173/635/176
f 173/635/176 85/844/253 84/636/251
f 84/636/251 83/845/249 175/638/172
f 175/638/172 83/845/249 81/639/247
f 256/312/96 227/311/77 230/641/236
f 258/642/266 230/641/236 229/643/238
f 229/645/238 228/648/239 260/646/268
f 228/648/239 226/314/83 257/649/156
f 277/376/123 280/652/217 265/650/275
f 280/652/217 279/654/219 264/653/276
f 279/654/219 278/656/221 263/655/277
f 278/656/221 276/364/141 261/366/142
f 321/657/102 323/846/340 270/658/278
f 270/658/278 323/846/340 324/659/279
f 324/659/279 325/662/282 268/661/281
f 325/662/282 322/378/124 266/377/148
f 361/383/151 363/664/284 275/663/283
f 363/664/284 364/666/286 274/665/285
f 364/666/286 365/668/288 273/667/287
f 365/668/288 362/827/146 271/325/110
f 371/315/100 373/670/290 295/669/289
f 373/670/290 374/672/292 294/671/291
f 374/672/292 375/674/294 293/673/293
f 375/674/294 372/371/130 291/675/128
f 236/676/117 238/678/296 235/677/295
f 238/678/296 239/680/298 234/679/297
f 239/680/298 240/682/300 233/681/299
f 240/682/300 237/346/115 231/348/129
f 281/354/133 356/353/132 358/683/301
f 358/683/301 359/847/339 284/685/220
f 284/685/220 359/847/339 360/686/302
f 285/687/222 360/686/302 357/688/125
f 337/345/127 247/344/126 250/689/216
f 340/690/303 250/689/216 249/691/213
f 339/692/304 249/691/213 248/693/211
f 338/694/305 248/693/211 246/695/111
f 376/318/103 378/697/307 300/696/306
f 378/697/307 379/699/309 299/698/308
f 379/699/309 380/701/311 298/700/310
f 380/701/311 377/832/154 296/403/109
f 326/323/108 328/703/312 298/702/310
f 328/703/312 329/705/313 299/704/308
f 329/705/313 330/707/314 300/706/306
f 330/707/314 327/391/104 297/393/101
f 241/708/147 243/710/316 315/709/315
f 243/710/316 244/712/318 314/711/317
f 244/712/318 245/848/338 313/713/319
f 313/713/319 245/848/338 242/331/116
f 326/355/108 316/357/135 318/714/320
f 328/715/312 318/714/320 319/716/321
f 329/717/313 319/716/321 320/718/322
f 330/719/314 320/718/322 317/720/121
f 367/372/145 370/722/209 233/721/299
f 370/722/209 369/724/207 234/723/297
f 369/724/207 368/726/205 235/725/295
f 368/726/205 366/830/157 232/382/119
f 376/337/103 317/339/121 320/727/322
f 320/727/322 319/730/321 379/729/309
f 319/730/321 318/732/320 380/731/311
f 318/732/320 316/831/135 377/394/154
f 286/733/114 288/735/323 293/734/293
f 288/735/323 289/737/324 294/736/291
f 289/737/324 290/739/325 295/738/289
f 290/739/325 287/397/139 292/399/99
f 306/740/152 308/742/326 353/741/215
f 308/742/326 309/744/327 354/743/214
f 309/744/327 310/746/328 355/745/212
f 310/746/328 307/385/138 352/387/112
f 331/328/113 237/330/115 240/747/300
f 333/748/210 240/747/300 239/749/298
f 239/749/298 238/752/296 335/751/206
f 238/752/296 236/332/117 332/753/158
f 251/352/122 253/756/330 345/754/329
f 253/756/330 254/758/332 344/757/331
f 254/758/332 255/760/334 343/759/333
f 255/760/334 252/392/153 341/761/106
f 337/389/127 340/763/303 308/762/326
f 340/763/303 339/849/304 309/764/327
f 339/765/304 338/768/305 310/766/328
f 338/768/305 336/358/136 307/360/138
f 286/329/114 346/828/131 348/769/335
f 288/770/323 348/769/335 349/771/336
f 289/772/324 349/771/336 350/773/337
f 290/774/325 350/773/337 347/775/82
f 361/776/151 242/400/116 245/777/338
f 363/778/284 245/777/338 244/779/318
f 364/780/286 244/779/318 243/781/316
f 365/782/288 243/781/316 241/375/147
f 346/351/131 372/350/130 375/783/294
f 348/784/335 375/783/294 374/785/292
f 349/786/336 374/785/292 373/787/290
f 350/788/337 373/787/290 371/789/100
f 356/369/132 262/368/144 265/790/275
f 358/791/301 265/790/275 264/792/276
f 359/793/339 264/792/276 263/794/277
f 360/795/302 263/794/277 261/796/142
f 341/321/106 267/320/105 270/797/278
f 343/798/333 270/797/278 269/799/280
f 344/800/331 269/799/280 268/801/281
f 345/802/329 268/801/281 266/803/148
f 272/336/120 275/805/283 313/804/319
f 275/805/283 274/807/285 314/806/317
f 274/807/285 273/809/287 315/808/315
f 273/809/287 271/386/110 312/810/137
f 252/811/153 255/813/334 323/812/340
f 255/813/334 254/815/332 324/814/279
f 254/815/332 253/817/330 325/816/282
f 253/817/330 251/340/122 322/342/124
f 172/640/69 81/639/247 101/446/51
