# Blender 4.5.3 LTS
# www.blender.org
mtllib cofre.mtl
g cofre_Malla
v -16.607046 -0.235012 -0.336399
v -18.401701 -0.980633 -11.095181
v -22.969252 -0.880371 -0.891800
v 1.141790 0.170502 -0.196758
v -6.743388 -0.925411 -17.143692
v -7.944981 0.010826 0.012711
v -16.554792 -0.141747 1.025379
v -19.877611 -0.405540 0.976200
v -21.946573 -0.672134 0.276569
v -14.622744 -2.201199 -32.604073
v -14.760147 -1.280235 -17.144081
v -14.999212 -0.902023 -11.098984
v -18.120451 -0.918194 -11.111855
v -16.630320 -0.340137 -1.846386
v -15.279793 -0.848877 -11.111855
v -15.041399 -1.231281 -17.143288
v -14.901255 -2.146816 -32.609047
v -16.593348 -0.512180 -17.133110
v -16.953547 -1.371040 -32.701981
v -16.848524 -0.511898 -17.132774
v -17.203413 -1.373390 -32.699692
v -19.401506 -2.259441 -32.553772
v -19.849150 -3.426128 -44.483162
v -18.528315 -1.232399 -17.142845
v -16.751677 -0.364643 -11.107040
v -16.496496 -0.364197 -11.107765
v 1.141763 -8.101662 -68.185104
v -15.398088 -8.418888 -67.869675
v -15.260843 -5.334801 -56.272392
v -17.838827 -7.460217 -65.242340
v -15.855684 -5.146927 -56.240456
v -17.798319 -6.801090 -63.627022
v -19.921774 -4.886097 -55.981125
v -19.605165 -4.820694 -56.062141
v -20.125254 -3.483360 -44.461960
v -19.680796 -2.321373 -32.539452
v -18.811132 -1.291702 -17.143013
v -23.632132 -1.432472 -17.143570
v -24.236773 -2.457443 -32.362823
v -24.620073 -3.764561 -44.924706
v -24.538954 -5.565475 -55.923950
v -24.298159 -6.763493 -61.285355
v -23.267702 -7.768547 -65.628433
v -20.940317 -8.287296 -67.287811
v -17.864004 -8.456375 -67.735504
v -15.022665 -3.272942 -44.592819
v -17.254889 -2.311920 -44.805534
v -17.501562 -2.313599 -44.800278
v -17.663984 -2.993816 -50.643112
v -17.827188 -4.109032 -56.485222
v -17.600710 -4.113621 -56.494621
v -14.744493 -3.331745 -44.583145
v 1.141772 -3.000027 -44.791504
v -17.427267 -2.996277 -50.649323
v 24.230211 -0.672134 0.276550
v 25.252832 -0.880371 -0.891819
v 22.161247 -0.405540 0.976185
v 18.890682 -0.235012 -0.336414
v 18.838428 -0.141747 1.025364
v 10.228559 0.010826 0.012703
v 9.027009 -0.925411 -17.143692
v 1.141783 -0.576408 -17.143692
v 1.141777 -1.691284 -32.708817
v 16.906357 -2.201199 -32.604088
v 17.043770 -1.280235 -17.144096
v 17.324966 -1.231281 -17.143303
v 17.563419 -0.848877 -11.111870
v 18.780071 -0.364197 -11.107780
v 18.913960 -0.340137 -1.846401
v 17.282841 -0.902023 -11.098999
v 17.028095 -3.331745 -44.583160
v 17.184864 -2.146816 -32.609062
v 18.876915 -0.512180 -17.133125
v 19.035252 -0.364643 -11.107056
v 20.404079 -0.918194 -11.111870
v 20.685329 -0.980633 -11.095196
v 25.915754 -1.432472 -17.143585
v 19.237156 -1.371040 -32.701996
v 19.132092 -0.511898 -17.132790
v 20.811935 -1.232399 -17.142860
v 21.094753 -1.291702 -17.143028
v 21.685059 -2.259441 -32.553787
v 19.487022 -1.373390 -32.699707
v 19.538490 -2.311920 -44.805550
v 17.306271 -3.272942 -44.592834
v 26.581747 -6.763493 -61.285370
v 25.551233 -7.768547 -65.628448
v 20.122414 -7.460217 -65.242355
v 23.223898 -8.287296 -67.287827
v 20.147591 -8.456375 -67.735519
v 17.681671 -8.418888 -67.869690
v 17.544434 -5.334801 -56.272408
v 1.141768 -5.046780 -56.406792
v 18.139275 -5.146927 -56.240471
v 22.205368 -4.886097 -55.981140
v 26.822550 -5.565475 -55.923965
v 26.903677 -3.764561 -44.924721
v 22.408802 -3.483360 -44.461975
v 26.520380 -2.457443 -32.362839
v 21.964409 -2.321373 -32.539467
v 20.081909 -6.801090 -63.627037
v 19.884300 -4.113621 -56.494637
v 19.710808 -2.996277 -50.649338
v 19.785164 -2.313599 -44.800293
v 22.132751 -3.426128 -44.483177
v 21.888756 -4.820694 -56.062157
v 19.947582 -2.993816 -50.643127
v 20.110722 -4.109032 -56.485237
v 1.141763 -8.247967 -68.236252
v 17.659908 -8.578117 -67.950485
v 20.146191 -8.625504 -67.821243
v -15.376326 -8.578117 -67.950470
v -17.862604 -8.625504 -67.821228
v -20.994585 -8.443447 -67.361496
v -23.364046 -7.904224 -65.669968
v -24.385607 -6.937267 -61.362000
v -24.650347 -5.719837 -55.896034
v -24.745623 -3.910080 -44.918663
v -7.949120 -0.117519 0.119015
v -16.544271 -0.268188 1.132969
v -19.882925 -0.531425 1.084682
v -21.989264 -0.800705 0.373356
v -23.093008 -1.034286 -0.779007
v -23.729818 -1.569599 -17.137810
v -24.349001 -2.597702 -32.347214
v 1.141790 0.040478 -0.090347
v 10.232756 -0.117519 0.119007
v 18.827911 -0.268188 1.132954
v 22.166561 -0.531425 1.084667
v 24.272844 -0.800705 0.373337
v 25.376646 -1.034286 -0.779026
v 26.013441 -1.569599 -17.137825
v 26.632612 -2.597702 -32.347229
v 27.029226 -3.910080 -44.918678
v 26.933943 -5.719837 -55.896049
v 26.669191 -6.937267 -61.362015
v 25.647635 -7.904224 -65.669983
v 23.278112 -8.443447 -67.361511
vn -0.0569 0.9963 -0.0645
vn -0.1340 0.9903 -0.0367
vn -0.4832 0.8715 0.0840
vn -0.0000 0.9179 0.3968
vn -0.0393 0.9974 -0.0603
vn 0.0094 0.9214 0.3885
vn -0.0238 0.9155 0.4016
vn -0.1634 0.9035 0.3962
vn -0.3523 0.8738 0.3351
vn 0.0788 0.9939 -0.0774
vn 0.0629 0.9962 -0.0595
vn 0.0661 0.9963 -0.0552
vn -0.2946 0.9553 -0.0229
vn 0.0017 0.9978 -0.0658
vn 0.2771 0.9603 -0.0315
vn 0.2951 0.9542 -0.0491
vn 0.2760 0.9582 -0.0753
vn 0.2140 0.9760 -0.0407
vn 0.1773 0.9815 -0.0718
vn -0.1993 0.9793 -0.0344
vn -0.1985 0.9780 -0.0635
vn -0.2991 0.9520 -0.0648
vn -0.3248 0.9412 -0.0926
vn -0.3001 0.9532 -0.0368
vn -0.1923 0.9813 -0.0118
vn 0.1913 0.9814 -0.0167
vn -0.0000 0.7347 -0.6784
vn -0.0208 0.7631 -0.6459
vn 0.1258 0.9658 -0.2265
vn 0.0208 0.9523 -0.3046
vn 0.4014 0.8844 -0.2383
vn 0.0837 0.9227 -0.3762
vn -0.1786 0.9632 -0.2007
vn -0.3345 0.9144 -0.2279
vn -0.1283 0.9859 -0.1074
vn -0.1260 0.9891 -0.0757
vn -0.1173 0.9918 -0.0514
vn -0.4713 0.8816 -0.0280
vn -0.4487 0.8917 -0.0590
vn -0.4453 0.8891 -0.1056
vn -0.5222 0.8347 -0.1750
vn -0.5264 0.8107 -0.2563
vn -0.3924 0.7977 -0.4579
vn -0.1704 0.7294 -0.6625
vn -0.0548 0.7284 -0.6830
vn 0.3131 0.9419 -0.1214
vn 0.2006 0.9745 -0.1007
vn -0.2267 0.9699 -0.0887
vn -0.2411 0.9606 -0.1386
vn -0.2054 0.9422 -0.2647
vn 0.2706 0.9246 -0.2682
vn 0.0915 0.9867 -0.1346
vn -0.0000 0.9902 -0.1398
vn 0.2704 0.9484 -0.1656
vn 0.3524 0.8738 0.3351
vn 0.4831 0.8715 0.0839
vn 0.1634 0.9035 0.3962
vn 0.0569 0.9963 -0.0645
vn 0.0238 0.9155 0.4016
vn -0.0094 0.9214 0.3885
vn 0.0393 0.9974 -0.0603
vn -0.0000 0.9983 -0.0577
vn -0.0000 0.9964 -0.0847
vn -0.0788 0.9939 -0.0774
vn -0.0629 0.9962 -0.0595
vn -0.2951 0.9542 -0.0491
vn -0.2771 0.9603 -0.0315
vn -0.1914 0.9814 -0.0167
vn -0.0017 0.9978 -0.0658
vn -0.0661 0.9963 -0.0552
vn -0.0915 0.9867 -0.1346
vn -0.2760 0.9582 -0.0753
vn -0.2140 0.9760 -0.0407
vn 0.1923 0.9813 -0.0118
vn 0.2946 0.9553 -0.0229
vn 0.1340 0.9903 -0.0367
vn 0.4713 0.8816 -0.0280
vn -0.1773 0.9815 -0.0718
vn 0.1993 0.9793 -0.0344
vn 0.3001 0.9532 -0.0368
vn 0.1173 0.9918 -0.0514
vn 0.2991 0.9520 -0.0648
vn 0.1985 0.9780 -0.0635
vn -0.2006 0.9745 -0.1007
vn -0.3131 0.9419 -0.1214
vn 0.5264 0.8107 -0.2563
vn 0.3923 0.7978 -0.4578
vn -0.0208 0.9523 -0.3046
vn 0.1704 0.7294 -0.6626
vn 0.0548 0.7284 -0.6830
vn 0.0208 0.7631 -0.6459
vn -0.1258 0.9658 -0.2265
vn -0.0000 0.9771 -0.2126
vn -0.4014 0.8844 -0.2383
vn 0.1786 0.9632 -0.2007
vn 0.5222 0.8347 -0.1750
vn 0.4453 0.8891 -0.1056
vn 0.1283 0.9859 -0.1074
vn 0.4487 0.8917 -0.0590
vn 0.1260 0.9891 -0.0757
vn -0.0837 0.9227 -0.3762
vn -0.2706 0.9246 -0.2682
vn -0.2704 0.9484 -0.1656
vn 0.2267 0.9699 -0.0887
vn 0.3248 0.9412 -0.0926
vn 0.3345 0.9144 -0.2279
vn 0.2411 0.9606 -0.1386
vn 0.2054 0.9422 -0.2647
vn -0.0000 0.3308 -0.9437
vn 0.0385 0.4480 -0.8932
vn 0.0788 0.4502 -0.8895
vn -0.0385 0.4480 -0.8932
vn -0.0788 0.4501 -0.8895
vn -0.2703 0.4865 -0.8308
vn -0.5866 0.5873 -0.5577
vn -0.8120 0.5236 -0.2577
vn -0.8152 0.5644 -0.1303
vn -0.7565 0.6491 -0.0806
vn 0.0450 0.6363 0.7701
vn 0.0072 0.6484 0.7612
vn -0.1931 0.6454 0.7390
vn -0.4905 0.6222 0.6102
vn -0.6788 0.6989 0.2254
vn -0.8142 0.5805 0.0035
vn -0.7821 0.6227 -0.0256
vn -0.0000 0.6333 0.7739
vn -0.0450 0.6363 0.7701
vn -0.0072 0.6484 0.7612
vn 0.1931 0.6454 0.7390
vn 0.4905 0.6221 0.6103
vn 0.6787 0.6990 0.2254
vn 0.8142 0.5805 0.0035
vn 0.7821 0.6227 -0.0256
vn 0.7565 0.6491 -0.0806
vn 0.8152 0.5644 -0.1303
vn 0.8120 0.5236 -0.2577
vn 0.5865 0.5874 -0.5576
vn 0.2703 0.4864 -0.8309
vt 0.178960 0.984860
vt 0.145610 0.830846
vt 0.060970 0.978339
vt 0.508123 0.982762
vt 0.361808 0.741344
vt 0.339598 0.987856
vt 0.179937 1.004369
vt 0.118311 1.004440
vt 0.079919 0.994876
vt 0.215618 0.521267
vt 0.213121 0.743198
vt 0.208714 0.830001
vt 0.150838 0.830538
vt 0.178516 0.963186
vt 0.203524 0.829882
vt 0.207909 0.743263
vt 0.210444 0.521257
vt 0.179130 0.743772
vt 0.172363 0.520395
vt 0.174399 0.743831
vt 0.167734 0.520482
vt 0.126961 0.523086
vt 0.118630 0.351974
vt 0.143251 0.744069
vt 0.176228 0.830297
vt 0.180960 0.830238
vt 0.507793 0.006938
vt 0.201050 0.015304
vt 0.203666 0.181702
vt 0.155805 0.053574
vt 0.192622 0.182312
vt 0.156573 0.076734
vt 0.117211 0.186955
vt 0.123087 0.185730
vt 0.113499 0.352343
vt 0.121819 0.523363
vt 0.138023 0.744134
vt 0.048605 0.745248
vt 0.037312 0.526951
vt 0.030148 0.346742
vt 0.031603 0.188858
vt 0.036035 0.111855
vt 0.055136 0.049266
vt 0.098275 0.024911
vt 0.155324 0.017769
vt 0.208133 0.349276
vt 0.166744 0.346756
vt 0.162169 0.346871
vt 0.159110 0.263064
vt 0.156067 0.179239
vt 0.160254 0.179053
vt 0.213291 0.349349
vt 0.507917 0.342683
vt 0.163507 0.262905
vt 0.936309 0.984185
vt 0.955247 0.967180
vt 0.897924 0.994723
vt 0.837279 0.976655
vt 0.836304 0.996188
vt 0.676628 0.983655
vt 0.654276 0.737699
vt 0.508045 0.739522
vt 0.507973 0.516120
vt 0.800312 0.513963
vt 0.802946 0.735846
vt 0.808164 0.735781
vt 0.812616 0.822290
vt 0.835179 0.822084
vt 0.837709 0.954970
vt 0.807415 0.822538
vt 0.802528 0.342005
vt 0.805481 0.513840
vt 0.836937 0.735573
vt 0.839911 0.822025
vt 0.865302 0.821633
vt 0.870519 0.821810
vt 0.967468 0.733796
vt 0.843561 0.512029
vt 0.841669 0.735514
vt 0.872833 0.734975
vt 0.878061 0.734910
vt 0.888964 0.513589
vt 0.848190 0.512001
vt 0.849074 0.338252
vt 0.807681 0.341803
vt 0.979631 0.100093
vt 0.960490 0.037982
vt 0.859819 0.044799
vt 0.917330 0.014702
vt 0.860276 0.008983
vt 0.814534 0.007641
vt 0.812041 0.174119
vt 0.507847 0.175982
vt 0.823085 0.174454
vt 0.898482 0.177218
vt 0.984091 0.176986
vt 0.985668 0.334833
vt 0.902317 0.342494
vt 0.978621 0.515219
vt 0.894106 0.513721
vt 0.859065 0.067978
vt 0.855451 0.170388
vt 0.852251 0.254320
vt 0.853644 0.338253
vt 0.897191 0.342270
vt 0.892606 0.176138
vt 0.856632 0.254370
vt 0.859643 0.170470
vt 0.507793 0.006207
vt 0.814139 0.006476
vt 0.860249 0.007756
vt 0.201459 0.014126
vt 0.155356 0.016542
vt 0.097261 0.023859
vt 0.053328 0.048683
vt 0.034421 0.110768
vt 0.029526 0.189280
vt 0.027818 0.346859
vt 0.339529 0.989377
vt 0.180143 1.005916
vt 0.118208 1.006007
vt 0.079142 0.996268
vt 0.058683 0.979979
vt 0.046786 0.745346
vt 0.035229 0.527190
vt 0.508123 0.984282
vt 0.676714 0.985174
vt 0.836115 0.997740
vt 0.898027 0.996287
vt 0.937103 0.985574
vt 0.957535 0.968776
vt 0.969281 0.733848
vt 0.980698 0.515406
vt 0.987999 0.334891
vt 0.986190 0.177340
vt 0.981238 0.098967
vt 0.962291 0.037354
vt 0.918344 0.013625
s 1
g off
g cofre_nodamage
usemtl nodamage
f 1/1/1 2/2/2 3/3/3
f 4/4/4 5/5/5 6/6/6
f 6/6/6 5/5/5 1/1/1
f 6/6/6 1/1/1 7/7/7
f 7/7/7 1/1/1 8/8/8
f 8/8/8 1/1/1 3/3/3
f 8/8/8 3/3/3 9/9/9
f 10/10/10 11/11/11 5/5/5
f 5/5/5 11/11/11 12/12/12
f 5/5/5 12/12/12 1/1/1
f 2/2/2 1/1/1 13/13/13
f 13/13/13 1/1/1 14/14/14
f 14/14/14 1/1/1 12/12/12
f 14/14/14 12/12/12 15/15/15
f 15/15/15 12/12/12 11/11/11
f 15/15/15 11/11/11 16/16/16
f 16/16/16 11/11/11 10/10/10
f 16/16/16 10/10/10 17/17/17
f 16/16/16 17/17/17 18/18/18
f 18/18/18 17/17/17 19/19/19
f 18/18/18 19/19/19 20/20/20
f 20/20/20 19/19/19 21/21/21
f 20/20/20 21/21/21 22/22/22
f 22/22/22 21/21/21 23/23/23
f 22/22/22 24/24/24 20/20/20
f 20/20/20 24/24/24 25/25/25
f 20/20/20 25/25/25 18/18/18
f 18/18/18 25/25/25 26/26/26
f 18/18/18 26/26/26 16/16/16
f 16/16/16 26/26/26 15/15/15
f 15/15/15 26/26/26 14/14/14
f 14/14/14 26/26/26 25/25/25
f 14/14/14 25/25/25 13/13/13
f 13/13/13 25/25/25 24/24/24
f 27/27/27 28/28/28 29/29/29
f 29/29/29 28/28/28 30/30/30
f 29/29/29 30/30/30 31/31/31
f 31/31/31 30/30/30 32/32/32
f 32/32/32 30/30/30 33/33/33
f 32/32/32 33/33/33 34/34/34
f 34/34/34 33/33/33 35/35/35
f 34/34/34 35/35/35 23/23/23
f 23/23/23 35/35/35 36/36/36
f 23/23/23 36/36/36 22/22/22
f 22/22/22 36/36/36 37/37/37
f 22/22/22 37/37/37 24/24/24
f 24/24/24 37/37/37 2/2/2
f 24/24/24 2/2/2 13/13/13
f 3/3/3 2/2/2 38/38/38
f 38/38/38 2/2/2 37/37/37
f 38/38/38 37/37/37 36/36/36
f 38/38/38 36/36/36 39/39/39
f 39/39/39 36/36/36 35/35/35
f 39/39/39 35/35/35 40/40/40
f 40/40/40 35/35/35 33/33/33
f 40/40/40 33/33/33 41/41/41
f 41/41/41 33/33/33 42/42/42
f 42/42/42 33/33/33 30/30/30
f 42/42/42 30/30/30 43/43/43
f 43/43/43 30/30/30 44/44/44
f 44/44/44 30/30/30 45/45/45
f 45/45/45 30/30/30 28/28/28
f 46/46/46 47/47/47 19/19/19
f 19/19/19 47/47/47 21/21/21
f 21/21/21 47/47/47 48/48/48
f 21/21/21 48/48/48 23/23/23
f 23/23/23 48/48/48 49/49/49
f 23/23/23 49/49/49 34/34/34
f 34/34/34 49/49/49 50/50/50
f 34/34/34 50/50/50 32/32/32
f 32/32/32 50/50/50 51/51/51
f 32/32/32 51/51/51 31/31/31
f 31/31/31 51/51/51 46/46/46
f 31/31/31 46/46/46 29/29/29
f 29/29/29 46/46/46 52/52/52
f 29/29/29 52/52/52 53/53/53
f 46/46/46 51/51/51 54/54/54
f 54/54/54 51/51/51 50/50/50
f 54/54/54 50/50/50 49/49/49
f 54/54/54 49/49/49 48/48/48
f 54/54/54 48/48/48 47/47/47
f 54/54/54 47/47/47 46/46/46
f 55/55/55 56/56/56 57/57/57
f 57/57/57 56/56/56 58/58/58
f 57/57/57 58/58/58 59/59/59
f 59/59/59 58/58/58 60/60/60
f 60/60/60 58/58/58 61/61/61
f 60/60/60 61/61/61 4/4/4
f 4/4/4 61/61/61 62/62/62
f 4/4/4 62/62/62 5/5/5
f 5/5/5 62/62/62 63/63/63
f 5/5/5 63/63/63 10/10/10
f 10/10/10 63/63/63 52/52/52
f 10/10/10 52/52/52 17/17/17
f 17/17/17 52/52/52 46/46/46
f 17/17/17 46/46/46 19/19/19
f 62/62/62 61/61/61 63/63/63
f 63/63/63 61/61/61 64/64/64
f 64/64/64 61/61/61 65/65/65
f 64/64/64 65/65/65 66/66/66
f 66/66/66 65/65/65 67/67/67
f 66/66/66 67/67/67 68/68/68
f 68/68/68 67/67/67 69/69/69
f 69/69/69 67/67/67 70/70/70
f 69/69/69 70/70/70 58/58/58
f 58/58/58 70/70/70 61/61/61
f 61/61/61 70/70/70 65/65/65
f 65/65/65 70/70/70 67/67/67
f 52/52/52 63/63/63 53/53/53
f 53/53/53 63/63/63 71/71/71
f 71/71/71 63/63/63 64/64/64
f 71/71/71 64/64/64 72/72/72
f 72/72/72 64/64/64 66/66/66
f 72/72/72 66/66/66 73/73/73
f 73/73/73 66/66/66 68/68/68
f 73/73/73 68/68/68 74/74/74
f 74/74/74 68/68/68 69/69/69
f 74/74/74 69/69/69 75/75/75
f 75/75/75 69/69/69 58/58/58
f 75/75/75 58/58/58 76/76/76
f 76/76/76 58/58/58 56/56/56
f 76/76/76 56/56/56 77/77/77
f 72/72/72 73/73/73 78/78/78
f 78/78/78 73/73/73 79/79/79
f 79/79/79 73/73/73 74/74/74
f 79/79/79 74/74/74 80/80/80
f 80/80/80 74/74/74 75/75/75
f 80/80/80 75/75/75 76/76/76
f 80/80/80 76/76/76 81/81/81
f 80/80/80 81/81/81 82/82/82
f 80/80/80 82/82/82 79/79/79
f 79/79/79 82/82/82 83/83/83
f 79/79/79 83/83/83 78/78/78
f 78/78/78 83/83/83 84/84/84
f 78/78/78 84/84/84 85/85/85
f 86/86/86 87/87/87 88/88/88
f 88/88/88 87/87/87 89/89/89
f 88/88/88 89/89/89 90/90/90
f 88/88/88 90/90/90 91/91/91
f 88/88/88 91/91/91 92/92/92
f 92/92/92 91/91/91 27/27/27
f 92/92/92 27/27/27 93/93/93
f 93/93/93 27/27/27 29/29/29
f 93/93/93 29/29/29 53/53/53
f 93/93/93 53/53/53 92/92/92
f 92/92/92 53/53/53 71/71/71
f 92/92/92 71/71/71 85/85/85
f 85/85/85 71/71/71 72/72/72
f 85/85/85 72/72/72 78/78/78
f 85/85/85 94/94/94 92/92/92
f 92/92/92 94/94/94 88/88/88
f 88/88/88 95/95/95 86/86/86
f 86/86/86 95/95/95 96/96/96
f 96/96/96 95/95/95 97/97/97
f 97/97/97 95/95/95 98/98/98
f 97/97/97 98/98/98 99/99/99
f 99/99/99 98/98/98 100/100/100
f 99/99/99 100/100/100 77/77/77
f 95/95/95 88/88/88 101/101/101
f 101/101/101 88/88/88 94/94/94
f 101/101/101 94/94/94 102/102/102
f 102/102/102 94/94/94 85/85/85
f 102/102/102 85/85/85 103/103/103
f 103/103/103 85/85/85 84/84/84
f 103/103/103 84/84/84 104/104/104
f 104/104/104 84/84/84 83/83/83
f 104/104/104 83/83/83 105/105/105
f 105/105/105 83/83/83 82/82/82
f 105/105/105 82/82/82 100/100/100
f 100/100/100 82/82/82 81/81/81
f 100/100/100 81/81/81 77/77/77
f 77/77/77 81/81/81 76/76/76
f 100/100/100 98/98/98 105/105/105
f 105/105/105 98/98/98 106/106/106
f 105/105/105 106/106/106 107/107/107
f 107/107/107 106/106/106 108/108/108
f 107/107/107 108/108/108 103/103/103
f 103/103/103 108/108/108 102/102/102
f 102/102/102 108/108/108 101/101/101
f 101/101/101 108/108/108 106/106/106
f 101/101/101 106/106/106 95/95/95
f 95/95/95 106/106/106 98/98/98
f 103/103/103 104/104/104 107/107/107
f 107/107/107 104/104/104 105/105/105
f 28/28/28 27/27/27 109/109/109
f 109/109/109 27/27/27 91/91/91
f 109/109/109 91/91/91 110/110/110
f 110/110/110 91/91/91 111/111/111
f 109/109/109 112/112/112 28/28/28
f 28/28/28 112/112/112 113/113/113
f 28/28/28 113/113/113 45/45/45
f 45/45/45 113/113/113 44/44/44
f 44/44/44 113/113/113 114/114/114
f 44/44/44 114/114/114 43/43/43
f 43/43/43 114/114/114 115/115/115
f 43/43/43 115/115/115 116/116/116
f 43/43/43 116/116/116 42/42/42
f 42/42/42 116/116/116 117/117/117
f 42/42/42 117/117/117 41/41/41
f 41/41/41 117/117/117 40/40/40
f 40/40/40 117/117/117 118/118/118
f 40/40/40 118/118/118 39/39/39
f 4/4/4 6/6/6 119/119/119
f 119/119/119 6/6/6 120/120/120
f 120/120/120 6/6/6 7/7/7
f 120/120/120 7/7/7 8/8/8
f 120/120/120 8/8/8 121/121/121
f 121/121/121 8/8/8 9/9/9
f 121/121/121 9/9/9 122/122/122
f 122/122/122 9/9/9 123/123/123
f 123/123/123 9/9/9 3/3/3
f 123/123/123 3/3/3 124/124/124
f 124/124/124 3/3/3 38/38/38
f 124/124/124 38/38/38 125/125/125
f 125/125/125 38/38/38 39/39/39
f 125/125/125 39/39/39 118/118/118
f 119/119/119 126/126/126 4/4/4
f 4/4/4 126/126/126 127/127/127
f 4/4/4 127/127/127 60/60/60
f 60/60/60 127/127/127 128/128/128
f 60/60/60 128/128/128 59/59/59
f 59/59/59 128/128/128 57/57/57
f 57/57/57 128/128/128 129/129/129
f 57/57/57 129/129/129 55/55/55
f 55/55/55 129/129/129 130/130/130
f 55/55/55 130/130/130 131/131/131
f 55/55/55 131/131/131 56/56/56
f 56/56/56 131/131/131 132/132/132
f 56/56/56 132/132/132 77/77/77
f 77/77/77 132/132/132 133/133/133
f 77/77/77 133/133/133 99/99/99
f 99/99/99 133/133/133 134/134/134
f 99/99/99 134/134/134 97/97/97
f 97/97/97 134/134/134 135/135/135
f 97/97/97 135/135/135 96/96/96
f 96/96/96 135/135/135 86/86/86
f 86/86/86 135/135/135 136/136/136
f 86/86/86 136/136/136 87/87/87
f 87/87/87 136/136/136 137/137/137
f 87/87/87 137/137/137 138/138/138
f 87/87/87 138/138/138 89/89/89
f 89/89/89 138/138/138 111/111/111
f 89/89/89 111/111/111 90/90/90
f 90/90/90 111/111/111 91/91/91
