# Blender 4.5.3 LTS
# www.blender.org
mtllib santan.mtl
g Light_low_Mesh
v -0.329376 3.754998 0.000001
v -0.329376 3.757493 0.009312
v -0.329376 3.764308 0.016127
v -0.329376 3.773619 0.018622
v -0.329376 3.782930 0.016127
v -0.329376 3.789746 0.009312
v -0.329376 3.792241 0.000001
v -0.329376 3.789746 -0.009310
v -0.329376 3.782930 -0.016126
v -0.329376 3.773619 -0.018621
v -0.329376 3.764308 -0.016126
v -0.329376 3.757493 -0.009310
v -1.717341 3.754998 0.000001
v -1.717341 3.757493 0.009311
v -1.717341 3.764308 0.016127
v -1.717341 3.773619 0.018622
v -1.717341 3.782930 0.016127
v -1.717341 3.789746 0.009311
v -1.717341 3.792241 0.000001
v -1.717341 3.789746 -0.009310
v -1.717341 3.782930 -0.016126
v -1.717341 3.773619 -0.018621
v -1.717341 3.764308 -0.016126
v -1.717341 3.757493 -0.009310
v 0.002394 3.669740 0.047917
v -0.322840 3.748006 0.047917
v 0.002394 3.819633 0.047917
v -0.322840 3.819633 0.047917
v 0.002394 3.669740 -0.047916
v -0.322840 3.748006 -0.047916
v 0.002394 3.819633 -0.047916
v -0.322840 3.819633 -0.047916
v -0.153710 3.669740 -0.046835
v -0.153710 3.819633 -0.047916
v -0.153710 3.819633 0.047917
v -0.153710 3.669740 0.046835
v -0.210937 3.733196 -0.047916
v -0.210937 3.819633 -0.047916
v -0.210937 3.819633 0.047917
v -0.210937 3.733196 0.047917
v -0.242968 3.747268 0.047917
v -0.242968 3.819633 0.047917
v -0.242968 3.819633 -0.047916
v -0.242968 3.745492 -0.047916
v -0.178701 3.709411 -0.047916
v -0.178701 3.819633 -0.047916
v -0.178701 3.819633 0.047917
v -0.178701 3.709411 0.047917
v -0.109138 3.419059 -0.045804
v 0.001229 3.417881 -0.047916
v 0.001229 3.417881 0.047917
v -0.109138 3.419059 0.045805
v 0.254244 -0.000153 -0.254024
v -0.254244 -0.000153 -0.254024
v 0.254244 -0.000153 0.254024
v -0.254244 -0.000153 0.254024
v 0.228706 0.032049 -0.230027
v 0.235886 0.028034 -0.237021
v -0.228800 0.032049 -0.230120
v -0.235886 0.028034 -0.237021
v -0.228706 0.032049 0.230027
v -0.235886 0.028034 0.237021
v 0.228800 0.032049 0.230120
v 0.235886 0.028034 0.237021
v -0.324167 3.775502 -0.105191
v -1.731027 3.776093 -0.105191
v -0.324167 3.775502 0.105191
v -1.731027 3.776093 0.105191
v -0.324167 3.873444 -0.039653
v -1.702139 3.872195 -0.039653
v -0.324167 3.873444 0.039654
v -1.702139 3.872195 0.039654
v -0.324167 3.775511 -0.019877
v -0.324167 3.791988 0.000000
v -0.324167 3.775511 0.019877
v -1.730195 3.776665 0.019877
v -1.727786 3.791412 -0.000000
v -1.730195 3.776665 -0.019877
v -1.699553 3.882451 -0.019827
v -1.698827 3.885047 0.000000
v -1.699553 3.882451 0.019827
v -0.324167 3.883701 0.019827
v -0.324167 3.886297 0.000000
v -0.324167 3.883701 -0.019827
v -0.996147 3.775502 0.105191
v -1.059081 3.775502 0.105191
v -1.059081 3.775502 -0.105191
v -0.996147 3.775502 -0.105191
v -0.994939 3.872245 -0.039653
v -1.060042 3.871840 -0.039653
v -1.060042 3.871840 0.039654
v -0.994939 3.872245 0.039654
v -0.996147 3.777508 0.019877
v -1.060804 3.777073 0.019877
v -0.996147 3.793986 0.000000
v -1.060804 3.793551 0.000000
v -1.060804 3.777073 -0.019877
v -0.996147 3.777508 -0.019877
v -1.060042 3.882097 0.019827
v -0.994939 3.882501 0.019827
v -1.060042 3.884693 0.000000
v -0.994939 3.885097 0.000000
v -0.994939 3.882501 -0.019827
v -1.060042 3.882097 -0.019827
v -0.324167 3.788414 -0.009189
v -0.996147 3.790412 -0.009189
v -1.060804 3.789976 -0.009189
v -1.728762 3.788128 -0.009189
v -1.698921 3.884535 -0.010069
v -1.060042 3.884181 -0.010069
v -0.994939 3.884585 -0.010069
v -0.324167 3.885785 -0.010069
v -0.324167 3.788312 0.009288
v -0.996147 3.790310 0.009288
v -1.060804 3.789875 0.009288
v -1.728790 3.788034 0.009288
v -1.698968 3.884366 0.010084
v -1.060042 3.884011 0.010083
v -0.994939 3.884415 0.010083
v -0.324167 3.885615 0.010084
v -1.059081 3.802008 0.000029
v -1.059081 3.796571 -0.014953
v -1.059081 3.784594 -0.024068
v -1.059081 3.780116 -0.096682
v -1.060042 3.865306 -0.033230
v -1.060042 3.872957 -0.016548
v -1.060042 3.874663 -0.008758
v -1.060042 3.874917 -0.000084
v -1.060042 3.874490 0.008770
v -1.060042 3.872931 0.016625
v -1.060042 3.865306 0.033230
v -1.059081 3.780116 0.096682
v -1.059081 3.784593 0.024071
v -1.059081 3.796451 0.015077
v -0.996147 3.784594 -0.024068
v -0.996147 3.796571 -0.014953
v -0.996147 3.802008 0.000029
v -0.996147 3.796451 0.015077
v -0.996147 3.784593 0.024071
v -0.996147 3.780116 0.096682
v -0.996147 3.866910 0.033230
v -0.994939 3.873335 0.016625
v -0.994939 3.874895 0.008771
v -0.994939 3.875322 -0.000084
v -0.994939 3.875067 -0.008758
v -0.994939 3.873361 -0.016548
v -0.994939 3.865710 -0.033230
v -0.996147 3.780116 -0.096682
v -0.324167 3.878688 0.031113
v -1.700847 3.877438 0.031113
v -0.994939 3.877488 0.031113
v -1.060042 3.877084 0.031113
v -1.060042 3.868551 0.026222
v -0.994939 3.868955 0.026223
v -1.700847 3.876817 -0.032313
v -0.324167 3.878067 -0.032314
v -1.060042 3.876463 -0.032314
v -0.994939 3.876867 -0.032314
v -1.060042 3.869013 -0.025226
v -0.994939 3.869417 -0.025226
v -0.078502 3.404556 -0.069370
v -0.145756 3.774551 -0.068877
v 0.049270 3.404556 -0.069621
v -0.169739 3.887859 -0.068877
v 0.009693 3.872543 -0.069620
v -0.096002 3.734388 -0.069370
v -0.064693 3.887859 -0.069620
v 0.049470 3.858772 -0.069620
v -0.034710 3.883791 -0.069620
v 0.049743 3.404556 -0.052392
v 0.009693 3.872543 -0.052392
v 0.049672 3.858772 -0.052392
v -0.034710 3.883791 -0.052392
v -0.045586 3.405472 -0.052393
v -0.169739 3.887859 -0.053650
v -0.078502 3.404556 -0.052817
v -0.096002 3.734388 -0.052817
v -0.145756 3.774551 -0.053651
v -0.064693 3.887859 -0.052392
v 0.009693 3.404556 -0.069621
v -0.017210 3.404556 -0.069621
v -0.047192 3.404556 -0.069621
v -0.064693 3.734388 -0.069621
v -0.034710 3.734388 -0.069621
v 0.009693 3.734388 -0.069621
v 0.049470 3.734388 -0.069621
v 0.048211 3.734388 -0.052392
v -0.064693 3.773644 -0.069621
v -0.034710 3.773644 -0.069621
v 0.009693 3.773644 -0.069621
v 0.049470 3.773644 -0.069621
v 0.048211 3.773644 -0.052392
v 0.009693 3.404556 -0.052393
v -0.017210 3.404556 -0.052393
v -0.064693 3.773644 -0.052393
v -0.064693 3.734388 -0.052393
v -0.078502 3.404556 0.069745
v -0.145756 3.774551 0.069235
v 0.049270 3.404556 0.069621
v -0.169739 3.887859 0.069235
v 0.009693 3.872543 0.069621
v -0.096002 3.734388 0.069745
v -0.064693 3.887859 0.069621
v 0.049470 3.858772 0.069621
v -0.034710 3.883791 0.069621
v 0.049743 3.404556 0.052393
v 0.009693 3.872543 0.052393
v -0.064693 3.887859 0.052393
v 0.049672 3.858772 0.052393
v -0.034710 3.883791 0.052393
v -0.169739 3.887859 0.053344
v -0.078502 3.404556 0.052816
v -0.096002 3.734388 0.052816
v -0.145756 3.774551 0.053344
v 0.009693 3.404556 0.069621
v -0.017210 3.404556 0.069621
v -0.047192 3.404556 0.069621
v -0.064693 3.734388 0.069621
v -0.034710 3.734388 0.069621
v 0.009693 3.734388 0.069621
v 0.049470 3.734388 0.069621
v 0.048211 3.734388 0.052393
v -0.064693 3.773644 0.069621
v -0.034710 3.773644 0.069621
v 0.009693 3.773644 0.069621
v 0.049470 3.773644 0.069621
v 0.048211 3.773644 0.052393
v 0.009693 3.404556 0.052393
v -0.017210 3.404556 0.052393
v -0.045586 3.405472 0.052393
v -0.064693 3.773644 0.052393
v -0.064693 3.734388 0.052393
v -0.311234 3.750203 -0.021955
v -0.360078 3.750203 -0.021955
v -0.311234 3.750203 0.021956
v -0.360078 3.750203 0.021956
v -0.311234 3.793312 -0.021955
v -0.360078 3.793312 -0.021955
v -0.311234 3.793312 0.021956
v -0.360078 3.793312 0.021956
v -0.126444 3.842322 0.074242
v -0.117673 3.857512 0.074242
v -0.100133 3.857512 0.074242
v -0.091363 3.842322 0.074242
v -0.100133 3.827131 0.074242
v -0.117673 3.827131 0.074242
v -0.126444 3.842322 -0.073302
v -0.117673 3.857512 -0.073302
v -0.100133 3.857512 -0.073302
v -0.091363 3.842322 -0.073302
v -0.100133 3.827131 -0.073302
v -0.117673 3.827131 -0.073302
v -0.045544 3.790948 0.074242
v -0.039675 3.801114 0.074242
v -0.027937 3.801114 0.074242
v -0.022068 3.790948 0.074242
v -0.027937 3.780783 0.074242
v -0.039675 3.780783 0.074242
v -0.045544 3.790948 -0.073302
v -0.039675 3.801114 -0.073302
v -0.027937 3.801114 -0.073302
v -0.022068 3.790948 -0.073302
v -0.027937 3.780783 -0.073302
v -0.039675 3.780783 -0.073302
v -0.281421 3.763755 0.054031
v -0.275552 3.773920 0.054031
v -0.275552 3.773920 -0.053091
v -0.281421 3.763755 -0.053091
v -0.263813 3.773920 0.054031
v -0.263813 3.773920 -0.053091
v -0.257945 3.763755 0.054031
v -0.257945 3.763755 -0.053091
v -0.263813 3.753589 0.054031
v -0.263813 3.753589 -0.053091
v -0.275552 3.753589 0.054031
v -0.275552 3.753589 -0.053091
v 0.044152 0.026354 0.017118
v 0.046796 0.026354 -0.007251
v 0.036901 0.026354 -0.029677
v 0.017118 0.026354 -0.044152
v -0.007251 0.026354 -0.046795
v -0.029677 0.026354 -0.036901
v -0.044152 0.026354 -0.017119
v -0.046796 0.026354 0.007251
v -0.036901 0.026354 0.029677
v -0.017119 0.026354 0.044153
v 0.007251 0.026354 0.046796
v 0.029677 0.026354 0.036902
v 0.007251 2.340290 0.046796
v -0.017119 2.340290 0.044152
v -0.036901 2.340290 0.029678
v -0.046796 2.340290 0.007251
v -0.044152 2.340290 -0.017118
v -0.029678 2.340290 -0.036901
v -0.007251 2.340290 -0.046796
v 0.017118 2.340290 -0.044152
v 0.036901 2.340290 -0.029677
v 0.046796 2.340290 -0.007251
v 0.044152 2.340290 0.017119
v 0.029677 2.340290 0.036901
v 0.038956 3.815827 -0.006036
v 0.036755 3.815827 0.014251
v 0.024705 3.815827 0.030719
v 0.006036 3.815827 0.038956
v -0.014251 3.815827 0.036755
v -0.030718 3.815827 0.024706
v -0.038956 3.815827 0.006036
v -0.036755 3.815827 -0.014250
v -0.024705 3.815827 -0.030718
v -0.006037 3.815827 -0.038955
v 0.014250 3.815827 -0.036754
v 0.030718 3.815827 -0.024705
v 0.036755 2.367830 0.014251
v 0.038956 2.367830 -0.006036
v 0.030718 2.367830 -0.024705
v 0.014250 2.367830 -0.036755
v -0.006037 2.367830 -0.038955
v -0.024705 2.367830 -0.030719
v -0.036755 2.367830 -0.014249
v -0.038956 2.367830 0.006037
v -0.030719 2.367830 0.024706
v -0.014251 2.367830 0.036755
v 0.006035 2.367830 0.038957
v 0.024705 2.367830 0.030719
v 0.046796 1.170621 -0.007251
v 0.036901 1.170621 -0.029677
v 0.017118 1.170621 -0.044152
v -0.007251 1.170621 -0.046795
v -0.029678 1.170621 -0.036901
v -0.044152 1.170621 -0.017118
v -0.046796 1.170621 0.007251
v -0.036901 1.170621 0.029678
v -0.017119 1.170621 0.044153
v 0.007251 1.170621 0.046796
v 0.029677 1.170621 0.036902
v 0.044152 1.170621 0.017119
v -0.070751 3.811918 0.051487
v -0.070751 3.864990 -0.037959
v -0.070751 3.864990 0.037960
v -0.070751 3.811918 -0.051486
v -0.070751 3.869800 0.018980
v -0.070751 3.871271 0.000000
v -0.070751 3.869800 -0.018979
v -0.360561 3.811918 0.051487
v -0.360561 3.864990 -0.037959
v -0.360561 3.864990 0.037960
v -0.360561 3.811918 -0.051486
v -0.360561 3.869800 0.018980
v -0.360561 3.871271 0.000000
v -0.360561 3.869800 -0.018979
v -0.070751 3.870873 0.009538
v -0.360561 3.870873 0.009538
v -0.070751 3.870784 -0.009540
v -0.360561 3.870784 -0.009540
vn -0.0000 -0.8661 0.4999
vn -0.0000 -1.0000 -0.0000
vn -0.0000 -0.5000 0.8660
vn -0.0000 -0.8660 0.5000
vn -0.0000 -0.0000 1.0000
vn -0.0000 0.4999 0.8661
vn -0.0000 0.5000 0.8660
vn -0.0000 0.0001 1.0000
vn -0.0000 0.8660 0.5001
vn -0.0000 1.0000 -0.0000
vn -0.0000 0.8660 0.5000
vn -0.0000 1.0000 0.0001
vn -0.0000 0.8660 -0.5000
vn -0.0001 1.0000 -0.0000
vn -0.0000 0.5000 -0.8660
vn -0.0000 0.8660 -0.5001
vn -0.0000 -0.0000 -1.0000
vn -0.0000 0.4999 -0.8661
vn -0.0000 -0.5000 -0.8660
vn 0.0001 -0.0000 -1.0000
vn -0.0000 -0.4999 -0.8661
vn -0.0000 -0.8660 -0.5000
vn -0.0000 -0.8661 -0.4999
vn -1.0000 -0.0000 -0.0000
vn -0.0077 -0.0034 1.0000
vn -0.0085 -0.0033 1.0000
vn -0.0034 -0.0036 1.0000
vn -0.0077 -0.0033 1.0000
vn -0.0035 -0.0036 1.0000
vn -0.0008 -0.0037 1.0000
vn -0.0035 -0.0036 -1.0000
vn -0.0077 -0.0033 -1.0000
vn -0.0008 -0.0037 -1.0000
vn -0.0077 -0.0034 -1.0000
vn -0.0034 -0.0036 -1.0000
vn -0.0085 -0.0033 -1.0000
vn -0.0107 -0.9999 -0.0000
vn 1.0000 -0.0029 -0.0000
vn 1.0000 -0.0000 -0.0000
vn -0.0081 -0.0033 1.0000
vn -0.0012 -0.0036 1.0000
vn 0.0133 -0.0030 0.9999
vn 0.0137 -0.0031 0.9999
vn 0.0094 -0.0021 1.0000
vn 0.0137 -0.0031 -0.9999
vn 0.0094 -0.0021 -1.0000
vn -0.0012 -0.0036 -1.0000
vn -0.0081 -0.0033 -1.0000
vn 0.0133 -0.0030 -0.9999
vn -0.9720 -0.2350 0.0001
vn -0.7410 -0.6716 -0.0000
vn -0.9720 -0.2350 -0.0001
vn -0.4986 -0.8668 0.0042
vn -0.1308 -0.9914 0.0100
vn -0.1316 -0.9913 0.0093
vn -0.1309 -0.9914 0.0091
vn -0.4986 -0.8668 0.0036
vn -0.4986 -0.8668 0.0040
vn -0.1315 -0.9913 0.0090
vn -0.0204 -0.9997 0.0092
vn -0.0204 -0.9998 0.0091
vn -0.0203 -0.9998 0.0093
vn -0.1315 -0.9913 0.0087
vn -0.1308 -0.9914 0.0093
vn -0.4986 -0.8668 0.0039
vn -0.0121 -0.0031 -0.9999
vn -0.0119 -0.0031 -0.9999
vn -0.0084 -0.0033 -1.0000
vn 1.0000 -0.0046 -0.0000
vn -0.0119 -0.0031 0.9999
vn -0.0084 -0.0033 1.0000
vn -0.0121 -0.0031 0.9999
vn -0.9846 -0.1751 -0.0000
vn -0.9720 -0.2350 0.0002
vn -0.9720 -0.2350 -0.0000
vn 0.4802 0.7075 -0.5186
vn -0.0112 0.9987 -0.0504
vn 0.0132 0.9986 -0.0505
vn -0.0131 0.9986 -0.0507
vn 0.4807 0.7086 -0.5165
vn -0.4802 0.7073 -0.5187
vn 0.0495 0.9987 0.0113
vn 0.5107 0.7081 -0.4876
vn 0.0495 0.9987 -0.0132
vn 0.5108 0.7081 0.4875
vn 0.5084 0.7094 -0.4881
vn 0.0498 0.9987 0.0132
vn -0.5108 0.7081 -0.4875
vn -0.5084 0.7094 0.4881
vn -0.0498 0.9987 -0.0132
vn -0.0495 0.9987 -0.0113
vn -0.5107 0.7081 0.4876
vn -0.0495 0.9987 0.0132
vn -0.4974 0.6988 0.5141
vn 0.0114 0.9994 0.0329
vn -0.0114 0.9994 0.0322
vn 0.4974 0.6988 0.5141
vn -0.0113 0.9999 -0.0113
vn 0.0113 0.9999 -0.0113
vn 0.5399 0.6637 -0.5176
vn -0.5399 0.6637 -0.5176
vn -0.5044 0.6965 -0.5104
vn 0.5044 0.6964 -0.5104
vn -0.5400 0.6637 0.5176
vn 0.5399 0.6637 0.5177
vn -0.0000 -0.8105 0.5857
vn -0.0000 -1.0000 -0.0040
vn -0.0000 -0.8106 0.5857
vn -0.0062 0.9930 -0.1183
vn -0.0062 0.9999 0.0098
vn -0.0062 0.9930 -0.1182
vn -0.0022 0.6261 -0.7797
vn -0.0018 0.5965 -0.8026
vn -0.0019 0.5964 -0.8027
vn -0.0022 0.6264 -0.7795
vn -0.9563 0.2832 -0.0735
vn -0.9590 0.2833 -0.0047
vn -0.9552 0.2885 -0.0653
vn -0.9556 0.2907 -0.0478
vn -0.0075 0.5937 0.8047
vn -0.0075 0.5937 0.8046
vn -0.0081 0.6224 0.7827
vn -0.0081 0.6260 0.7798
vn -0.0081 0.6223 0.7827
vn -0.0000 -0.9806 -0.1962
vn -0.0000 -0.9981 -0.0615
vn 0.0001 -0.9806 -0.1962
vn -0.0000 -0.8098 -0.5867
vn -0.0000 -0.8099 -0.5866
vn -0.0000 -0.9981 0.0616
vn -0.0000 -0.9803 0.1973
vn -0.0000 -0.9981 0.0615
vn -0.0093 0.9211 0.3893
vn -0.0091 0.9203 0.3910
vn -0.0082 0.6260 0.7797
vn -0.0094 0.9211 0.3893
vn -0.0062 0.9930 0.1181
vn -0.0059 0.9466 0.3223
vn -0.0059 0.9467 0.3220
vn -0.0056 0.9089 -0.4169
vn -0.9591 0.2829 0.0061
vn -0.9595 0.2818 -0.0010
vn -0.9563 0.2834 0.0715
vn -0.9552 0.2886 0.0654
vn -0.9556 0.2907 0.0479
vn -0.9553 0.2956 0.0001
vn -0.9556 0.2907 0.0480
vn -0.9594 0.2820 -0.0003
vn 0.0018 -0.7865 0.6176
vn 0.0030 -1.0000 -0.0054
vn 0.0018 -0.7774 0.6290
vn 0.0029 -0.7865 0.6176
vn 0.0030 -1.0000 -0.0053
vn -0.0023 -0.7697 0.6384
vn -0.0019 -0.6378 0.7702
vn -0.0019 -0.6379 0.7701
vn -0.0023 -0.7697 0.6385
vn -0.0019 -0.7700 0.6381
vn -0.0018 0.9915 -0.1298
vn -0.0018 1.0000 0.0084
vn -0.0018 1.0000 0.0083
vn 0.0006 0.9913 -0.1317
vn 0.0005 0.9447 -0.3279
vn 0.0005 0.9430 -0.3327
vn 0.0005 0.9915 -0.1299
vn 0.0004 0.5629 -0.8266
vn 0.0004 0.5807 -0.8141
vn 0.0004 0.5851 -0.8110
vn 0.0004 0.5628 -0.8266
vn -0.0005 0.5584 -0.8295
vn -0.0006 0.5813 -0.8137
vn -0.0006 0.5815 -0.8136
vn -0.0005 0.5585 -0.8295
vn -0.0006 0.5854 0.8107
vn -0.0006 0.5852 0.8109
vn -0.0005 0.5584 0.8295
vn -0.0005 0.5585 0.8295
vn 0.0004 0.5629 0.8265
vn 0.0004 0.5840 0.8117
vn 0.0004 0.5841 0.8117
vn 0.0004 0.5629 0.8266
vn 0.0004 0.5889 0.8082
vn -0.0001 -0.9999 -0.0125
vn -0.0015 -0.9999 -0.0118
vn 0.0017 -0.7774 -0.6290
vn 0.0011 -0.6590 -0.7521
vn 0.0017 -0.7865 -0.6176
vn -0.0023 -0.7697 -0.6384
vn -0.0023 -0.7700 -0.6380
vn -0.0026 -1.0000 -0.0056
vn -0.0030 -1.0000 -0.0056
vn -0.0029 -1.0000 -0.0056
vn -0.0026 -0.7700 -0.6380
vn -0.0015 -0.9999 0.0118
vn -0.0001 -0.9999 0.0125
vn -0.0016 0.8882 0.4595
vn -0.0006 0.5855 0.8107
vn -0.0006 0.5853 0.8109
vn 0.0005 0.8859 0.4639
vn 0.0005 0.8881 0.4596
vn 0.0005 0.9480 0.3183
vn 0.0005 0.9498 0.3130
vn 0.0005 0.9480 0.3184
vn -0.0018 0.9915 0.1304
vn -0.0017 0.9498 0.3129
vn -0.0017 0.9498 0.3128
vn 0.0006 0.9913 0.1313
vn 0.0005 0.9915 0.1298
vn 0.0006 1.0000 0.0085
vn 0.0006 1.0000 0.0084
vn 0.0006 0.9915 0.1299
vn 0.0005 0.8858 -0.4641
vn 0.0004 0.5851 -0.8109
vn 0.0005 0.8858 -0.4640
vn 0.0005 0.8881 -0.4596
vn -0.0016 0.8882 -0.4595
vn -0.0017 0.9447 -0.3278
vn -0.0016 0.8882 -0.4594
vn -0.0000 -0.8105 0.5858
vn -0.0059 0.9459 -0.3244
vn -0.0059 0.9458 -0.3246
vn -0.9556 0.2907 -0.0479
vn -0.9552 0.2885 -0.0652
vn -0.9553 0.2956 0.0002
vn 0.0011 -0.6595 0.7517
vn 0.0017 -0.7774 0.6290
vn -0.0023 -0.7701 0.6380
vn -0.0026 -0.7697 0.6384
vn -0.0030 -1.0000 -0.0055
vn -0.0026 -1.0000 -0.0055
vn -0.0017 0.9448 -0.3277
vn -0.0017 0.9448 -0.3278
vn -0.0018 0.9915 -0.1299
vn 0.0005 0.9915 -0.1298
vn 0.0005 0.9913 -0.1316
vn -0.0000 -1.0000 -0.0041
vn -0.0062 0.9999 0.0099
vn -0.0062 0.9930 0.1180
vn -0.9552 0.2886 0.0655
vn 0.0030 -1.0000 -0.0055
vn 0.0028 -1.0000 -0.0053
vn 0.0018 -0.7865 -0.6176
vn 0.0018 -0.7774 -0.6290
vn -0.0019 -0.6374 -0.7706
vn -0.0023 -0.7700 -0.6381
vn -0.0019 -0.7696 -0.6385
vn 0.0005 0.9498 0.3129
vn 0.9801 -0.1553 0.1241
vn 0.9806 -0.1962 -0.0009
vn 0.9800 -0.1592 0.1192
vn 0.9886 -0.1418 0.0506
vn 0.9887 -0.1422 0.0475
vn 0.9887 -0.1422 0.0474
vn 0.9886 -0.1418 0.0505
vn 0.9986 -0.0518 0.0072
vn 0.9986 -0.0516 0.0072
vn 0.9986 -0.0517 0.0072
vn 1.0000 0.0087 0.0012
vn 1.0000 0.0086 0.0011
vn 1.0000 0.0088 0.0011
vn 1.0000 0.0087 0.0011
vn 1.0000 0.0087 -0.0011
vn 0.9986 -0.0518 -0.0072
vn 0.9986 -0.0516 -0.0072
vn 1.0000 0.0086 -0.0011
vn 0.9886 -0.1418 -0.0503
vn 0.9887 -0.1422 -0.0472
vn 0.9887 -0.1422 -0.0473
vn 0.9800 -0.1592 -0.1193
vn 0.9800 -0.1553 -0.1241
vn 0.9806 -0.1962 -0.0010
vn -0.9982 0.0372 0.0473
vn -0.9982 0.0374 0.0475
vn -0.9955 0.0649 0.0690
vn -0.9955 0.0649 0.0691
vn -0.9956 0.0668 0.0651
vn -0.9989 0.0449 -0.0110
vn -0.9956 0.0668 0.0650
vn -0.9992 0.0380 -0.0093
vn -1.0000 0.0075 0.0010
vn -0.9999 0.0108 0.0014
vn -0.9999 0.0109 0.0014
vn -1.0000 0.0076 0.0010
vn -0.0059 0.9467 0.3221
vn -0.0016 0.8882 0.4594
vn -0.9989 0.0448 -0.0110
vn -0.0059 0.9458 -0.3247
vn 0.0005 0.9430 -0.3328
vn -0.0006 0.5815 -0.8135
vn -0.9591 0.2830 0.0062
vn -0.9590 0.2832 -0.0047
vn -0.9592 0.2826 -0.0042
vn -0.9591 0.2831 0.0061
vn 0.2843 0.9587 -0.0001
vn 0.3257 0.9455 -0.0000
vn 0.2843 0.9587 0.0001
vn 0.0924 0.9957 -0.0000
vn 0.2016 0.9795 -0.0000
vn 0.0917 0.9958 -0.0000
vn 0.9999 -0.0109 0.0062
vn 0.9999 -0.0159 -0.0044
vn 0.9999 -0.0109 -0.0062
vn 0.9999 -0.0160 -0.0043
vn 0.9999 -0.0159 0.0043
vn 0.2017 0.9795 -0.0000
vn -0.9986 -0.0530 -0.0000
vn -0.9783 -0.2071 -0.0000
vn 0.0316 0.9995 -0.0000
vn 0.0923 0.9957 -0.0000
vn 0.3264 0.9452 -0.0019
vn 0.3258 0.9454 -0.0003
vn 0.2846 0.9586 -0.0009
vn -0.6281 -0.7781 -0.0000
vn 0.0317 0.9995 -0.0000
vn 0.9995 -0.0086 0.0306
vn 0.9990 -0.0059 0.0440
vn 0.2846 0.9587 -0.0009
vn -0.0129 -0.0007 0.9999
vn -0.9455 -0.0490 0.3219
vn -0.0136 -0.0004 0.9999
vn -0.9563 -0.0556 0.2869
vn -0.0060 -0.0004 -1.0000
vn -0.0062 -0.0006 -1.0000
vn -0.0080 -0.0009 -1.0000
vn -0.0062 -0.0007 -1.0000
vn -0.0080 -0.0008 -1.0000
vn -0.0081 -0.0007 -1.0000
vn -0.0080 -0.0004 -1.0000
vn -0.0045 -0.0001 -1.0000
vn -0.0040 -0.0002 -1.0000
vn -0.0039 -0.0002 -1.0000
vn 0.9997 0.0020 0.0228
vn 0.9996 0.0018 0.0282
vn 1.0000 0.0038 0.0040
vn 1.0000 0.0043 0.0032
vn 1.0000 0.0038 -0.0040
vn 1.0000 0.0043 -0.0032
vn -0.0082 -0.0002 -1.0000
vn -0.0080 -0.0000 -1.0000
vn 0.9996 0.0018 0.0281
vn -0.0082 -0.9999 0.0142
vn -0.0154 -0.9999 0.0020
vn -0.0153 -0.9999 0.0020
vn -0.0153 -0.9999 -0.0020
vn 0.0007 -0.9996 0.0269
vn -0.0242 -0.9997 0.0070
vn -0.0154 -0.9999 -0.0020
vn -0.0242 -0.9997 -0.0069
vn 0.0142 -0.9995 0.0264
vn 0.0007 -0.9996 0.0268
vn 0.0142 -0.9996 0.0264
vn -0.9564 -0.0555 -0.2869
vn -0.9455 -0.0491 -0.3220
vn -0.7871 -0.0006 0.6168
vn -0.7531 -0.0009 0.6579
vn -0.0137 -0.0012 0.9999
vn -0.0136 -0.0012 0.9999
vn -0.7531 -0.0017 0.6579
vn -0.0135 -0.0014 0.9999
vn -0.7871 -0.0000 0.6169
vn -0.7863 -0.0007 -0.6178
vn -0.7522 -0.0000 -0.6589
vn -0.9455 -0.0489 0.3220
vn -0.0137 -0.0003 0.9999
vn -0.0136 -0.0002 0.9999
vn -0.7871 0.0097 0.6168
vn -0.9455 -0.0491 -0.3219
vn -0.7871 -0.0006 0.6169
vn -0.7863 -0.0000 -0.6179
vn 0.0311 0.9995 -0.0000
vn 0.3264 0.9452 0.0019
vn 0.3258 0.9454 0.0003
vn 0.2846 0.9586 0.0009
vn 0.9995 -0.0086 -0.0306
vn 0.9990 -0.0059 -0.0440
vn 0.2846 0.9587 0.0009
vn -0.0132 -0.0007 -0.9999
vn -0.0128 -0.0008 -0.9999
vn -0.9563 -0.0556 -0.2870
vn -0.0028 0.0004 1.0000
vn -0.0032 -0.0003 1.0000
vn -0.0043 -0.0004 1.0000
vn -0.0041 -0.0005 1.0000
vn 0.0020 0.0001 1.0000
vn 0.0016 0.0006 1.0000
vn 0.0039 0.0002 1.0000
vn 0.0023 0.0015 1.0000
vn 0.0015 0.0005 1.0000
vn 0.9997 0.0020 -0.0228
vn 0.9996 0.0018 -0.0282
vn -0.0029 0.0004 1.0000
vn 0.0023 0.0014 1.0000
vn -0.0040 -0.0000 1.0000
vn -0.0082 -0.9999 -0.0142
vn -0.0242 -0.9997 -0.0070
vn 0.0007 -0.9996 -0.0267
vn 0.0140 -0.9996 -0.0262
vn 0.0140 -0.9996 -0.0261
vn -0.7522 -0.0007 -0.6589
vn -0.0104 -0.0011 -0.9999
vn -0.0102 -0.0011 -0.9999
vn -0.0104 -0.0010 -0.9999
vn -0.7864 -0.0006 -0.6178
vn -0.0129 -0.0008 -0.9999
vn -0.7864 -0.0007 -0.6178
vn -0.9455 -0.0490 -0.3220
vn -0.5000 0.8660 -0.0000
vn 0.5000 0.8660 -0.0000
vn 0.5000 0.8660 -0.0002
vn 0.5000 -0.8660 -0.0000
vn -0.5000 -0.8660 -0.0000
vn 1.0000 -0.0000 0.0001
vn 0.5000 0.8660 -0.0001
vn -0.5000 -0.8660 0.0001
vn 0.5000 -0.8660 -0.0001
vn -1.0000 -0.0000 -0.0001
vn -0.5000 0.8660 0.0001
vn 0.9324 -0.0000 0.3615
vn 0.9882 -0.0000 -0.1531
vn 0.7793 -0.0000 -0.6267
vn 0.3615 -0.0000 -0.9324
vn -0.1531 -0.0000 -0.9882
vn -0.1532 -0.0000 -0.9882
vn -0.6267 -0.0000 -0.7793
vn -0.9324 -0.0000 -0.3616
vn -0.9324 -0.0000 -0.3615
vn -0.9882 -0.0000 0.1531
vn -0.9324 -0.0000 -0.3614
vn -0.9882 -0.0000 0.1532
vn -0.7793 -0.0000 0.6267
vn -0.9882 0.0001 0.1532
vn -0.3615 -0.0000 0.9324
vn 0.1531 -0.0000 0.9882
vn 0.1532 -0.0000 0.9882
vn 0.6267 -0.0000 0.7793
vn 0.6267 -0.0000 0.7792
vn 0.9882 0.0061 -0.1531
vn 0.9882 0.0062 -0.1531
vn 0.9324 -0.0000 0.3614
vn 0.9324 0.0062 0.3615
vn 0.7792 0.0062 -0.6267
vn 0.7792 -0.0000 -0.6267
vn 0.3615 0.0062 -0.9323
vn 0.3616 -0.0000 -0.9323
vn -0.1530 0.0062 -0.9882
vn 0.3615 0.0062 -0.9324
vn 0.3614 -0.0000 -0.9324
vn -0.1531 0.0062 -0.9882
vn -0.6267 0.0062 -0.7792
vn -0.9323 0.0062 -0.3615
vn -0.9324 0.0062 -0.3615
vn -0.9882 0.0062 0.1531
vn -0.9324 0.0062 -0.3614
vn -0.9882 0.0062 0.1532
vn -0.7792 0.0062 0.6267
vn -0.3615 0.0062 0.9323
vn -0.3614 0.0062 0.9324
vn 0.1531 0.0062 0.9882
vn 0.1532 0.0062 0.9882
vn 0.6267 0.0062 0.7793
vn 0.9323 0.0062 0.3615
vn 0.9324 -0.0000 0.3616
vn 0.9324 0.0058 0.3614
vn 0.9324 0.0058 0.3615
vn 0.9882 0.0058 -0.1531
vn 0.7792 0.0059 -0.6267
vn 0.9882 0.0058 -0.1532
vn 0.3615 0.0058 -0.9324
vn -0.1531 0.0058 -0.9882
vn 0.3614 0.0058 -0.9324
vn -0.6267 0.0059 -0.7792
vn -0.1532 0.0058 -0.9882
vn -0.9324 0.0058 -0.3615
vn -0.9882 0.0058 0.1531
vn -0.9324 0.0058 -0.3614
vn -0.7792 0.0059 0.6267
vn -0.3615 0.0058 0.9324
vn -0.3615 0.0062 0.9324
vn -0.3614 0.0058 0.9324
vn 0.1531 0.0058 0.9882
vn 0.1532 0.0058 0.9882
vn 0.6267 0.0058 0.7792
vn 0.6267 0.0062 0.7792
vn 0.9324 0.0059 0.3615
vn 0.9323 0.0058 0.3615
vn -0.6267 0.0058 -0.7793
vn -0.6266 0.0058 -0.7793
vn -0.7793 0.0058 0.6266
vn 0.6266 0.0058 0.7793
vn 0.6267 0.0058 0.7793
vn 0.6268 0.0058 0.7792
vn -0.0000 0.9970 -0.0773
vn -0.0000 1.0000 -0.0047
vn -0.0000 0.9970 -0.0772
vn -0.0000 0.2470 -0.9690
vn -0.0000 0.2470 0.9690
vn -0.0000 0.9792 0.2027
vn -0.0000 0.9694 0.2456
vn -0.0000 0.9694 0.2457
vn -0.0000 0.9970 0.0773
vn -0.0000 0.9970 0.0771
vn -0.0000 0.9694 -0.2456
vn -0.0000 0.9798 -0.1998
vn -0.0000 0.9694 -0.2457
vn -0.0000 0.9798 -0.1997
vt 0.290026 0.009127
vt 0.290026 0.679820
vt 0.285347 0.009127
vt 0.285348 0.679821
vt 0.294704 0.009126
vt 0.294704 0.679820
vt 0.299380 0.009127
vt 0.299381 0.679820
vt 0.304059 0.009127
vt 0.304059 0.679821
vt 0.308733 0.009126
vt 0.308733 0.679820
vt 0.313403 0.009128
vt 0.313403 0.679820
vt 0.318070 0.679819
vt 0.318069 0.009127
vt 0.322738 0.009128
vt 0.322737 0.679819
vt 0.271336 0.009127
vt 0.266669 0.679819
vt 0.266669 0.009128
vt 0.271336 0.679819
vt 0.276004 0.009128
vt 0.276004 0.679820
vt 0.280674 0.009126
vt 0.280674 0.679819
vt 0.405391 0.672537
vt 0.410055 0.667362
vt 0.403939 0.679351
vt 0.430821 0.677955
vt 0.429369 0.684769
vt 0.424705 0.689945
vt 0.418078 0.692094
vt 0.428671 0.671328
vt 0.423496 0.666664
vt 0.411263 0.690642
vt 0.406088 0.685978
vt 0.416682 0.665212
vt 0.865232 0.828097
vt 0.865232 0.903718
vt 0.792620 0.903718
vt 0.792620 0.828097
vt 0.988998 0.624070
vt 0.913377 0.696682
vt 0.913378 0.624070
vt 0.988998 0.696681
vt 0.972939 0.241716
vt 0.972939 0.295744
vt 0.925989 0.295744
vt 0.925989 0.241716
vt 0.939805 0.600150
vt 0.975212 0.553203
vt 0.975212 0.600150
vt 0.939805 0.553203
vt 0.972939 0.156063
vt 0.972939 0.228675
vt 0.925988 0.228675
vt 0.925989 0.156062
vt 0.846015 0.815991
vt 0.792619 0.815991
vt 0.901271 0.677464
vt 0.901272 0.624070
vt 0.827866 0.601185
vt 0.850471 0.553493
vt 0.850875 0.601185
vt 0.827482 0.553493
vt 0.834493 0.800374
vt 0.792619 0.800375
vt 0.827675 0.784857
vt 0.792619 0.784858
vt 0.885656 0.624070
vt 0.870139 0.659125
vt 0.870139 0.624069
vt 0.885655 0.665942
vt 0.870522 0.601185
vt 0.887263 0.553493
vt 0.887335 0.601185
vt 0.870119 0.553493
vt 0.827675 0.745521
vt 0.792618 0.745521
vt 0.830804 0.659125
vt 0.830804 0.624069
vt 0.926433 0.553493
vt 0.926523 0.601185
vt 0.934970 0.819065
vt 0.988998 0.819065
vt 0.925989 0.033679
vt 0.972939 0.033679
vt 0.987616 0.903717
vt 0.987616 0.849690
vt 0.702960 0.601185
vt 0.702588 0.553493
vt 0.310661 0.696310
vt 0.144165 0.862806
vt 0.144165 0.696310
vt 0.310661 0.862806
vt 0.924082 0.519404
vt 0.764635 0.516454
vt 0.920948 0.516430
vt 0.761530 0.519401
vt 0.920981 0.362113
vt 0.924091 0.359169
vt 0.761540 0.359121
vt 0.764669 0.362090
vt 0.935731 0.530121
vt 0.749931 0.530131
vt 0.749920 0.348449
vt 0.935722 0.348458
vt 0.536995 0.449318
vt 0.544760 0.479980
vt 0.536995 0.479980
vt 0.544760 0.449317
vt 0.414473 0.479918
vt 0.410362 0.448408
vt 0.414560 0.448420
vt 0.410274 0.479906
vt 0.427210 0.479981
vt 0.478841 0.449466
vt 0.478605 0.479914
vt 0.427297 0.448483
vt 0.792834 0.928379
vt 0.792944 0.982830
vt 0.787576 0.977198
vt 0.788009 0.927303
vt 0.341877 0.479985
vt 0.341547 0.449538
vt 0.393271 0.479893
vt 0.393562 0.448971
vt 0.655720 0.969308
vt 0.656111 0.921587
vt 0.660890 0.922527
vt 0.660913 0.975587
vt 0.559827 0.449317
vt 0.595271 0.479980
vt 0.559827 0.479980
vt 0.595271 0.449317
vt 0.552576 0.449317
vt 0.552576 0.479980
vt 0.494217 0.479981
vt 0.494216 0.449319
vt 0.529662 0.479980
vt 0.529662 0.449318
vt 0.397007 0.479889
vt 0.397094 0.448391
vt 0.406073 0.448398
vt 0.402111 0.479890
vt 0.402198 0.448392
vt 0.405985 0.479895
vt 0.422942 0.479958
vt 0.423030 0.448460
vt 0.773120 0.982831
vt 0.767643 0.930929
vt 0.773228 0.928380
vt 0.778440 0.977247
vt 0.778045 0.927390
vt 0.783032 0.975504
vt 0.783031 0.927047
vt 0.799014 0.931223
vt 0.641417 0.975587
vt 0.635318 0.925290
vt 0.641442 0.922527
vt 0.646228 0.921504
vt 0.651165 0.967505
vt 0.646659 0.969258
vt 0.651166 0.921253
vt 0.666425 0.924985
vt 0.336775 0.378264
vt 0.661465 0.373621
vt 0.661942 0.378374
vt 0.336772 0.373459
vt 0.660837 0.411716
vt 0.335333 0.403600
vt 0.660855 0.403599
vt 0.335315 0.411716
vt 0.336491 0.086715
vt 0.661880 0.091642
vt 0.336493 0.091639
vt 0.661885 0.086715
vt 0.352540 0.269373
vt 0.663072 0.274290
vt 0.352223 0.274273
vt 0.663074 0.269381
vt 0.663375 0.342509
vt 0.350925 0.285259
vt 0.663060 0.285295
vt 0.336688 0.342297
vt 0.336559 0.013671
vt 0.661906 0.070934
vt 0.336492 0.070935
vt 0.662632 0.014196
vt 0.336524 0.112295
vt 0.661866 0.112298
vt 0.336632 0.169325
vt 0.662557 0.168797
vt 0.663374 0.186349
vt 0.350924 0.243596
vt 0.336687 0.186561
vt 0.663060 0.243560
vt 0.720260 0.336318
vt 0.678185 0.009860
vt 0.720264 0.010013
vt 0.678168 0.336631
vt 0.737133 0.335998
vt 0.737130 0.010413
vt 0.779141 0.335998
vt 0.779145 0.010413
vt 0.661960 0.368807
vt 0.336803 0.360498
vt 0.662660 0.361243
vt 0.336780 0.368592
vt 0.660837 0.421331
vt 0.335315 0.421331
vt 0.660831 0.416492
vt 0.335309 0.416493
vt 0.793031 0.335998
vt 0.793028 0.010413
vt 0.835039 0.335998
vt 0.835042 0.010414
vt 0.893781 0.009859
vt 0.851705 0.336318
vt 0.851702 0.010013
vt 0.893798 0.336632
vt 0.336514 0.107422
vt 0.661880 0.107429
vt 0.351573 0.248516
vt 0.663065 0.248488
vt 0.352223 0.254580
vt 0.663071 0.254563
vt 0.336497 0.096571
vt 0.661870 0.101418
vt 0.336505 0.101412
vt 0.661866 0.096574
vt 0.352517 0.259457
vt 0.663074 0.259449
vt 0.352590 0.264421
vt 0.663075 0.264421
vt 0.351571 0.281000
vt 0.663065 0.281029
vt 0.661897 0.075160
vt 0.336487 0.081844
vt 0.336489 0.075162
vt 0.661882 0.081843
vt 0.418418 0.448436
vt 0.418330 0.479934
vt 0.336790 0.386426
vt 0.662647 0.386006
vt 0.335333 0.429379
vt 0.660855 0.429379
vt 0.914802 0.973172
vt 0.922306 0.974819
vt 0.917705 0.976580
vt 0.922322 0.970485
vt 0.912275 0.982983
vt 0.910172 0.979114
vt 0.869684 0.983547
vt 0.873940 0.981234
vt 0.902406 0.935059
vt 0.905645 0.938313
vt 0.906069 0.932716
vt 0.909651 0.936415
vt 0.913975 0.934375
vt 0.917185 0.928723
vt 0.917866 0.933490
vt 0.912294 0.929812
vt 0.922242 0.928458
vt 0.922201 0.933364
vt 0.926628 0.933577
vt 0.927305 0.928807
vt 0.932193 0.929803
vt 0.930554 0.934381
vt 0.935340 0.936643
vt 0.937822 0.932388
vt 0.942084 0.935039
vt 0.974923 0.983497
vt 0.970665 0.981188
vt 0.938847 0.938301
vt 0.932337 0.982991
vt 0.934438 0.979120
vt 0.926955 0.976636
vt 0.929874 0.973238
vt 0.767803 0.670776
vt 0.775192 0.673876
vt 0.773097 0.677513
vt 0.770783 0.667662
vt 0.763179 0.668892
vt 0.763162 0.664788
vt 0.758507 0.670831
vt 0.755511 0.667732
vt 0.751173 0.673889
vt 0.753273 0.677525
vt 0.714736 0.675651
vt 0.710408 0.677963
vt 0.743138 0.629558
vt 0.746445 0.632321
vt 0.747425 0.626867
vt 0.750010 0.631143
vt 0.757990 0.623080
vt 0.754807 0.628793
vt 0.753061 0.624150
vt 0.758753 0.627927
vt 0.763132 0.622674
vt 0.763193 0.627683
vt 0.767553 0.627816
vt 0.768267 0.622966
vt 0.771471 0.628724
vt 0.773210 0.624085
vt 0.775844 0.630796
vt 0.779466 0.627029
vt 0.811660 0.675602
vt 0.779898 0.632735
vt 0.783166 0.629407
vt 0.815992 0.677913
vt 0.802647 0.933590
vt 0.835126 0.983155
vt 0.730938 0.983157
vt 0.763415 0.933591
vt 0.599575 0.975593
vt 0.631719 0.927557
vt 0.670613 0.927557
vt 0.702756 0.975594
vt 0.666255 0.701781
vt 0.626140 0.683486
vt 0.672807 0.683625
vt 0.626086 0.701661
vt 0.698258 0.715723
vt 0.679043 0.764850
vt 0.679073 0.715708
vt 0.698228 0.764859
vt 0.733961 0.715698
vt 0.719718 0.764883
vt 0.719749 0.715724
vt 0.733927 0.764924
vt 0.627115 0.722629
vt 0.668279 0.773444
vt 0.627043 0.773390
vt 0.668353 0.722684
vt 0.986495 0.190341
vt 0.978320 0.030311
vt 0.986687 0.030320
vt 0.978129 0.190330
vt 0.913959 0.302859
vt 0.970278 0.311295
vt 0.913950 0.311238
vt 0.970286 0.302917
vt 0.733883 0.707613
vt 0.783241 0.714972
vt 0.783123 0.706892
vt 0.679439 0.434747
vt 0.698140 0.426677
vt 0.698140 0.434747
vt 0.679439 0.426677
vt 0.679079 0.707629
vt 0.698260 0.707645
vt 0.879294 0.720958
vt 0.848673 0.729197
vt 0.848676 0.720947
vt 0.879291 0.729256
vt 0.719729 0.707649
vt 0.668365 0.714338
vt 0.627127 0.714283
vt 0.698140 0.377594
vt 0.679439 0.377594
vt 0.576541 0.538048
vt 0.416886 0.553049
vt 0.416392 0.537910
vt 0.577340 0.553433
vt 0.626202 0.662533
vt 0.678177 0.662688
vt 0.626244 0.648386
vt 0.680139 0.648547
vt 0.680288 0.598980
vt 0.626788 0.610135
vt 0.452094 0.641353
vt 0.607764 0.633555
vt 0.607720 0.648330
vt 0.452050 0.656127
vt 0.607678 0.662478
vt 0.452008 0.670276
vt 0.607616 0.683431
vt 0.451971 0.682970
vt 0.451915 0.701810
vt 0.607563 0.701607
vt 0.448331 0.714013
vt 0.608111 0.714256
vt 0.608099 0.722602
vt 0.448319 0.722359
vt 0.608026 0.773362
vt 0.448243 0.773119
vt 0.710742 0.434747
vt 0.710742 0.426678
vt 0.710742 0.377594
vt 0.724786 0.434748
vt 0.724442 0.426678
vt 0.724442 0.377594
vt 0.739452 0.426631
vt 0.739451 0.434749
vt 0.577198 0.604309
vt 0.416743 0.603800
vt 0.397933 0.553161
vt 0.342733 0.553103
vt 0.397030 0.514006
vt 0.342657 0.502658
vt 0.397798 0.603583
vt 0.342601 0.603335
vt 0.626026 0.794630
vt 0.666206 0.794632
vt 0.626025 0.812811
vt 0.672705 0.812813
vt 0.421859 0.499432
vt 0.581858 0.499456
vt 0.581856 0.507823
vt 0.421858 0.507798
vt 0.614759 0.540916
vt 0.671102 0.540897
vt 0.671105 0.549278
vt 0.614762 0.549297
vt 0.783203 0.765631
vt 0.733847 0.773009
vt 0.783088 0.773709
vt 0.679439 0.369525
vt 0.698140 0.369525
vt 0.679039 0.772929
vt 0.698220 0.772936
vt 0.850991 0.695741
vt 0.881610 0.695710
vt 0.881606 0.704009
vt 0.850986 0.703991
vt 0.719691 0.772959
vt 0.668268 0.781789
vt 0.627031 0.781736
vt 0.576312 0.619689
vt 0.416161 0.618937
vt 0.626024 0.833769
vt 0.678013 0.833771
vt 0.626023 0.847920
vt 0.679932 0.847922
vt 0.626450 0.886181
vt 0.679930 0.897502
vt 0.451810 0.839648
vt 0.607494 0.847920
vt 0.451807 0.854426
vt 0.607494 0.862698
vt 0.451809 0.825496
vt 0.607495 0.833768
vt 0.451811 0.812798
vt 0.607496 0.812809
vt 0.451812 0.793952
vt 0.607498 0.794629
vt 0.448231 0.781465
vt 0.608014 0.781708
vt 0.710742 0.369525
vt 0.724786 0.369524
vt 0.739452 0.377640
vt 0.739451 0.369523
vt 0.396673 0.642733
vt 0.342237 0.653778
vt 0.368701 0.739977
vt 0.337210 0.739977
vt 0.368701 0.711667
vt 0.337210 0.711667
vt 0.336750 0.672960
vt 0.368241 0.701270
vt 0.336750 0.701270
vt 0.368241 0.672960
vt 0.368648 0.854986
vt 0.337212 0.854927
vt 0.337264 0.827183
vt 0.368700 0.827242
vt 0.367847 0.818401
vt 0.338065 0.818401
vt 0.367847 0.788065
vt 0.338065 0.788065
vt 0.337209 0.780924
vt 0.337209 0.753129
vt 0.368702 0.780924
vt 0.368702 0.753129
vt 0.133763 0.803969
vt 0.005769 0.803969
vt 0.133763 0.788752
vt 0.005769 0.788752
vt 0.005769 0.773536
vt 0.133763 0.773536
vt 0.133764 0.864835
vt 0.005769 0.849619
vt 0.133764 0.849618
vt 0.005769 0.864835
vt 0.005769 0.834402
vt 0.133763 0.834402
vt 0.133763 0.819185
vt 0.005769 0.819185
vt 0.088946 0.742887
vt 0.114913 0.757879
vt 0.097601 0.757879
vt 0.123568 0.742887
vt 0.044908 0.759021
vt 0.018941 0.744030
vt 0.053563 0.744030
vt 0.027597 0.759021
vt 0.044908 0.729038
vt 0.027597 0.729038
vt 0.114913 0.727896
vt 0.097601 0.727896
vt 0.746078 0.791807
vt 0.735895 0.919802
vt 0.735895 0.791807
vt 0.746078 0.919802
vt 0.725712 0.919802
vt 0.725712 0.791807
vt 0.715529 0.791807
vt 0.715529 0.919802
vt 0.705347 0.919802
vt 0.705346 0.791807
vt 0.756261 0.791807
vt 0.766444 0.919801
vt 0.756261 0.919802
vt 0.766444 0.791807
vt 0.961121 0.364148
vt 0.984289 0.364148
vt 0.966913 0.374180
vt 0.978497 0.374180
vt 0.966179 0.414619
vt 0.983555 0.404587
vt 0.977763 0.414619
vt 0.960387 0.404587
vt 0.966179 0.394554
vt 0.977764 0.394554
vt 0.966913 0.354115
vt 0.978497 0.354115
vt 0.646782 0.469742
vt 0.739711 0.469742
vt 0.646782 0.479925
vt 0.739711 0.479925
vt 0.739711 0.490108
vt 0.646782 0.490108
vt 0.739711 0.500291
vt 0.646782 0.500291
vt 0.739711 0.510474
vt 0.646782 0.510474
vt 0.646782 0.449377
vt 0.739711 0.459560
vt 0.646782 0.459560
vt 0.739711 0.449377
vt 0.961265 0.503757
vt 0.978642 0.513789
vt 0.967057 0.513789
vt 0.984434 0.503757
vt 0.963168 0.470663
vt 0.980544 0.460631
vt 0.974752 0.470663
vt 0.957375 0.460631
vt 0.963168 0.450598
vt 0.974752 0.450598
vt 0.978642 0.493725
vt 0.967057 0.493725
vt 0.120470 0.551549
vt 0.120470 0.006507
vt 0.131674 0.006507
vt 0.131674 0.551549
vt 0.004203 0.551549
vt 0.004203 0.006507
vt 0.015408 0.006507
vt 0.015408 0.551549
vt 0.026267 0.006507
vt 0.026267 0.551549
vt 0.036937 0.006507
vt 0.036937 0.551549
vt 0.047471 0.006507
vt 0.047471 0.551549
vt 0.057824 0.006507
vt 0.057824 0.551549
vt 0.067938 0.006507
vt 0.067938 0.551549
vt 0.078053 0.006507
vt 0.078053 0.551549
vt 0.088406 0.006507
vt 0.088406 0.551549
vt 0.098940 0.006507
vt 0.098940 0.551549
vt 0.109610 0.006507
vt 0.109610 0.551549
vt 0.244475 0.682643
vt 0.253962 0.007935
vt 0.253962 0.682645
vt 0.244476 0.007936
vt 0.149941 0.007936
vt 0.149942 0.682643
vt 0.140454 0.007935
vt 0.140455 0.682645
vt 0.159413 0.007938
vt 0.159413 0.682642
vt 0.168873 0.007940
vt 0.168873 0.682640
vt 0.178327 0.682638
vt 0.178327 0.007942
vt 0.187773 0.682637
vt 0.187774 0.007943
vt 0.197208 0.682637
vt 0.197209 0.007943
vt 0.206644 0.682637
vt 0.206644 0.007943
vt 0.216089 0.682638
vt 0.216089 0.007942
vt 0.225544 0.682640
vt 0.225544 0.007940
vt 0.235004 0.682642
vt 0.235004 0.007938
vt 0.567584 0.887891
vt 0.554751 0.887891
vt 0.567584 0.878480
vt 0.554751 0.878480
vt 0.554751 0.981996
vt 0.567584 0.981996
vt 0.554751 0.991407
vt 0.567584 0.991407
vt 0.554751 0.972586
vt 0.567584 0.972586
vt 0.567584 0.963175
vt 0.554751 0.963175
vt 0.554751 0.953764
vt 0.567584 0.953765
vt 0.554751 0.944354
vt 0.567584 0.944354
vt 0.567584 0.934943
vt 0.554751 0.934943
vt 0.567584 0.925533
vt 0.554751 0.925533
vt 0.554751 0.916122
vt 0.567584 0.916122
vt 0.567584 0.906712
vt 0.554751 0.906712
vt 0.567584 0.897302
vt 0.554751 0.897302
vt 0.009709 0.887891
vt 0.009709 0.878480
vt 0.009709 0.981996
vt 0.009709 0.991407
vt 0.009709 0.972586
vt 0.009709 0.963175
vt 0.009709 0.953764
vt 0.009709 0.944354
vt 0.009709 0.934943
vt 0.009709 0.925533
vt 0.009709 0.916122
vt 0.009709 0.906712
vt 0.009709 0.897302
vt 0.384231 0.852406
vt 0.384235 0.712014
vt 0.434118 0.712015
vt 0.434114 0.852406
vt 0.068159 0.559370
vt 0.063527 0.699770
vt 0.063531 0.559370
vt 0.068155 0.699770
vt 0.119341 0.559363
vt 0.092878 0.699777
vt 0.092808 0.559376
vt 0.119411 0.699764
vt 0.036399 0.559362
vt 0.036469 0.699763
vt 0.009866 0.559375
vt 0.009936 0.699776
vt 0.054298 0.699770
vt 0.044817 0.559369
vt 0.054302 0.559369
vt 0.044813 0.699770
vt 0.058902 0.699770
vt 0.058906 0.559369
vt 0.082242 0.559370
vt 0.072752 0.699770
vt 0.072757 0.559370
vt 0.082238 0.699771
s 0
g off
g Light_low_blinn1.002
usemtl blinn1.002
f 2/1/1 14/2/1 1/3/2
f 13/4/2 1/3/2 14/2/1
s 3
f 3/5/3 15/6/3 2/1/4
s 4
f 14/2/4 2/1/4 15/6/3
s 0
f 4/7/5 16/8/5 3/5/3
f 15/6/3 3/5/3 16/8/5
s 7
f 5/9/6 17/10/7 4/7/5
f 16/8/8 4/7/5 17/10/7
s 0
f 6/11/9 18/12/9 5/9/7
f 17/10/7 5/9/7 18/12/9
s 10
f 7/13/10 18/12/11 6/11/11
f 18/12/11 7/13/10 19/14/12
s 0
f 20/15/13 7/13/14 8/16/13
f 7/13/10 20/15/13 19/14/10
f 9/17/15 21/18/15 8/16/13
f 20/15/16 8/16/16 21/18/15
s 15
f 10/19/17 21/20/18 9/21/18
f 21/20/18 10/19/17 22/22/17
s 0
f 11/23/19 23/24/19 10/19/20
f 22/22/17 10/19/17 23/24/21
f 12/25/22 24/26/22 11/23/19
f 23/24/19 11/23/19 24/26/22
s 20
f 1/3/2 13/4/2 12/25/22
f 24/26/23 12/25/22 13/4/2
s 0
f 13/27/24 14/28/24 24/29/24
f 18/30/24 19/31/24 20/32/24
s 23
f 21/33/24 18/30/24 20/32/24
f 21/33/24 17/34/24 18/30/24
s 0
f 21/33/24 16/35/24 17/34/24
f 16/35/24 21/33/24 22/36/24
f 23/37/24 16/35/24 22/36/24
f 16/35/24 23/37/24 15/38/24
s 28
f 23/37/24 14/28/24 15/38/24
s 29
f 14/28/24 23/37/24 24/29/24
s 0
g Light_low_Material.002
usemtl Material.002
f 36/39/25 25/40/26 27/41/27
f 36/39/28 27/41/29 35/42/30
s 32
f 31/43/31 33/44/32 34/45/33
s 33
f 33/44/34 31/43/35 29/46/36
s 34
f 49/47/37 50/48/37 51/49/37
s 35
f 49/47/37 51/49/37 52/50/37
s 0
f 30/51/24 28/52/24 32/53/24
f 28/52/24 30/51/24 26/54/24
s 38
f 29/55/38 31/56/39 27/57/39
s 39
f 29/55/38 27/57/39 25/58/38
s 0
f 36/39/40 35/42/41 48/59/42
f 48/59/43 35/42/30 47/60/44
f 34/45/33 45/61/45 46/62/46
f 34/45/47 33/44/48 45/61/49
s 44
f 33/63/50 48/64/51 45/65/51
f 48/64/51 33/63/50 36/66/52
s 0
f 40/67/5 39/68/5 41/69/5
f 41/69/5 39/68/5 42/70/5
f 38/71/17 44/72/17 43/73/17
f 38/71/17 37/74/17 44/72/17
f 37/75/53 41/76/54 44/77/55
f 41/76/56 37/75/57 40/78/58
f 26/79/5 41/69/5 42/70/5
f 26/79/5 42/70/5 28/80/5
f 43/73/17 30/81/17 32/82/17
f 30/81/17 43/73/17 44/72/17
f 44/77/59 26/83/60 30/84/61
f 26/83/62 44/77/63 41/76/64
f 48/59/43 47/60/44 40/67/5
f 40/67/5 47/60/44 39/68/5
f 46/62/46 37/74/17 38/71/17
f 46/62/46 45/61/45 37/74/17
s 44
f 45/65/51 40/78/65 37/75/58
f 40/78/65 45/65/51 48/64/51
s 0
f 29/46/36 49/85/66 33/44/32
f 49/85/67 29/46/68 50/86/67
f 25/58/38 51/87/69 29/55/38
f 50/88/69 29/55/38 51/87/69
s 65
f 51/89/70 25/40/71 52/90/70
s 66
f 25/40/26 36/39/28 52/90/72
s 0
f 49/91/73 36/66/74 33/63/74
f 36/66/75 49/91/73 52/92/73
s 236
f 168/321/17 190/322/17 165/323/17
s 237
f 190/322/17 168/321/17 191/324/17
s 0
f 171/325/294 209/326/295 172/327/295
f 209/326/295 171/325/294 207/328/296
f 179/329/297 210/330/298 173/331/298
f 210/330/298 179/329/297 208/332/299
s 242
f 192/333/300 209/334/301 227/335/302
s 243
f 209/334/303 192/333/300 172/336/304
s 244
f 173/331/305 210/330/305 171/325/294
f 171/325/294 210/330/305 207/328/296
s 245
f 161/337/306 177/338/306 166/339/306
f 177/338/306 161/337/306 176/340/306
s 246
f 164/341/307 178/342/307 175/343/307
f 178/342/307 164/341/307 162/344/307
s 0
f 167/345/308 175/346/10 179/329/309
f 175/346/10 167/345/308 164/347/10
s 249
f 163/348/2 193/349/2 180/350/2
f 193/349/2 163/348/2 170/351/2
s 0
f 168/352/310 171/325/294 172/327/311
f 171/325/294 168/352/310 165/353/312
s 252
f 166/354/313 178/355/313 162/356/313
s 253
f 178/355/313 166/354/313 177/357/313
s 244
f 167/345/314 173/331/305 169/358/298
f 173/331/305 167/345/314 179/329/297
s 243
f 168/359/315 192/333/300 191/360/316
f 192/333/300 168/359/315 172/336/304
s 244
f 169/358/298 171/325/294 165/353/317
f 171/325/294 169/358/298 173/331/305
s 249
f 170/351/2 228/361/2 193/349/2
f 228/361/2 170/351/2 206/362/2
s 254
f 176/363/318 196/364/319 177/365/320
f 196/364/319 176/363/318 174/366/321
s 236
f 189/367/17 169/368/17 165/323/17
f 165/323/17 190/322/17 189/367/17
s 0
f 188/369/322 167/370/323 169/368/17
f 169/368/17 189/367/17 188/369/322
f 164/371/324 167/370/325 162/372/326
f 167/370/323 188/369/322 162/372/327
f 161/373/328 166/374/328 183/375/329
f 183/375/329 182/376/330 161/373/328
f 182/376/331 183/375/329 184/377/17
f 184/377/17 181/378/17 182/376/331
f 181/378/17 184/377/17 185/379/17
f 185/379/17 180/380/17 181/378/17
f 185/379/17 163/381/17 180/380/17
f 163/381/17 185/379/17 186/382/17
f 163/383/332 186/384/333 187/385/334
f 163/383/332 187/385/334 170/386/335
f 170/386/335 187/385/334 222/387/336
f 170/386/335 222/387/336 206/388/337
s 271
f 162/372/326 188/369/322 166/374/338
s 272
f 188/369/322 183/375/329 166/374/339
s 0
f 188/369/322 189/367/17 183/375/329
f 189/367/17 184/377/17 183/375/329
f 189/367/17 190/322/17 184/377/17
f 190/322/17 185/379/17 184/377/17
s 237
f 190/322/17 191/324/17 185/379/17
f 191/324/17 186/382/17 185/379/17
s 0
f 192/333/300 187/385/334 191/360/316
f 186/384/340 191/360/316 187/385/334
f 192/333/300 227/335/302 187/385/334
f 187/385/334 227/335/302 222/387/336
s 249
f 181/389/341 180/350/2 194/390/342
f 180/350/2 193/349/2 194/390/342
s 0
f 193/349/2 228/361/2 194/390/343
f 194/390/343 228/361/2 229/391/344
s 249
f 182/392/345 181/389/341 174/393/346
f 181/389/341 194/390/342 174/393/346
s 0
f 194/390/342 229/391/347 174/393/346
f 174/393/346 229/391/347 230/394/348
f 174/393/346 176/395/349 182/392/350
f 161/396/351 182/392/350 176/395/349
s 254
f 230/397/352 232/398/353 174/366/321
f 196/364/319 174/366/321 232/398/353
s 0
f 195/399/354 179/400/355 178/401/356
f 178/401/357 179/400/358 175/402/359
s 289
f 195/399/360 231/403/361 179/400/355
f 179/400/355 231/403/361 208/404/362
s 0
f 196/364/363 195/399/354 177/365/364
f 177/365/365 195/399/366 178/401/357
f 196/364/319 232/398/367 195/399/368
f 195/399/368 232/398/367 231/403/369
s 294
f 226/405/5 204/406/5 225/407/5
f 225/407/5 204/406/5 201/408/5
s 295
f 213/409/306 212/410/306 197/411/306
f 213/409/306 197/411/306 202/412/306
s 296
f 211/413/307 214/414/307 198/415/307
f 211/413/307 198/415/307 200/416/307
s 297
f 211/417/10 203/418/370 208/332/299
f 203/418/370 211/417/10 200/419/10
s 0
f 228/361/2 206/362/2 199/420/2
f 228/361/2 199/420/2 215/421/2
s 300
f 207/328/296 204/422/371 209/326/372
f 204/422/371 207/328/296 201/423/373
s 301
f 214/424/313 213/425/313 202/426/313
f 214/424/313 202/426/313 198/427/313
s 244
f 208/332/299 205/428/298 210/330/305
s 297
f 205/428/298 208/332/299 203/418/370
s 242
f 227/335/302 209/334/301 204/429/374
f 227/335/302 204/429/374 226/430/375
s 244
f 207/328/296 210/330/305 205/428/298
f 207/328/296 205/428/298 201/423/376
s 302
f 232/398/353 212/431/377 213/432/378
f 212/431/377 232/398/353 230/397/379
s 0
f 225/407/5 201/408/5 224/433/5
f 224/433/5 201/408/5 205/434/5
s 294
f 224/433/5 205/434/5 223/435/380
s 305
f 223/435/380 205/434/5 203/436/381
f 198/437/382 223/435/380 203/436/381
f 203/436/381 200/438/383 198/437/382
s 0
f 217/439/384 218/440/385 197/441/386
f 197/441/386 218/440/385 202/442/387
s 294
f 216/443/5 219/444/5 217/439/384
f 217/439/384 219/444/5 218/440/388
f 215/445/5 220/446/5 216/443/5
f 216/443/5 220/446/5 219/444/5
s 0
f 199/447/5 220/446/5 215/445/5
f 220/446/5 199/447/5 221/448/5
s 242
f 222/387/336 199/449/389 206/388/337
f 199/449/389 222/387/336 221/450/390
s 0
f 218/440/385 223/435/391 202/442/387
f 202/442/392 223/435/380 198/437/393
s 294
f 219/444/5 224/433/5 218/440/388
f 218/440/388 224/433/5 223/435/380
f 220/446/5 225/407/5 219/444/5
f 219/444/5 225/407/5 224/433/5
f 221/448/5 226/405/5 220/446/5
f 220/446/5 226/405/5 225/407/5
s 242
f 222/387/336 227/335/302 226/430/375
f 222/387/336 226/430/375 221/450/390
s 312
f 228/361/2 216/451/394 229/391/347
f 216/451/394 228/361/2 215/421/2
f 230/394/395 229/391/347 216/451/394
f 230/394/395 216/451/394 217/452/396
f 212/453/397 230/394/395 217/452/396
f 212/453/397 217/452/396 197/454/398
s 313
f 208/404/399 214/455/400 211/456/401
s 289
f 214/455/402 208/404/362 231/403/361
s 0
f 214/455/400 231/403/403 213/432/404
f 213/432/404 231/403/405 232/398/406
f 347/646/2 340/647/2 337/648/2
f 347/646/2 337/648/2 344/649/2
f 353/650/492 349/651/493 342/652/493
f 349/651/493 353/650/494 354/653/494
f 340/654/495 345/655/495 338/656/495
f 345/655/495 340/654/495 347/657/495
f 339/658/496 346/659/496 337/660/496
f 344/661/496 337/660/496 346/659/496
f 348/662/497 339/663/498 341/664/497
f 339/663/499 348/662/497 346/665/499
s 420
f 352/666/500 341/664/497 351/667/501
f 341/664/497 352/666/500 348/662/497
s 0
f 338/668/502 350/669/503 343/670/503
f 350/669/503 338/668/504 345/671/504
s 420
f 349/651/493 351/667/501 342/652/493
f 351/667/501 349/651/493 352/666/500
s 0
f 343/670/505 350/669/505 354/653/492
f 343/670/505 354/653/492 353/650/492
g Light_low_Material
usemtl Material
f 53/93/2 56/94/2 54/95/2
f 56/94/2 53/93/2 55/96/2
f 58/97/76 59/98/77 57/99/78
f 59/98/79 58/97/80 60/100/81
f 63/101/82 58/97/83 57/99/84
f 64/102/85 58/97/86 63/101/87
f 60/100/88 62/103/89 59/98/90
f 59/98/91 62/103/92 61/104/93
s 77
f 62/103/94 63/101/95 61/104/96
f 63/101/95 62/103/94 64/102/97
f 59/98/98 61/104/96 57/99/99
f 57/99/99 61/104/96 63/101/95
f 53/105/100 54/106/101 60/100/102
f 53/105/100 60/100/102 58/97/103
f 62/103/94 60/100/102 54/106/101
f 54/106/101 56/107/104 62/103/94
f 56/107/104 55/108/105 64/102/97
f 56/107/104 64/102/97 62/103/94
f 53/105/100 64/102/97 55/108/105
f 64/102/97 53/105/100 58/97/103
s 0
g Light_low_blinn1.001
usemtl blinn1.001
f 136/109/106 121/110/107 122/111/106
f 121/110/107 136/109/108 137/112/107
s 80
f 127/113/109 144/114/110 145/115/111
f 144/114/110 127/113/109 128/116/110
s 0
f 125/117/112 148/118/113 124/119/113
f 148/118/114 125/117/112 147/120/115
s 83
f 79/121/116 78/122/117 108/123/118
f 79/121/116 108/123/118 109/124/119
s 0
f 132/125/120 140/126/121 131/127/122
f 140/126/121 141/128/123 131/127/124
s 86
f 113/129/39 120/130/39 82/131/39
f 113/129/39 82/131/39 75/132/39
s 0
f 139/133/125 132/134/126 133/135/125
f 132/134/126 139/133/127 140/136/126
s 89
f 138/137/128 133/135/125 134/138/129
s 90
f 133/135/125 138/137/128 139/133/125
s 0
f 124/139/130 148/140/130 123/141/131
f 148/140/132 135/142/131 123/141/131
s 93
f 153/143/133 141/128/123 154/144/134
s 94
f 141/128/135 153/143/136 131/127/124
s 0
f 143/145/137 130/146/138 142/147/139
f 130/146/138 143/145/137 129/148/137
f 159/149/140 160/150/140 125/117/112
f 147/120/115 125/117/112 160/150/140
s 99
f 76/151/141 150/152/142 81/153/143
s 0
f 116/154/144 117/155/145 77/156/146
f 80/157/146 77/156/146 117/155/147
s 83
f 79/121/116 155/158/148 78/122/117
s 0
f 73/159/39 156/160/39 84/161/39
f 112/162/39 74/163/39 105/164/39
f 74/163/39 112/162/39 83/165/39
s 105
f 82/131/39 149/166/39 75/132/39
s 0
f 107/167/149 77/168/150 108/169/151
f 77/168/150 107/167/152 96/170/153
f 105/171/154 98/172/155 73/173/155
f 98/172/156 105/171/157 106/174/158
s 110
f 112/175/159 102/176/160 83/177/161
s 111
f 102/176/160 112/175/159 111/178/159
s 0
f 109/179/162 104/180/163 79/181/164
f 104/180/163 109/179/162 110/182/165
s 114
f 87/183/166 70/184/167 90/185/168
s 115
f 70/184/167 87/183/169 66/186/166
s 0
f 65/187/170 89/188/171 69/189/172
f 89/188/171 65/187/173 88/190/173
f 71/191/174 92/192/175 67/193/176
f 85/194/177 67/193/177 92/192/175
s 120
f 86/195/178 72/196/179 68/197/178
s 121
f 72/196/180 86/195/181 91/198/182
s 0
f 94/199/183 68/200/183 76/201/183
f 68/200/183 94/199/183 86/202/183
f 67/203/184 85/204/184 75/205/184
f 93/206/184 75/205/184 85/204/184
s 126
f 116/207/185 94/208/186 76/209/186
f 94/208/186 116/207/185 115/210/187
s 0
f 113/211/188 114/212/189 74/213/190
f 95/214/191 74/213/192 114/212/193
f 73/215/194 98/216/194 65/217/194
f 88/218/194 65/217/194 98/216/194
s 131
f 66/219/195 97/220/195 78/221/195
s 132
f 97/220/195 66/219/195 87/222/195
s 0
f 149/223/196 92/192/175 71/191/197
f 92/192/198 149/223/196 151/224/196
f 150/225/199 152/226/200 81/227/201
f 99/228/202 81/227/203 152/226/200
s 110
f 120/229/204 100/230/205 82/231/206
f 100/230/205 120/229/204 119/232/204
s 0
f 117/233/207 118/234/208 80/235/209
f 101/236/210 80/235/209 118/234/211
f 155/237/212 90/185/168 70/184/167
f 90/185/213 155/237/214 157/238/215
s 141
f 158/239/216 84/240/217 156/241/218
f 84/240/217 158/239/216 103/242/217
s 0
f 123/141/131 135/142/131 136/109/219
f 123/141/131 136/109/219 122/111/219
s 144
f 127/113/109 146/243/220 126/244/221
s 80
f 146/243/220 127/113/109 145/115/111
s 0
f 109/124/222 108/123/223 77/156/224
f 109/124/222 77/156/146 80/157/146
s 147
f 73/159/39 84/161/39 105/164/39
f 105/164/39 84/161/39 112/162/39
s 0
f 97/245/225 108/169/226 78/246/225
f 108/169/226 97/245/225 107/167/149
s 150
f 106/174/227 105/171/228 74/213/229
f 106/174/227 74/213/229 95/214/230
s 0
f 84/240/231 103/242/232 111/178/233
f 84/240/231 111/178/233 112/175/159
s 153
f 110/182/234 109/179/235 80/235/209
f 110/182/234 80/235/209 101/236/210
s 0
f 74/163/39 83/165/39 120/130/39
f 74/163/39 120/130/39 113/129/39
s 156
f 138/137/129 121/110/236 137/112/236
s 89
f 121/110/236 138/137/128 134/138/129
s 0
f 129/148/137 144/114/110 128/116/110
f 144/114/237 129/148/137 143/145/238
s 99
f 76/151/141 81/153/143 116/154/239
s 159
f 117/155/145 116/154/144 81/153/143
s 0
f 77/168/240 96/170/241 115/210/242
f 77/168/240 115/210/242 116/207/243
s 162
f 113/211/188 93/247/244 114/212/245
s 163
f 93/247/244 113/211/246 75/248/244
s 110
f 83/177/161 102/176/160 119/232/204
f 83/177/161 119/232/204 120/229/204
s 0
f 117/233/207 99/228/247 118/234/211
f 99/228/202 117/233/207 81/227/201
s 166
f 122/249/248 96/250/249 107/251/250
f 96/250/249 122/249/248 121/252/249
s 0
f 107/251/250 97/253/251 123/254/252
f 107/251/250 123/254/253 122/249/248
s 169
f 97/253/254 87/255/255 124/256/256
s 170
f 97/253/254 124/256/257 123/254/253
s 0
f 124/256/256 90/257/258 125/258/259
f 90/257/260 124/256/256 87/255/255
s 173
f 125/258/261 157/259/39 159/260/39
f 157/259/39 125/258/261 90/257/261
s 0
f 126/261/39 110/262/39 127/263/39
f 110/262/39 126/261/39 104/264/39
s 176
f 127/263/39 101/265/39 128/266/39
f 101/265/39 127/263/39 110/262/39
s 0
f 128/266/39 101/265/39 129/267/39
f 101/265/39 118/268/39 129/267/39
s 179
f 99/269/39 130/270/39 118/268/39
f 118/268/39 130/270/39 129/267/39
s 0
f 99/269/39 153/271/39 130/270/39
f 153/271/39 99/269/39 152/272/39
s 182
f 91/273/262 86/274/263 132/275/264
s 183
f 91/273/262 132/275/264 131/276/265
s 0
f 94/277/266 132/275/264 86/274/263
f 132/275/264 94/277/266 133/278/267
s 186
f 133/278/268 115/279/269 134/280/270
f 115/279/269 133/278/268 94/277/266
s 0
f 134/280/270 96/250/249 121/252/271
f 96/250/249 134/280/270 115/279/269
f 106/281/24 135/282/24 98/283/24
f 135/282/24 106/281/24 136/284/24
s 191
f 106/281/24 95/285/24 137/286/24
s 192
f 106/281/24 137/286/24 136/284/24
s 0
f 137/286/24 114/287/24 138/288/24
f 114/287/24 137/286/24 95/285/24
s 195
f 114/287/24 139/289/24 138/288/24
s 196
f 139/289/24 114/287/24 93/290/24
s 197
f 140/291/272 139/289/24 93/290/24
f 93/290/24 85/292/273 140/291/272
s 0
f 92/293/274 140/291/272 85/292/273
f 140/291/272 92/293/275 141/294/276
s 200
f 92/293/274 151/295/277 141/294/278
f 151/295/277 154/296/279 141/294/278
s 0
f 119/297/24 142/298/24 100/299/24
f 142/298/24 119/297/24 143/300/24
s 203
f 102/301/24 143/300/24 119/297/24
f 143/300/24 102/301/24 144/302/24
s 0
f 145/303/24 102/301/24 111/304/24
f 102/301/24 145/303/24 144/302/24
f 111/304/24 146/305/24 145/303/24
f 146/305/24 111/304/24 103/306/24
f 103/306/24 160/307/24 146/305/24
f 160/307/24 103/306/24 158/308/24
f 148/309/280 147/310/281 89/311/282
f 89/311/282 88/312/280 148/309/280
f 98/283/24 148/309/280 88/312/283
f 148/309/280 98/283/24 135/282/24
s 93
f 142/147/284 130/146/138 153/143/133
f 142/147/284 153/143/133 154/144/134
s 0
f 151/224/196 82/231/206 100/230/205
f 82/231/205 151/224/196 149/223/285
s 121
f 150/225/199 91/198/182 152/226/200
f 91/198/182 150/225/199 72/196/180
s 0
f 131/276/265 152/272/39 91/273/262
f 152/272/39 131/276/265 153/271/39
f 100/299/24 154/296/279 151/295/286
f 154/296/279 100/299/24 142/298/24
f 160/150/140 159/149/140 126/244/287
f 160/150/140 126/244/287 146/243/220
f 157/238/215 155/237/214 79/181/288
f 157/238/215 79/181/288 104/180/163
f 69/189/289 89/188/171 158/239/216
f 69/189/289 158/239/216 156/241/216
s 173
f 104/264/39 159/260/39 157/259/39
f 159/260/39 104/264/39 126/261/39
s 0
f 147/310/281 160/307/24 158/308/24
f 158/308/24 89/311/282 147/310/281
f 70/313/290 66/314/290 78/122/291
f 70/313/141 78/122/117 155/158/148
f 68/315/292 72/316/292 76/151/293
f 150/152/142 76/151/141 72/316/292
f 73/159/39 65/317/39 69/318/39
f 73/159/39 69/318/39 156/160/39
f 75/132/39 71/319/39 67/320/39
f 75/132/39 149/166/39 71/319/39
g Light_low_blinn1
usemtl blinn1
f 234/457/2 233/458/2 236/459/2
f 233/458/2 235/460/2 236/459/2
f 240/461/10 237/462/10 238/463/10
f 237/462/10 240/461/10 239/464/10
f 238/465/17 237/466/17 233/467/17
f 238/465/17 233/467/17 234/468/17
f 238/469/24 234/470/24 240/471/24
f 234/470/24 236/472/24 240/471/24
f 235/473/5 239/474/5 236/475/5
f 236/475/5 239/474/5 240/476/5
f 247/477/24 241/478/24 248/479/407
f 248/479/407 241/478/24 242/480/407
s 328
f 248/479/407 243/481/408 249/482/408
f 243/481/408 248/479/407 242/480/407
s 0
f 249/483/408 244/484/39 250/485/39
f 244/484/39 249/483/408 243/486/409
s 331
f 250/485/39 245/487/410 251/488/410
f 245/487/410 250/485/39 244/484/39
s 332
f 252/489/411 245/487/410 246/490/411
s 331
f 245/487/410 252/489/411 251/488/410
s 0
f 252/489/411 241/478/24 247/477/24
f 241/478/24 252/489/411 246/490/411
f 244/491/5 246/492/5 245/493/5
f 246/492/5 244/491/5 241/494/5
s 337
f 251/495/17 247/496/17 250/497/17
f 247/496/17 251/495/17 252/498/17
s 0
f 249/499/17 247/496/17 248/500/17
f 247/496/17 249/499/17 250/497/17
f 244/491/5 242/501/5 241/494/5
f 242/501/5 244/491/5 243/502/5
s 342
f 259/503/24 254/504/407 260/505/407
f 254/504/407 259/503/24 253/506/24
s 0
f 260/505/407 255/507/408 261/508/408
f 255/507/408 260/505/407 254/504/407
f 262/509/412 255/507/408 256/510/39
f 255/507/413 262/509/39 261/508/408
s 347
f 262/509/39 257/511/410 263/512/410
f 257/511/410 262/509/39 256/510/39
s 0
f 264/513/414 257/514/410 258/515/411
f 257/514/415 264/513/411 263/516/410
f 264/513/411 253/506/24 259/503/24
f 253/506/24 264/513/411 258/515/411
f 256/517/5 253/518/5 257/519/5
f 257/519/5 253/518/5 258/520/5
f 264/521/17 262/522/17 263/523/17
f 259/524/17 262/522/17 264/521/17
s 356
f 260/525/17 261/526/17 262/522/17
f 260/525/17 262/522/17 259/524/17
s 357
f 253/518/5 256/517/5 255/527/5
f 253/518/5 255/527/5 254/528/5
s 0
f 268/529/24 265/530/416 267/531/407
f 267/531/417 265/530/24 266/532/407
s 360
f 267/531/407 269/533/408 270/534/408
f 269/533/408 267/531/407 266/532/407
s 0
f 270/534/408 271/535/39 272/536/39
f 271/535/39 270/534/408 269/533/408
s 363
f 272/536/39 273/537/410 274/538/410
f 273/537/410 272/536/39 271/535/39
f 274/539/410 275/540/411 276/541/411
f 275/540/411 274/539/410 273/542/410
s 0
f 276/541/411 265/530/24 268/529/24
f 265/530/24 276/541/411 275/540/411
f 271/543/5 275/544/5 273/545/5
f 275/544/5 271/543/5 265/546/5
s 368
f 276/547/17 272/548/17 274/549/17
s 369
f 268/550/17 272/548/17 276/547/17
s 0
f 267/551/17 270/552/17 272/548/17
f 267/551/17 272/548/17 268/550/17
f 271/543/5 266/553/5 265/546/5
f 266/553/5 271/543/5 269/554/5
s 374
f 336/555/418 277/556/418 278/557/419
f 336/555/418 278/557/419 325/558/419
f 325/559/419 278/560/419 279/561/420
f 279/561/420 326/562/420 325/559/419
f 326/562/420 279/561/420 280/563/421
f 280/563/421 327/564/421 326/562/420
s 0
f 327/564/421 280/563/421 281/565/422
f 281/565/422 328/566/422 327/564/421
s 377
f 328/566/423 281/565/423 282/567/424
f 282/567/424 329/568/424 328/566/423
f 283/569/425 330/570/426 329/568/424
f 283/569/425 329/568/424 282/567/424
s 0
f 284/571/427 331/572/427 330/570/428
f 284/571/427 330/570/428 283/569/428
s 380
f 331/572/429 285/573/430 332/574/430
f 285/573/430 331/572/429 284/571/431
f 332/574/430 286/575/432 333/576/432
f 286/575/432 332/574/430 285/573/430
s 0
f 333/576/432 287/577/433 334/578/433
f 287/577/433 333/576/432 286/575/432
s 374
f 334/578/434 288/579/435 335/580/436
f 288/579/435 334/578/434 287/577/434
f 335/580/436 288/579/435 277/556/418
f 335/580/436 277/556/418 336/555/418
s 0
f 302/581/418 314/582/437 301/583/419
f 314/582/438 302/581/439 313/584/440
s 374
f 315/585/441 312/586/442 314/587/438
f 314/587/438 312/586/442 301/588/419
f 316/589/443 311/590/444 315/585/441
f 315/585/441 311/590/444 312/586/442
s 0
f 317/591/445 310/592/422 316/589/446
f 316/589/446 310/592/422 311/590/447
s 377
f 310/592/423 317/591/448 309/593/424
f 318/594/449 309/593/424 317/591/448
f 309/593/424 318/594/449 308/595/425
f 319/596/450 308/595/425 318/594/449
s 0
f 308/595/428 319/596/451 307/597/427
f 320/598/452 307/597/427 319/596/453
s 380
f 307/597/429 320/598/454 306/599/430
f 306/599/430 320/598/454 321/600/455
f 306/599/430 321/600/455 305/601/432
f 305/601/432 321/600/455 322/602/456
s 0
f 305/601/432 322/602/457 304/603/433
f 304/603/433 322/602/457 323/604/458
s 391
f 304/603/434 323/604/459 303/605/435
f 303/605/435 323/604/459 324/606/460
f 303/605/435 313/584/461 302/581/462
f 313/584/461 303/605/435 324/606/460
s 0
f 313/607/440 299/608/463 314/609/438
f 299/608/464 298/610/465 314/609/438
s 374
f 297/611/466 315/612/441 298/613/467
f 314/614/438 298/613/467 315/612/441
f 296/615/468 315/612/441 297/611/466
f 315/612/441 296/615/468 316/616/443
s 0
f 317/617/448 296/615/468 295/618/469
f 296/615/470 317/617/448 316/616/446
s 377
f 294/619/471 317/617/448 295/618/472
f 317/617/448 294/619/471 318/620/449
f 293/621/473 318/620/449 294/619/471
f 318/620/449 293/621/473 319/622/450
s 0
f 320/623/452 293/621/473 292/624/474
f 293/621/475 320/623/452 319/622/451
s 380
f 321/625/455 292/624/474 291/626/476
f 292/624/474 321/625/455 320/623/454
f 321/625/455 290/627/477 322/628/456
f 290/627/477 321/625/455 291/626/476
s 0
f 323/629/458 322/628/478 290/627/479
f 290/627/477 289/630/480 323/629/458
s 391
f 323/629/459 289/630/481 324/631/460
f 289/630/481 300/632/482 324/631/460
s 0
f 324/631/483 299/608/484 313/607/461
f 299/608/485 324/631/483 300/632/482
f 336/633/439 298/610/465 299/608/464
f 298/610/465 336/633/439 325/634/419
s 374
f 326/635/420 297/611/466 325/636/419
f 325/636/419 297/611/466 298/613/467
f 327/637/421 296/615/468 326/635/420
f 326/635/420 296/615/468 297/611/466
f 328/638/422 295/618/469 327/637/421
f 327/637/421 295/618/469 296/615/468
s 0
f 329/639/424 294/619/486 328/638/423
f 328/638/423 294/619/487 295/618/469
s 377
f 294/619/471 329/639/424 293/621/473
f 330/640/426 293/621/473 329/639/424
f 293/621/473 330/640/426 292/624/474
f 331/641/427 292/624/474 330/640/426
s 0
f 292/624/474 331/641/429 291/626/488
f 332/642/430 291/626/488 331/641/429
s 380
f 291/626/476 332/642/430 290/627/477
f 290/627/477 332/642/430 333/643/432
f 290/627/477 333/643/432 289/630/480
f 289/630/480 333/643/432 334/644/433
s 0
f 289/630/480 334/644/434 300/632/489
f 300/632/490 334/644/434 335/645/435
s 374
f 300/632/491 336/633/418 299/608/485
f 336/633/418 300/632/491 335/645/436
