# Blender 4.5.3 LTS
# www.blender.org
mtllib letrero.mtl
g letrero_Malla
v 1.827193 4.227090 -4.524199
v 1.827173 4.227093 4.528451
v -1.793868 4.227085 -4.524208
v -1.793888 4.227087 4.528443
v 1.827195 2.959718 -4.524200
v 1.827193 4.227089 -4.524199
v 1.827175 2.959721 4.528452
v 1.827173 4.227093 4.528451
v -1.793866 2.959713 -4.524208
v -1.793868 4.227085 -4.524208
v -1.793886 2.959716 4.528444
v -1.793888 4.227087 4.528443
vn -0.0000 1.0000 -0.0000
vn 1.0000 -0.0000 -0.0000
vn -0.0000 -0.0000 1.0000
vn -1.0000 -0.0000 -0.0000
vn -0.0000 -0.0000 -1.0000
vn -0.0000 -1.0000 -0.0000
vt 0.000000 0.000000
vt 0.568359 0.462891
vt 0.431641 0.320312
vt 0.568359 0.314453
vt 0.820193 0.990706
vt 0.179676 0.778512
vt 0.798781 0.764583
vt 0.863281 0.750000
vt 0.751953 0.630859
vt 0.855469 0.630859
vt 0.425781 0.476562
vt 0.152398 0.997576
vt 0.748047 0.748047
s 1
g off
g letrero_Material.003
usemtl Material.003
f 2/1/1 3/1/1 4/1/1
s 2
f 6/1/2 7/1/2 5/1/2
s 3
f 8/2/3 11/3/3 7/4/3
s 4
f 12/5/4 9/6/4 11/7/4
s 5
f 10/8/5 5/9/5 9/10/5
s 6
f 11/1/6 5/1/6 7/1/6
s 1
f 2/1/1 1/1/1 3/1/1
s 2
f 6/1/2 8/1/2 7/1/2
s 3
f 8/2/3 12/11/3 11/3/3
s 4
f 12/5/4 10/12/4 9/6/4
s 5
f 10/8/5 6/13/5 5/9/5
s 6
f 11/1/6 9/1/6 5/1/6
